<?xml version="1.0" encoding="UTF-8"?>
<svg width="23px" height="30px" viewBox="0 0 23 30" version="1.1" xmlns="http://www.w3.org/2000/svg" xmlns:xlink="http://www.w3.org/1999/xlink">
    <!-- Generator: sketchtool 49.1 (51147) - http://www.bohemiancoding.com/sketch -->
    <title>2F3CBB8F-6A65-4C7D-ABAE-EDCE93F3CC41</title>
    <desc>Created with sketchtool.</desc>
    <defs></defs>
    <g id="Swipe-Menu-Buttons" stroke="none" stroke-width="1" fill="none" fill-rule="evenodd">
        <g transform="translate(-283.000000, -233.000000)" fill="#FFFFFF" fill-rule="nonzero" id="Delete">
            <g transform="translate(283.000000, 233.000000)">
                <path d="M22.9999391,3.60002174 L16.9473364,3.60002174 L16.9473364,2.4000145 C16.9473364,1.07467933 15.8632917,0 14.5262709,0 L8.47366818,0 C7.13664733,0 6.05260272,1.07467933 6.05260272,2.4000145 L6.05260272,3.60002174 L0,3.60002174 L0,4.80002899 L1.24721185,4.80002899 L2.45890222,27.5999855 C2.45890222,28.9253811 3.54294683,30 4.87996768,30 L18.1957058,30 C19.5327267,30 20.6167713,28.9253811 20.6167713,27.5999855 L21.8071975,4.80002899 L23,4.80002899 L23,3.60002174 L22.9999391,3.60002174 Z M7.26313545,2.4000145 C7.26313545,1.7379207 7.80698562,1.20000725 8.47366818,1.20000725 L14.5262709,1.20000725 C15.194172,1.20000725 15.7368036,1.7379207 15.7368036,2.4000145 L15.7368036,3.60002174 L7.26313545,3.60002174 L7.26313545,2.4000145 Z M19.4085539,27.5378349 L19.4061776,27.5683364 L19.4061776,27.5999855 C19.4061776,28.2609317 18.8635461,28.7999928 18.1956449,28.7999928 L4.87990675,28.7999928 C4.21322419,28.7999928 3.66937402,28.2609317 3.66937402,27.5999855 L3.66937402,27.5683364 L3.66821638,27.5367478 L2.45890222,4.80002899 L20.5955072,4.80002899 L19.4085539,27.5378349 Z" id="Shape"></path>
                <rect id="Rectangle-path" x="12" y="8" width="1" height="19"></rect>
                <polygon id="Shape" points="9 26.9248408 7.98745082 8 7 8.07515917 8.01259897 27"></polygon>
                <polygon id="Shape" points="17 8.07388618 16.0053672 8 15 26.9261138 15.9946328 27"></polygon>
            </g>
        </g>
    </g>
</svg>