<?xml version="1.0" encoding="UTF-8"?>
<svg width="30px" height="26px" viewBox="0 0 30 26" version="1.1" xmlns="http://www.w3.org/2000/svg" xmlns:xlink="http://www.w3.org/1999/xlink">
    <!-- Generator: sketchtool 49.1 (51147) - http://www.bohemiancoding.com/sketch -->
    <title>C837FBCF-0FAB-41D9-8F56-6D5F2C0C19F4</title>
    <desc>Created with sketchtool.</desc>
    <defs></defs>
    <g id="Swipe-Menu-Buttons" stroke="none" stroke-width="1" fill="none" fill-rule="evenodd">
        <g transform="translate(-168.000000, -526.000000)" id="Group-5-Copy-9">
            <g transform="translate(133.000000, 514.000000)">
                <g id="Events" transform="translate(35.000000, 12.000000)">
                    <g id="Calendar">
                        <rect id="Rectangle-8" stroke="#FFFFFF" x="0.5" y="0.5" width="29" height="25"></rect>
                        <path d="M1.40277778,5 L28.7006041,5" id="Line" stroke="#FFFFFF" stroke-linecap="square"></path>
                        <g id="Group" transform="translate(6.000000, 9.000000)" fill="#FFFFFF">
                            <rect id="Rectangle-10" x="0" y="0" width="3.35294118" height="3"></rect>
                            <rect id="Rectangle-10-Copy" x="5.02941176" y="0" width="3.35294118" height="3"></rect>
                            <rect id="Rectangle-10-Copy-2" x="10.0588235" y="0" width="3.35294118" height="3"></rect>
                            <rect id="Rectangle-10-Copy-3" x="15.0882353" y="0" width="3.35294118" height="3"></rect>
                            <rect id="Rectangle-10" x="0" y="4.5" width="3.35294118" height="3"></rect>
                            <rect id="Rectangle-10-Copy" x="5.02941176" y="4.5" width="3.35294118" height="3"></rect>
                            <rect id="Rectangle-10-Copy-2" x="10.0588235" y="4.5" width="3.35294118" height="3"></rect>
                            <rect id="Rectangle-10-Copy-3" x="15.0882353" y="4.5" width="3.35294118" height="3"></rect>
                            <rect id="Rectangle-10" x="0" y="9" width="3.35294118" height="3"></rect>
                            <rect id="Rectangle-10-Copy" x="5.02941176" y="9" width="3.35294118" height="3"></rect>
                            <rect id="Rectangle-10-Copy-2" x="10.0588235" y="9" width="3.35294118" height="3"></rect>
                            <rect id="Rectangle-10-Copy-3" x="15.0882353" y="9" width="3.35294118" height="3"></rect>
                        </g>
                    </g>
                </g>
            </g>
        </g>
    </g>
</svg>