<?xml version="1.0" encoding="UTF-8"?>
<svg width="41px" height="28px" viewBox="0 0 41 28" version="1.1" xmlns="http://www.w3.org/2000/svg" xmlns:xlink="http://www.w3.org/1999/xlink">
    <!-- Generator: sketchtool 49.1 (51147) - http://www.bohemiancoding.com/sketch -->
    <title>2A86BF47-E1F8-46C7-B8BA-705BECD269C6</title>
    <desc>Created with sketchtool.</desc>
    <defs></defs>
    <g id="Swipe-Menu-Buttons" stroke="none" stroke-width="1" fill="none" fill-rule="evenodd">
        <g transform="translate(-385.000000, -426.000000)" id="Pending-Interactions">
            <g transform="translate(386.000000, 427.000000)">
                <g id="Group-3">
                    <path d="M8.8931105,26 L12.2507333,18.6451117 L3,18.6451117 C1.34314575,18.6451117 3.15914327e-15,17.301966 2.22044605e-15,15.6451117 L4.4408921e-16,3 C2.41183085e-16,1.34314575 1.34314575,-1.39730022e-16 3,-4.4408921e-16 L28.3191489,0 C29.9760032,-3.04359188e-16 31.3191489,1.34314575 31.3191489,3 L31.3191489,15.1129597 C31.3191489,16.769814 29.9760032,18.1129597 28.3191489,18.1129597 L18.398316,18.1129597 L8.8931105,26 Z" id="Path-7" stroke="#FFFFFF" stroke-width="1.5" stroke-linejoin="round"></path>
                    <g id="Group-2" transform="translate(24.000000, 11.000000)">
                        <circle id="Oval" stroke="#FFFFFF" fill="#4F93E4" cx="7.5" cy="7.5" r="7.5"></circle>
                        <circle id="Oval-3" fill="#FFFFFF" cx="3.75" cy="7.5" r="1"></circle>
                        <circle id="Oval-3-Copy" fill="#FFFFFF" cx="7.5" cy="7.5" r="1"></circle>
                        <circle id="Oval-3-Copy-2" fill="#FFFFFF" cx="11.25" cy="7.5" r="1"></circle>
                    </g>
                </g>
            </g>
        </g>
    </g>
</svg>