<?xml version="1.0" encoding="UTF-8"?>
<svg width="9px" height="14px" viewBox="0 0 9 14" version="1.1" xmlns="http://www.w3.org/2000/svg" xmlns:xlink="http://www.w3.org/1999/xlink">
    <!-- Generator: Sketch 51.3 (57544) - http://www.bohemiancoding.com/sketch -->
    <title>Pickup-Delivery</title>
    <desc>Created with Sketch.</desc>
    <defs></defs>
    <g id="Symbols" stroke="none" stroke-width="1" fill="none" fill-rule="evenodd">
        <g id="Pin_Pickup-Delivery_Orange" transform="translate(-5.000000, -4.000000)" fill="#FFFFFF">
            <g id="Pickup-Pin-Copy-5">
                <g id="Pickup-Delivery" transform="translate(5.000000, 4.000000)">
                    <path d="M8.49407148,9.57726943 C8.4126576,9.65650258 8.31379818,9.69328918 8.19749269,9.68762976 C8.08118719,9.68197034 7.98232777,9.63952406 7.9009139,9.56029092 L6.69783245,8.32605623 L6.69783245,13.1988894 C6.69783245,13.3120795 6.65712564,13.4082909 6.57571177,13.4875241 C6.49429789,13.5667572 6.39543848,13.6063737 6.27913298,13.6063737 L5.72086702,13.6063737 C5.60456152,13.6063737 5.50570211,13.5667572 5.42428823,13.4875241 C5.34287436,13.4082909 5.30216755,13.3120795 5.30216755,13.1988894 L5.30216755,8.32605623 L4.0990861,9.56029092 C4.01767223,9.63952406 3.91881281,9.68197034 3.80250731,9.68762976 C3.68620182,9.69328918 3.5873424,9.65650258 3.50592852,9.57726943 L3.12212068,9.18676364 C3.0407068,9.10753049 3,9.01131909 3,8.89812892 C3,8.78493875 3.0407068,8.68872735 3.12212068,8.60949421 L5.70342121,6.11884959 C5.78483508,6.03961644 5.8836945,6 6,6 C6.1163055,6 6.21516492,6.03961644 6.29657879,6.11884959 L8.87787932,8.60949421 C8.9592932,8.68872735 9,8.78493875 9,8.89812892 C9,9.01131909 8.9592932,9.10753049 8.87787932,9.18676364 L8.49407148,9.57726943 Z" id="" transform="translate(6.000000, 9.803187) scale(1, -1) translate(-6.000000, -9.803187) "></path>
                    <path d="M5.49407148,3.84499837 C5.4126576,3.92423152 5.31379818,3.96101813 5.19749269,3.95535871 C5.08118719,3.94969929 4.98232777,3.90725301 4.9009139,3.82801986 L3.69783245,2.59378518 L3.69783245,7.46661831 C3.69783245,7.57980848 3.65712564,7.67601988 3.57571177,7.75525302 C3.49429789,7.83448617 3.39543848,7.87410261 3.27913298,7.87410261 L2.72086702,7.87410261 C2.60456152,7.87410261 2.50570211,7.83448617 2.42428823,7.75525302 C2.34287436,7.67601988 2.30216755,7.57980848 2.30216755,7.46661831 L2.30216755,2.59378518 L1.0990861,3.82801986 C1.01767223,3.90725301 0.91881281,3.94969929 0.802507314,3.95535871 C0.686201817,3.96101813 0.587342398,3.92423152 0.505928524,3.84499837 L0.122120678,3.45449258 C0.040706804,3.37525944 0,3.27904804 0,3.16585787 C0,3.0526677 0.040706804,2.9564563 0.122120678,2.87722315 L2.70342121,0.386578533 C2.78483508,0.307345388 2.8836945,0.267728945 3,0.267728945 C3.1163055,0.267728945 3.21516492,0.307345388 3.29657879,0.386578533 L5.87787932,2.87722315 C5.9592932,2.9564563 6,3.0526677 6,3.16585787 C6,3.27904804 5.9592932,3.37525944 5.87787932,3.45449258 L5.49407148,3.84499837 Z" id=""></path>
                </g>
            </g>
        </g>
    </g>
</svg>