<?xml version="1.0" encoding="UTF-8"?>
<svg width="37px" height="23px" viewBox="0 0 37 23" version="1.1" xmlns="http://www.w3.org/2000/svg" xmlns:xlink="http://www.w3.org/1999/xlink">
    <!-- Generator: sketchtool 49.1 (51147) - http://www.bohemiancoding.com/sketch -->
    <title>793FD16D-B4D3-4EF1-B472-91DCD8ED76C2</title>
    <desc>Created with sketchtool.</desc>
    <defs></defs>
    <g id="Swipe-Menu-Buttons" stroke="none" stroke-width="1" fill="none" fill-rule="evenodd" stroke-linecap="round" stroke-linejoin="round">
        <g transform="translate(-56.000000, -236.000000)" id="Group-5-Copy-2" stroke="#FFFFFF">
            <g transform="translate(24.000000, 219.000000)">
                <g id="ResourceGrp" transform="translate(33.000000, 18.000000)">
                    <path d="M22,3.89044523 C22,6.11747648 20.204878,10 18,10 C15.795122,10 14,6.11090707 14,3.8773064 C14.0865338,1.71109853 15.8503432,0 17.996748,0 C20.1431527,0 21.9069621,1.71109853 21.9934959,3.8773064 L22,3.89044523 Z" id="Shape"></path>
                    <path d="M9,21 C9.00000009,16.581722 12.5817221,13 17,13 C21.4182779,13 24.9999999,16.581722 25,21" id="Shape"></path>
                    <path d="M31.9932757,6.54751988 C31.9932757,8.50359712 30.426513,12 28.4966378,12 C26.5667627,12 25,8.47633472 25,6.54751988 C25,4.58827875 26.5670034,3 28.5,3 C30.4329966,3 32,4.58827875 32,6.54751988 L31.9932757,6.54751988 Z" id="Shape"></path>
                    <path d="M24,16.4183828 C26.0763164,14.8149803 28.8635201,14.5492173 31.1951251,15.7323197 C33.52673,16.9154221 35.0006392,19.3433579 35,22" id="Shape"></path>
                    <path d="M4.0067243,6.54751988 C4.0067243,8.50359712 5.57348703,12 7.50336215,12 C9.43323727,12 11,8.47633472 11,6.54751988 C11,4.58827875 9.43299662,3 7.5,3 C5.56700338,3 4,4.58827875 4,6.54751988 L4.0067243,6.54751988 Z" id="Shape"></path>
                    <path d="M10.7282715,16.104248 C8.5549316,14.7911377 6.13647987,14.5492173 3.80487493,15.7323197 C1.47326998,16.9154221 -0.0006392033,19.3433579 -1.0221815e-05,22" id="Shape"></path>
                </g>
            </g>
        </g>
    </g>
</svg>