<?xml version="1.0" encoding="UTF-8"?>
<svg width="30px" height="26px" viewBox="0 0 30 26" version="1.1" xmlns="http://www.w3.org/2000/svg" xmlns:xlink="http://www.w3.org/1999/xlink">
    <!-- Generator: sketchtool 49.1 (51147) - http://www.bohemiancoding.com/sketch -->
    <title>A84B8F3C-6367-41BA-BFCE-F2B686B85CDD</title>
    <desc>Created with sketchtool.</desc>
    <defs></defs>
    <g id="Swipe-Menu-Buttons" stroke="none" stroke-width="1" fill="none" fill-rule="evenodd">
        <g transform="translate(-390.000000, -526.000000)" id="Group-5-Copy-11" stroke="#FFFFFF">
            <g transform="translate(354.000000, 514.000000)">
                <g id="Team-Assignments" transform="translate(36.000000, 12.000000)">
                    <g id="Events">
                        <g id="Calendar">
                            <rect id="Rectangle-8" x="0.5" y="0.5" width="29" height="25"></rect>
                            <path d="M1.40277778,5 L28.7006041,5" id="Line" stroke-linecap="square"></path>
                            <g id="ResourceGrp" transform="translate(5.000000, 12.000000)" stroke-linecap="round" stroke-linejoin="round">
                                <path d="M13,2.33426714 C13,3.67048589 11.8780488,6 10.5,6 C9.12195122,6 8,3.66654424 8,2.32638384 C8.05408362,1.02665912 9.15646451,0 10.4979675,0 C11.8394704,0 12.9418513,1.02665912 12.995935,2.32638384 L13,2.33426714 Z" id="Shape"></path>
                                <path d="M5,13 C5.00000006,10.2385762 7.23857629,8 10,8 C12.7614237,8 14.9999999,10.2385762 15,13" id="Shape"></path>
                                <path d="M18.9961575,3.97084438 C18.9961575,5.05755396 18.1008646,7 16.9980788,7 C15.895293,7 15,5.04240818 15,3.97084438 C15,2.88237708 15.8954305,2 17,2 C18.1045695,2 19,2.88237708 19,3.97084438 L18.9961575,3.97084438 Z" id="Shape"></path>
                                <path d="M14,9.81050448 C15.3212923,8.89427444 17.0949674,8.74240989 18.578716,9.4184684 C20.0624646,10.0945269 21.0004068,11.4819188 21,13" id="Shape"></path>
                                <path d="M2.00384246,3.97084438 C2.00384246,5.05755396 2.89913545,7 4.00192123,7 C5.10470701,7 6,5.04240818 6,3.97084438 C6,2.88237708 5.1045695,2 4,2 C2.8954305,2 2,2.88237708 2,3.97084438 L2.00384246,3.97084438 Z" id="Shape"></path>
                                <path d="M6,9.64626631 C4.78451744,8.89931792 3.43195132,8.76170417 2.12795595,9.43469896 C0.823960582,10.1076938 -0.000351770117,11.4887984 0,13" id="Shape"></path>
                            </g>
                        </g>
                    </g>
                </g>
            </g>
        </g>
    </g>
</svg>