<?xml version="1.0" encoding="UTF-8"?>
<svg width="24px" height="32px" viewBox="0 0 24 32" version="1.1" xmlns="http://www.w3.org/2000/svg" xmlns:xlink="http://www.w3.org/1999/xlink">
    <!-- Generator: sketchtool 49.1 (51147) - http://www.bohemiancoding.com/sketch -->
    <title>DBE74EA9-AB55-4C74-A3D1-FC89657E4B66</title>
    <desc>Created with sketchtool.</desc>
    <defs></defs>
    <g id="Swipe-Menu-Buttons" stroke="none" stroke-width="1" fill="none" fill-rule="evenodd">
        <g transform="translate(-392.000000, -327.000000)" id="Group-8-Copy-5">
            <g transform="translate(354.000000, 314.000000)">
                <g id="Unlock" transform="translate(39.000000, 13.000000)">
                    <g id="if_lock_172497" transform="translate(0.000000, 1.000000)">
                        <path d="M1.375,30 C0.616,30 0,29.3796923 0,28.6153846 L0,13.3846154 C0,12.6203077 0.616,12 1.375,12 L20.625,12 C21.384,12 22,12.6203077 22,13.3846154 L22,28.6153846 C22,29.3796923 21.384,30 20.625,30 L1.375,30 Z" id="Shape" stroke="#FFFFFF" stroke-width="1.5" stroke-linecap="round"></path>
                        <path d="M18,7.05882353 C18,3.16023529 14.8661,0 11,0 C7.1339,0 4,3.16023529 4,7.05882353 C4,7.79647059 4,11.1573725 4,11.8950195" id="Shape" stroke="#FFFFFF" stroke-width="1.5" stroke-linecap="round" transform="translate(11.000000, 5.947510) scale(-1, 1) translate(-11.000000, -5.947510) "></path>
                        <path d="M13,20.1 C13,18.9401 12.1046667,18 11,18 C9.89533333,18 9,18.9401 9,20.1 C9,20.7195 9.26066667,21.2711 9.66666667,21.6554 L9.66666667,23.6 C9.66666667,24.3728 10.264,25 11,25 C11.736,25 12.3333333,24.3728 12.3333333,23.6 L12.3333333,21.6554 C12.7393333,21.2711 13,20.7195 13,20.1 Z" id="Shape" fill="#FFFFFF" fill-rule="nonzero"></path>
                    </g>
                </g>
            </g>
        </g>
    </g>
</svg>