<?xml version="1.0" encoding="UTF-8"?>
<svg width="32px" height="32px" viewBox="0 0 32 32" version="1.1" xmlns="http://www.w3.org/2000/svg" xmlns:xlink="http://www.w3.org/1999/xlink">
    <!-- Generator: sketchtool 49.1 (51147) - http://www.bohemiancoding.com/sketch -->
    <title>15012AF0-8E7A-4942-ACA0-6B15F588DF79</title>
    <desc>Created with sketchtool.</desc>
    <defs></defs>
    <g id="Swipe-Menu-Buttons" stroke="none" stroke-width="1" fill="none" fill-rule="evenodd">
        <g transform="translate(-391.000000, -138.000000)" fill="#FFFFFF" id="Group-4-Copy">
            <g transform="translate(354.000000, 125.000000)">
                <g id="Edit" transform="translate(37.000000, 13.000000)">
                    <g transform="translate(9.000000, 7.000000)" id="Group">
                        <g>
                            <path d="M6.7736265,13.2781447 L7.39754424,13.9246423 C8.17016911,13.1240558 7.37815139,11.3185571 5.83774987,9.72240775 C4.29734836,8.12625837 2.55490938,7.30557715 1.78228451,8.10616368 L2.40620226,8.75266131 L9.58125636,1.31793858 C9.84237227,1.04737276 11.1726457,1.67392578 12.3888862,2.93418265 C13.6051268,4.19443952 14.2097965,5.57285616 13.9486806,5.84342198 L6.7736265,13.2781447 L6.7736265,13.2781447 Z M13.012804,2.28768502 C11.4724025,0.691535643 9.72996348,-0.129145575 8.95733861,0.671440951 L1.78228451,8.10616368 L2.40620226,8.75266131 C2.66731817,8.48209549 3.99759158,9.10864851 5.21383213,10.3689054 C6.43007267,11.6291622 7.0347424,13.0075789 6.7736265,13.2781447 L7.39754424,13.9246423 L14.5725983,6.48991961 C15.3452232,5.68933308 14.5532055,3.8838344 13.012804,2.28768502 L13.012804,2.28768502 Z" id="Combined-Shape" fill-rule="nonzero"></path>
                            <path d="M0.187184287,15.0228476 C0.17848229,15.0587298 0.17392931,15.0959968 0.173962441,15.1339272 C0.173960711,15.1359081 0.173971489,15.1378872 0.173994713,15.1398644 C0.17443223,15.1715444 0.178063452,15.2036611 0.185152073,15.2357946 C0.189504733,15.2555257 0.195028829,15.2746642 0.201630946,15.2931494 C0.251758787,15.4325627 0.366496626,15.5439458 0.516926168,15.5795758 C0.549875792,15.58738 0.582806964,15.5911399 0.615235689,15.5911703 C0.617143432,15.5911686 0.619052914,15.5911539 0.620964037,15.5911262 C0.655594229,15.5907002 0.689615179,15.586016 0.722435719,15.57747 L7.18389489,14.0470421 C7.42142351,13.9907823 7.56996383,13.745651 7.51566899,13.4995261 C7.46137414,13.2534012 7.22480447,13.0994852 6.98727585,13.155745 L1.20188993,14.5260417 L2.524327,8.53127988 C2.57862185,8.28515499 2.43008153,8.04002375 2.19255291,7.98376395 C1.95502428,7.92750414 1.71845462,8.08142021 1.66415977,8.3275451 L0.187184287,15.0228476 L0.187184287,15.0228476 L0.187184287,15.0228476 Z" id="Combined-Shape" fill-rule="nonzero"></path>
                            <path d="M2.58453818,12.4405441 C3.05288,12.4457608 3.46381783,12.5938172 3.81065005,12.8363744 C4.02466397,12.9860451 4.17313589,13.1394547 4.25873448,13.2556354 L3.55740071,13.8104355 C3.52594643,13.7677434 3.44377951,13.6828439 3.3170355,13.5942054 C3.1054025,13.4461998 2.85811459,13.3573206 2.5717208,13.3547448 C2.285327,13.3573206 2.0380391,13.4461998 1.8264061,13.5942054 C1.69966208,13.6828439 1.61749517,13.7677434 1.58604089,13.8104355 L0.884707121,13.2556354 C0.970305703,13.1394547 1.11877763,12.9860451 1.33279155,12.8363744 C1.67962377,12.5938172 2.0905616,12.4457608 2.55890342,12.4405441 L2.55890342,12.4404015 C2.56318061,12.4404015 2.56745308,12.4404134 2.5717208,12.4404371 C2.57598852,12.4404134 2.58026098,12.4404015 2.58453818,12.4404015 L2.58453818,12.4405431 L2.58453818,12.4405441 Z" id="Combined-Shape" fill-rule="nonzero" transform="translate(2.571721, 13.125418) rotate(-315.000000) translate(-2.571721, -13.125418) "></path>
                        </g>
                    </g>
                    <path d="M29.8,16 C29.8,8.37847048 23.6215295,2.2 16,2.2 C8.37847048,2.2 2.2,8.37847048 2.2,16 C2.2,23.6215295 8.37847048,29.8 16,29.8 C23.6215295,29.8 29.8,23.6215295 29.8,16 Z M0.5,16 C0.5,7.43958641 7.43958641,0.5 16,0.5 C24.5604136,0.5 31.5,7.43958641 31.5,16 C31.5,24.5604136 24.5604136,31.5 16,31.5 C7.43958641,31.5 0.5,24.5604136 0.5,16 Z" id="Oval-2" fill-rule="nonzero"></path>
                </g>
            </g>
        </g>
    </g>
</svg>