<?xml version="1.0" encoding="UTF-8"?>
<svg width="33px" height="33px" viewBox="0 0 33 33" version="1.1" xmlns="http://www.w3.org/2000/svg" xmlns:xlink="http://www.w3.org/1999/xlink">
    <!-- Generator: sketchtool 49.3 (51167) - http://www.bohemiancoding.com/sketch -->
    <title>A26C623A-E27A-4E27-AB41-E4D6DE2A224C</title>
    <desc>Created with sketchtool.</desc>
    <defs></defs>
    <g id="Symbols" stroke="none" stroke-width="1" fill="none" fill-rule="evenodd">
        <g id="DO---status-rectangle---Swipe-Open" transform="translate(-580.000000, -20.000000)">
            <g id="Swipe-Panel" transform="translate(528.000000, 0.000000)">
                <g id="Group-5" transform="translate(18.000000, 7.000000)">
                    <g id="Release-icon" transform="translate(34.000000, 13.000000)">
                        <path d="M31.68,16.5 C31.68,8.11631753 24.8836825,1.32 16.5,1.32 C8.11631753,1.32 1.32,8.11631753 1.32,16.5 C1.32,24.8836825 8.11631753,31.68 16.5,31.68 C24.8836825,31.68 31.68,24.8836825 31.68,16.5 Z M0,16.5 C0,7.38730166 7.38730166,0 16.5,0 C25.6126983,0 33,7.38730166 33,16.5 C33,25.6126983 25.6126983,33 16.5,33 C7.38730166,33 0,25.6126983 0,16.5 Z" id="Oval-2" fill="#FFFFFF" fill-rule="nonzero"></path>
                        <g id="Ticks" transform="translate(5.000000, 10.000000)" stroke="#FFFFFF" stroke-linecap="round" stroke-width="2">
                            <polyline id="Path-2" points="0.637695312 5.42724609 7.22167969 11.703125 18.144043 0.737792969"></polyline>
                            <path d="M4.66162109,5.24414062 L7.15146812,7.73398765" id="Path-3"></path>
                            <polyline id="Path-4" points="9.78808594 10.5644531 11.1464844 11.9755859 22.3208008 0.647460938"></polyline>
                        </g>
                    </g>
                </g>
            </g>
        </g>
    </g>
</svg>