<svg xmlns="http://www.w3.org/2000/svg" xmlns:xlink="http://www.w3.org/1999/xlink" width="100" height="100" viewBox="0 0 100 100"><g><g transform="translate(50 50) scale(0.69 0.69) rotate(0) translate(-50 -50)" style="fill:#000000"><svg fill="#000000" xmlns="http://www.w3.org/2000/svg" xmlns:xlink="http://www.w3.org/1999/xlink" version="1.1" x="0px" y="0px" viewBox="0 0 512 512" style="enable-background:new 0 0 512 512;" xml:space="preserve"><g><g><g><g><path d="M286,448H76c-3.866,0-7-3.134-7-7V31c0-3.866,3.134-7,7-7h210c3.866,0,7,3.134,7,7v410C293,444.866,289.866,448,286,448      z M83,434h196V38H83V434z"></path></g><g><path d="M436,448H286c-3.866,0-7-3.134-7-7V141c0-2.522,1.356-4.849,3.551-6.091c2.196-1.243,4.888-1.209,7.051,0.089l150,90      C441.71,226.263,443,228.541,443,231v210C443,444.866,439.866,448,436,448z M293,434h136V234.963l-136-81.6V434z"></path></g><g><path d="M456,488H46c-3.866,0-7-3.134-7-7v-40c0-3.866,3.134-7,7-7h410c3.866,0,7,3.134,7,7v40C463,484.866,459.866,488,456,488      z M53,474h396v-26H53V474z"></path></g><g><path d="M486,488H26c-3.866,0-7-3.134-7-7s3.134-7,7-7h460c3.866,0,7,3.134,7,7S489.866,488,486,488z"></path></g><g><path d="M216,448h-70c-3.866,0-7-3.134-7-7V341c0-3.866,3.134-7,7-7h70c3.866,0,7,3.134,7,7v100      C223,444.866,219.866,448,216,448z M153,434h56v-86h-56V434z"></path></g><g><path d="M256,288c-3.866,0-7-3.134-7-7V31c0-3.866,3.134-7,7-7s7,3.134,7,7v250C263,284.866,259.866,288,256,288z"></path></g><g><path d="M226,288c-3.866,0-7-3.134-7-7V31c0-3.866,3.134-7,7-7s7,3.134,7,7v250C233,284.866,229.866,288,226,288z"></path></g><g><path d="M196,288c-3.866,0-7-3.134-7-7V31c0-3.866,3.134-7,7-7s7,3.134,7,7v250C203,284.866,199.866,288,196,288z"></path></g><g><path d="M166,288c-3.866,0-7-3.134-7-7V31c0-3.866,3.134-7,7-7s7,3.134,7,7v250C173,284.866,169.866,288,166,288z"></path></g><g><path d="M136,288c-3.866,0-7-3.134-7-7V31c0-3.866,3.134-7,7-7s7,3.134,7,7v250C143,284.866,139.866,288,136,288z"></path></g><g><path d="M106,288c-3.866,0-7-3.134-7-7V31c0-3.866,3.134-7,7-7s7,3.134,7,7v250C113,284.866,109.866,288,106,288z"></path></g><g><path d="M316,408c-3.866,0-7-3.134-7-7v-10c0-3.866,3.134-7,7-7s7,3.134,7,7v10C323,404.866,319.866,408,316,408z"></path></g><g><path d="M346,408c-3.866,0-7-3.134-7-7v-10c0-3.866,3.134-7,7-7s7,3.134,7,7v10C353,404.866,349.866,408,346,408z"></path></g><g><path d="M376,408c-3.866,0-7-3.134-7-7v-10c0-3.866,3.134-7,7-7s7,3.134,7,7v10C383,404.866,379.866,408,376,408z"></path></g><g><path d="M406,408c-3.866,0-7-3.134-7-7v-10c0-3.866,3.134-7,7-7s7,3.134,7,7v10C413,404.866,409.866,408,406,408z"></path></g><g><path d="M316,368c-3.866,0-7-3.134-7-7v-10c0-3.866,3.134-7,7-7s7,3.134,7,7v10C323,364.866,319.866,368,316,368z"></path></g><g><path d="M346,368c-3.866,0-7-3.134-7-7v-10c0-3.866,3.134-7,7-7s7,3.134,7,7v10C353,364.866,349.866,368,346,368z"></path></g><g><path d="M376,368c-3.866,0-7-3.134-7-7v-10c0-3.866,3.134-7,7-7s7,3.134,7,7v10C383,364.866,379.866,368,376,368z"></path></g><g><path d="M406,368c-3.866,0-7-3.134-7-7v-10c0-3.866,3.134-7,7-7s7,3.134,7,7v10C413,364.866,409.866,368,406,368z"></path></g><g><path d="M316,328c-3.866,0-7-3.134-7-7v-10c0-3.866,3.134-7,7-7s7,3.134,7,7v10C323,324.866,319.866,328,316,328z"></path></g><g><path d="M346,328c-3.866,0-7-3.134-7-7v-10c0-3.866,3.134-7,7-7s7,3.134,7,7v10C353,324.866,349.866,328,346,328z"></path></g><g><path d="M376,328c-3.866,0-7-3.134-7-7v-10c0-3.866,3.134-7,7-7s7,3.134,7,7v10C383,324.866,379.866,328,376,328z"></path></g><g><path d="M406,328c-3.866,0-7-3.134-7-7v-10c0-3.866,3.134-7,7-7s7,3.134,7,7v10C413,324.866,409.866,328,406,328z"></path></g><g><path d="M316,288c-3.866,0-7-3.134-7-7v-10c0-3.866,3.134-7,7-7s7,3.134,7,7v10C323,284.866,319.866,288,316,288z"></path></g><g><path d="M346,288c-3.866,0-7-3.134-7-7v-10c0-3.866,3.134-7,7-7s7,3.134,7,7v10C353,284.866,349.866,288,346,288z"></path></g><g><path d="M376,288c-3.866,0-7-3.134-7-7v-10c0-3.866,3.134-7,7-7s7,3.134,7,7v10C383,284.866,379.866,288,376,288z"></path></g><g><path d="M406,288c-3.866,0-7-3.134-7-7v-10c0-3.866,3.134-7,7-7s7,3.134,7,7v10C413,284.866,409.866,288,406,288z"></path></g><g><path d="M316,248c-3.866,0-7-3.134-7-7v-10c0-3.866,3.134-7,7-7s7,3.134,7,7v10C323,244.866,319.866,248,316,248z"></path></g><g><path d="M346,248c-3.866,0-7-3.134-7-7v-10c0-3.866,3.134-7,7-7s7,3.134,7,7v10C353,244.866,349.866,248,346,248z"></path></g><g><path d="M376,248c-3.866,0-7-3.134-7-7v-10c0-3.866,3.134-7,7-7s7,3.134,7,7v10C383,244.866,379.866,248,376,248z"></path></g><g><path d="M316,208c-3.866,0-7-3.134-7-7v-10c0-3.866,3.134-7,7-7s7,3.134,7,7v10C323,204.866,319.866,208,316,208z"></path></g><g><path d="M441,108h-50c-11.457,0-20.896-8.802-21.91-20H351c-12.131,0-22-9.869-22-22s9.869-22,22-22h50      c11.457,0,20.896,8.802,21.91,20H441c12.131,0,22,9.869,22,22S453.131,108,441,108z M351,58c-4.411,0-8,3.589-8,8s3.589,8,8,8      h25.872c2.273,0,4.405,1.104,5.717,2.96s1.641,4.234,0.882,6.377C383.158,84.218,383,85.114,383,86c0,4.411,3.589,8,8,8h50      c4.411,0,8-3.589,8-8s-3.589-8-8-8h-25.872c-2.273,0-4.405-1.104-5.717-2.96s-1.641-4.234-0.882-6.377      C408.842,67.782,409,66.886,409,66c0-4.411-3.589-8-8-8H351z"></path></g></g></g></g></svg></g></g></svg>