<?xml version="1.0" encoding="utf-8"?>
<!-- Generator: Adobe Illustrator 23.0.4, SVG Export Plug-In . SVG Version: 6.00 Build 0)  -->
<svg version="1.1" id="Layer_1" xmlns="http://www.w3.org/2000/svg" xmlns:xlink="http://www.w3.org/1999/xlink" x="0px" y="0px"
	 viewBox="0 0 100 100" style="enable-background:new 0 0 100 100;" xml:space="preserve">
<style type="text/css">
	.st0{fill:#FFFFFF;stroke:#000000;stroke-miterlimit:10;}
	.st1{fill:#FFFFFF;stroke:#000000;stroke-width:0.5;stroke-miterlimit:10;}
</style>
<g>
	<g transform="translate(50 50) scale(0.69 0.69) rotate(0) translate(-50 -50)">
		<path d="M76.2,35C76.2,35,76.2,35,76.2,35c0-0.1-0.1-0.2-0.1-0.3c0,0,0,0,0-0.1c0-0.1-0.1-0.1-0.2-0.2c0,0,0,0,0,0L65.6,24.2
			c-0.2-0.2-0.5-0.3-0.7-0.3H36.2c-0.3,0-0.6,0.1-0.7,0.3l-10,10.3c0,0,0,0,0,0c-0.1,0.1-0.1,0.1-0.1,0.2c0,0,0,0,0,0.1
			c0,0.1-0.1,0.2-0.1,0.3c0,0,0,0,0,0c0,0.1,0,0.1,0,0.2v40.7c0,0.6,0.5,1,1,1h49c0.6,0,1-0.5,1-1V35.2C76.2,35.2,76.2,35.1,76.2,35
			z M51.7,25.9h12.8l8.2,8.2h-21V25.9z M36.6,25.9h13v8.2h-21L36.6,25.9z M74.1,74.8H27.2V36.3h46.9C74.1,36.3,74.1,74.8,74.1,74.8z
			"/>
		<path d="M42.5,55.7c0.3,0,0.5-0.1,0.7-0.3l6.3-6.3v15.6c0,0.6,0.5,1,1,1s1-0.5,1-1V49l6.3,6.3c0.2,0.2,0.5,0.3,0.7,0.3
			c0.3,0,0.5-0.1,0.7-0.3c0.4-0.4,0.4-1.1,0-1.5l-8.1-8.1c-0.4-0.4-1.1-0.4-1.5,0l-8.1,8.1c-0.4,0.4-0.4,1.1,0,1.5
			C42,55.6,42.3,55.7,42.5,55.7z"/>
	</g>
</g>
<g>
	<rect x="28.1" y="54.9" class="st0" width="12.4" height="14.3"/>
	<g>
		<g>
			<path class="st1" d="M37.7,67.4h-6.9c-0.5,0-0.9-0.4-0.9-0.9v-5c0-0.5,0.4-0.9,0.9-0.9h6.9c0.5,0,0.9,0.4,0.9,0.9v5
				C38.5,67,38.1,67.4,37.7,67.4z M30.7,61.1c-0.2,0-0.4,0.2-0.4,0.4v5c0,0.2,0.2,0.4,0.4,0.4h6.9c0.2,0,0.4-0.2,0.4-0.4v-5
				c0-0.2-0.2-0.4-0.4-0.4L30.7,61.1L30.7,61.1z"/>
		</g>
		<g>
			<path class="st1" d="M37.1,61.1h-5.8c-0.1,0-0.2-0.1-0.2-0.2v-1.7c0-1.7,1.4-3.1,3.1-3.1s3.1,1.4,3.1,3.1v1.7
				C37.3,61,37.2,61.1,37.1,61.1z M31.5,60.7h5.3v-1.5c0-1.5-1.2-2.7-2.7-2.7s-2.7,1.2-2.7,2.7L31.5,60.7L31.5,60.7z"/>
		</g>
		<g>
			<path class="st1" d="M35,65.8L35,65.8h-1.6c-0.1,0-0.1,0-0.2-0.1s0-0.1,0-0.2l0.4-0.7c-0.2-0.2-0.4-0.5-0.4-0.7c0-0.5,0.4-1,1-1
				s1,0.4,1,1c0,0.3-0.1,0.6-0.4,0.7l0.4,0.7c0,0,0,0.1,0,0.1C35.2,65.7,35.1,65.8,35,65.8z M33.7,65.4h0.9l-0.3-0.5
				c0-0.1,0-0.1,0-0.2s0.1-0.1,0.1-0.1c0.2-0.1,0.3-0.3,0.3-0.5c0-0.3-0.2-0.5-0.5-0.5c-0.3,0-0.5,0.2-0.5,0.5
				c0,0.2,0.1,0.4,0.3,0.5c0.1,0,0.1,0.1,0.1,0.1s0,0.1,0,0.2L33.7,65.4z"/>
		</g>
	</g>
</g>
</svg>
