<svg xmlns="http://www.w3.org/2000/svg" xmlns:xlink="http://www.w3.org/1999/xlink" width="100" height="100" viewBox="0 0 100 100"><g><g transform="translate(50 50) scale(0.69 0.69) rotate(0) translate(-50 -50)" style="fill:#000000"><svg fill="#000000" xmlns="http://www.w3.org/2000/svg" xmlns:xlink="http://www.w3.org/1999/xlink" version="1.1" x="0px" y="0px" viewBox="0 0 100 100" style="enable-background:new 0 0 100 100;" xml:space="preserve"><path d="M6.5,50.4c0.1,0,0.1,0,0.2,0l4.3-0.8v23.9c0,0.5,0.3,0.9,0.8,1l38,8.6c0.1,0,0.1,0,0.2,0c0,0,0,0,0,0c0,0,0,0,0,0s0,0,0,0  c0,0,0,0,0,0c0.1,0,0.1,0,0.2,0l38-8.6c0.5-0.1,0.8-0.5,0.8-1V49.6l4.3,0.8c0.1,0,0.1,0,0.2,0c0.3,0,0.6-0.1,0.8-0.4  c0.2-0.3,0.3-0.7,0.2-1L89,34.5c-0.1-0.3-0.3-0.5-0.5-0.6l-38-17c0,0,0,0,0,0c0,0,0,0,0,0c0,0,0,0-0.1,0c-0.1,0-0.1,0-0.2,0  c0,0-0.1,0-0.1,0c0,0,0,0,0,0s0,0,0,0c0,0-0.1,0-0.1,0c-0.1,0-0.1,0-0.2,0c0,0,0,0-0.1,0c0,0,0,0,0,0c0,0,0,0,0,0l-38,17  c-0.2,0.1-0.4,0.3-0.5,0.6L5.6,49.1c-0.1,0.3-0.1,0.7,0.2,1C5.9,50.3,6.2,50.4,6.5,50.4z M13,72.8V49.2l28.6-5.5  c0.4-0.1,0.6-0.3,0.8-0.7L49,23.8v57.1L13,72.8z M87,72.8l-36,8.2V23.8l6.6,19.3c0.1,0.3,0.4,0.6,0.8,0.7L87,49.2V72.8z M87.2,35.5  l4.7,12.6l-32.6-6.2l-7.6-22.3L87.2,35.5z M12.8,35.5l35.5-15.9l-7.6,22.3L8.1,48.1L12.8,35.5z"></path><path d="M76.8,71.9c0.1,0,0.1,0,0.2,0l5.7-1.2c0.5-0.1,0.9-0.6,0.8-1.2s-0.7-0.9-1.2-0.8l-5.7,1.2c-0.5,0.1-0.9,0.6-0.8,1.2  C76,71.5,76.4,71.9,76.8,71.9z"></path><path d="M76.8,67.8c0.1,0,0.1,0,0.2,0l5.7-1.2c0.5-0.1,0.9-0.6,0.8-1.2s-0.7-0.9-1.2-0.8l-5.7,1.2c-0.5,0.1-0.9,0.6-0.8,1.2  C76,67.5,76.4,67.8,76.8,67.8z"></path></svg></g></g></svg>