<svg xmlns="http://www.w3.org/2000/svg" xmlns:xlink="http://www.w3.org/1999/xlink" width="100" height="100" viewBox="0 0 100 100"><g><g transform="translate(50 50) scale(-0.69 0.69) rotate(0) translate(-50 -50)" style="fill:#000000"><svg fill="#000000" xmlns="http://www.w3.org/2000/svg" xmlns:xlink="http://www.w3.org/1999/xlink" version="1.1" x="0px" y="0px" viewBox="0 0 100 100" style="enable-background:new 0 0 100 100;" xml:space="preserve"><path d="M93,48H60v-6c0-1.1-0.9-2-2-2H42c-1.1,0-2,0.9-2,2v6H7c-1.1,0-2,0.9-2,2s0.9,2,2,2h33v6c0,1.1,0.9,2,2,2h16c1.1,0,2-0.9,2-2  v-6h33c1.1,0,2-0.9,2-2S94.1,48,93,48z M56,56H44V44h12V56z M7,25h6v6c0,1.1,0.9,2,2,2h16c1.1,0,2-0.9,2-2v-6h60c1.1,0,2-0.9,2-2  s-0.9-2-2-2H33v-6c0-1.1-0.9-2-2-2H15c-1.1,0-2,0.9-2,2v6H7c-1.1,0-2,0.9-2,2S5.9,25,7,25z M17,17h12v12H17V17z M93,75h-6v-6  c0-1.1-0.9-2-2-2H69c-1.1,0-2,0.9-2,2v6H7c-1.1,0-2,0.9-2,2s0.9,2,2,2h60v6c0,1.1,0.9,2,2,2h16c1.1,0,2-0.9,2-2v-6h6  c1.1,0,2-0.9,2-2S94.1,75,93,75z M83,83H71V71h12V83z"></path></svg></g></g></svg>