<svg xmlns="http://www.w3.org/2000/svg" xmlns:xlink="http://www.w3.org/1999/xlink" width="100" height="100" viewBox="0 0 100 100"><g><g transform="translate(50 50) scale(0.69 0.69) rotate(0) translate(-50 -50)" style="fill:#000000"><svg fill="#000000" xmlns="http://www.w3.org/2000/svg" xmlns:xlink="http://www.w3.org/1999/xlink" xml:space="preserve" style="shape-rendering:geometricPrecision;text-rendering:geometricPrecision;image-rendering:optimizeQuality;" viewBox="0 0 6.82666 6.82666" x="0px" y="0px" fill-rule="evenodd" clip-rule="evenodd"><defs><style type="text/css">
   
    .fil0 {fill:none}
    .fil1 {fill:#000000;fill-rule:nonzero}
   
  </style></defs><rect class="fil0" width="6.82666" height="6.82666"></rect><g><g><path class="fil1" d="M1.29659 1.5325l4.23347 0c0.12198,0 0.232823,0.0498425 0.313118,0.130146 0.0802992,0.0802992 0.130146,0.191138 0.130146,0.313118l0 2.65466c0,0.12198 -0.0498465,0.232819 -0.130146,0.313118 -0.0548661,0.0548701 -0.123996,0.0955118 -0.201197,0.115756l-0.14561 -0.14561 0.033689 0c0.077811,0 0.148618,-0.0318937 0.199992,-0.0832717 0.051378,-0.051378 0.0832717,-0.122181 0.0832717,-0.199992l0 -2.65466c0,-0.077811 -0.0318937,-0.148614 -0.0832717,-0.199992 -0.051374,-0.051378 -0.122181,-0.0832717 -0.199992,-0.0832717l-4.23347 0c-0.077811,0 -0.148614,0.0318937 -0.199992,0.0832717 -0.051378,0.051378 -0.0832717,0.122181 -0.0832717,0.199992l0 2.65466c0,0.077811 0.0318937,0.148614 0.0832717,0.199992 0.051378,0.051378 0.122181,0.0832717 0.199992,0.0832717l3.74726 0 0.160004 0.16 -3.90726 0c-0.12198,0 -0.232819,-0.0498465 -0.313118,-0.130146 -0.0802992,-0.0802992 -0.130146,-0.191138 -0.130146,-0.313118l0 -2.65466c0,-0.12198 0.0498465,-0.232819 0.130146,-0.313118 0.0802992,-0.0802992 0.191138,-0.130146 0.313118,-0.130146z"></path><polygon class="fil1" points="1.4458,2.00324 1.4458,4.60295 1.2858,4.60295 1.2858,2.00324 "></polygon><polygon class="fil1" points="1.78705,2.00324 1.78705,4.3088 1.62705,4.3088 1.62705,2.00324 "></polygon><polygon class="fil1" points="2.12831,2.00324 2.12831,4.3088 1.96831,4.3088 1.96831,2.00324 "></polygon><polygon class="fil1" points="2.46956,2.00324 2.46956,4.3088 2.30956,4.3088 2.30956,2.00324 "></polygon><polygon class="fil1" points="2.81082,2.00324 2.81082,4.3088 2.65082,4.3088 2.65082,2.00324 "></polygon><polygon class="fil1" points="3.15207,2.00324 3.15207,4.3088 2.99207,4.3088 2.99207,2.00324 "></polygon><path class="fil1" d="M3.49333 2.00324l0 1.17435c-0.0663346,0.0706811 -0.120098,0.150728 -0.16,0.236984l0 -1.41133 0.16 0z"></path><path class="fil1" d="M3.83459 2.00324l0 0.947169c-0.0557244,0.0207165 -0.109311,0.047 -0.16,0.0785l0 -1.02567 0.16 0z"></path><path class="fil1" d="M4.17584 2.00324l0 0.891571c-0.00952362,-0.00030315 -0.019063,-0.000468504 -0.028626,-0.000468504 -0.0442953,0 -0.088185,0.00324803 -0.131374,0.0096063l0 -0.900709 0.16 0z"></path><path class="fil1" d="M4.5171 2.00324l0 0.970764c-0.0513937,-0.0232874 -0.104945,-0.0416732 -0.16,-0.0548898l0 -0.915874 0.16 0z"></path><path class="fil1" d="M4.85835 2.00324l0 1.24168c-0.0236693,-0.0307756 -0.0494409,-0.060189 -0.0772598,-0.0880079 -0.0262323,-0.0262323 -0.0538701,-0.0506535 -0.0827402,-0.0731969l0 -1.08047 0.16 0z"></path><path class="fil1" d="M5.19961 2.00324l0 2.30556 -0.16 0 0 -0.432496c0.00268504,-0.0282835 0.00405118,-0.056815 0.00405118,-0.0855157 0,-0.0286535 -0.00137402,-0.0571378 -0.00405118,-0.085378l0 -1.70217 0.16 0z"></path><polygon class="fil1" points="5.54087,2.00324 5.54087,4.60295 5.38087,4.60295 5.38087,2.00324 "></polygon><g><path class="fil1" d="M3.5699 3.21347c0.159425,-0.159425 0.368378,-0.239138 0.577315,-0.239138 0.208937,0 0.41789,0.0797126 0.577311,0.239138 0.159421,0.159421 0.239138,0.368378 0.239138,0.577315 0,0.208937 -0.0797165,0.41789 -0.239138,0.577311 -0.159421,0.159425 -0.368374,0.239138 -0.577311,0.239138 -0.208937,0 -0.41789,-0.0797126 -0.577315,-0.239138l-3.93701e-006 -3.93701e-006c-0.159421,-0.159421 -0.239134,-0.36837 -0.239134,-0.577307 0,-0.208937 0.0797126,-0.417886 0.239134,-0.577311l3.93701e-006 -3.93701e-006zm0.577315 -0.0791378c-0.168008,0 -0.336016,0.0640906 -0.464189,0.192264l-3.93701e-006 3.93701e-006c-0.128173,0.128177 -0.19226,0.296177 -0.19226,0.464185 0,0.168004 0.0640906,0.336012 0.19226,0.464181l3.93701e-006 3.93701e-006c0.128173,0.128173 0.296181,0.192264 0.464189,0.192264 0.168004,0 0.336012,-0.0640866 0.464185,-0.192264 0.128169,-0.128169 0.192264,-0.296177 0.192264,-0.464185 0,-0.168008 -0.0640945,-0.33602 -0.192264,-0.464189 -0.128173,-0.128177 -0.296181,-0.192264 -0.464185,-0.192264z"></path><path class="fil1" d="M4.72453 4.25497c-0.0312362,-0.0312362 -0.0818898,-0.0312362 -0.113126,0 -0.0312362,0.0312362 -0.0312362,0.0818898 0,0.113126l0.902638 0.902634c0.0312362,0.0312362 0.0818898,0.0312362 0.113126,0 0.0312362,-0.0312362 0.0312362,-0.0818898 0,-0.113126l-0.902638 -0.902634z"></path></g></g></g></svg></g></g></svg>