<svg xmlns="http://www.w3.org/2000/svg" xmlns:xlink="http://www.w3.org/1999/xlink" width="100" height="100" viewBox="0 0 100 100"><g><g transform="translate(50 50) scale(0.69 0.69) rotate(0) translate(-50 -50)" style="fill:#000000"><svg fill="#000000" xmlns="http://www.w3.org/2000/svg" xmlns:xlink="http://www.w3.org/1999/xlink" version="1.0" x="0px" y="0px" viewBox="0 0 100 100" enable-background="new 0 0 100 100" xml:space="preserve"><g><path fill="#000000" d="M49.314,37.668L28.911,56.519c-0.303,0.279-0.403,0.715-0.253,1.099s0.52,0.636,0.931,0.636h9.251v18.381   c0,0.553,0.448,1,1,1h20.304c0.553,0,1-0.447,1-1V66.3c0-0.004,0-0.009,0-0.013s0-0.009,0-0.013v-8.021h9.264   c0.412,0,0.781-0.252,0.932-0.636c0.149-0.384,0.049-0.819-0.253-1.099L50.671,37.667C50.288,37.314,49.697,37.313,49.314,37.668z    M67.852,56.253h-7.707c-0.553,0-1,0.447-1,1v9.021c0,0.004,0,0.009,0,0.013s0,0.009,0,0.013v9.334H40.841V57.253   c0-0.553-0.448-1-1-1h-7.694l17.847-16.489L67.852,56.253z"></path><path fill="#000000" d="M83.197,29.464c-0.002-0.066-0.023-0.129-0.039-0.195c-0.016-0.065-0.025-0.131-0.054-0.191   c-0.005-0.011-0.003-0.022-0.009-0.033l-7.371-14.498c-0.022-0.044-0.061-0.072-0.088-0.111c-0.042-0.059-0.08-0.118-0.133-0.167   c-0.048-0.044-0.103-0.073-0.157-0.106c-0.055-0.034-0.104-0.069-0.166-0.092c-0.068-0.026-0.139-0.033-0.211-0.043   C74.923,14.021,74.882,14,74.833,14H25.165c-0.052,0-0.096,0.022-0.146,0.029c-0.068,0.01-0.136,0.017-0.2,0.041   c-0.063,0.023-0.116,0.06-0.172,0.095c-0.053,0.033-0.106,0.061-0.153,0.104c-0.053,0.048-0.091,0.108-0.132,0.167   c-0.028,0.04-0.066,0.068-0.088,0.112l-7.37,14.498c-0.005,0.011-0.004,0.022-0.009,0.034c-0.028,0.059-0.037,0.125-0.053,0.19   c-0.016,0.066-0.038,0.129-0.04,0.196c0,0.012-0.007,0.022-0.007,0.034V85c0,0.553,0.448,1,1,1h64.409c0.553,0,1-0.447,1-1V29.498   C83.204,29.486,83.197,29.476,83.197,29.464z M19.426,28.498L25.779,16h23.22v12.498H19.426z M50.999,16H74.22l6.354,12.498H50.999   V16z M81.204,84H18.795V30.498h62.409V84z"></path></g></svg></g></g></svg>