<svg xmlns="http://www.w3.org/2000/svg" xmlns:xlink="http://www.w3.org/1999/xlink" width="100" height="100" viewBox="0 0 100 100"><g><g transform="translate(50 50) scale(0.69 0.69) rotate(0) translate(-50 -50)" style="fill:#000000"><svg fill="#000000" xmlns="http://www.w3.org/2000/svg" xmlns:xlink="http://www.w3.org/1999/xlink" version="1.0" x="0px" y="0px" viewBox="0 0 24 24" enable-background="new 0 0 24 24" xml:space="preserve"><polyline fill="none" stroke="#000000" stroke-width="2" stroke-linecap="round" stroke-linejoin="round" stroke-miterlimit="10" points="  6.9,11.1 12,4 17.1,11.1 "></polyline><path d="M23,10H1c-0.7,0-1.2,0.7-1,1.3l3.4,9C3.6,20.7,4,21,4.4,21h15.1c0.4,0,0.8-0.3,1-0.7l3.4-9C24.2,10.7,23.7,10,23,10z M12,17  c-1.1,0-2-0.9-2-2c0-1.1,0.9-2,2-2s2,0.9,2,2C14,16.1,13.1,17,12,17z"></path></svg></g></g></svg>