<svg xmlns="http://www.w3.org/2000/svg" xmlns:xlink="http://www.w3.org/1999/xlink" width="100" height="100" viewBox="0 0 100 100"><g><g transform="translate(50 50) scale(0.69 0.69) rotate(0) translate(-50 -50)" style="fill:#000000"><svg fill="#000000" xmlns="http://www.w3.org/2000/svg" xmlns:xlink="http://www.w3.org/1999/xlink" version="1.1" x="0px" y="0px" viewBox="0 0 500 500" enable-background="new 0 0 500 500" xml:space="preserve"><g><path fill="#000000" d="M151.115,240.392l-22.078-9.359c-2.143-0.907-4.622,0.093-5.532,2.24c-0.911,2.144,0.091,4.623,2.237,5.532   l22.08,9.358c0.538,0.229,1.095,0.336,1.645,0.336c1.642,0,3.206-0.966,3.887-2.574   C154.265,243.779,153.263,241.302,151.115,240.392z"></path><path fill="#000000" d="M274.197,238.805l22.078,9.358c0.539,0.229,1.096,0.336,1.646,0.336c1.643,0,3.205-0.966,3.887-2.574   c0.91-2.146-0.093-4.623-2.238-5.533l-22.079-9.359c-2.144-0.907-4.622,0.093-5.532,2.24   C271.049,235.417,272.051,237.896,274.197,238.805z"></path><path fill="#000000" d="M199.809,367.984l22.079,9.358c0.538,0.229,1.096,0.335,1.646,0.335c1.643,0,3.205-0.966,3.887-2.572   c0.91-2.146-0.092-4.625-2.239-5.535l-22.078-9.358c-2.144-0.907-4.623,0.093-5.532,2.24   C196.661,364.598,197.663,367.074,199.809,367.984z"></path><path fill="#000000" d="M225.182,111.624l-22.078-9.358c-2.144-0.907-4.623,0.093-5.532,2.239   c-0.911,2.145,0.091,4.623,2.237,5.533l22.079,9.359c0.538,0.228,1.096,0.334,1.646,0.334c1.643,0,3.205-0.964,3.887-2.573   C228.331,115.013,227.329,112.534,225.182,111.624z"></path><path fill="#000000" d="M471.553,326.566c0,0-54.262-23.092-69.314-29.498V201.38v-0.004c-0.002-2.029-1.215-3.861-3.081-4.656   c0,0-59.954-25.515-71.308-30.346V72.613V72.61c-0.001-2.03-1.214-3.861-3.081-4.658c0,0-72.866-31.008-73.151-31.131   c-1.27-0.54-2.703-0.54-3.969-0.001l-73.154,31.132c-1.867,0.797-3.079,2.628-3.08,4.658v0.004v93.895l-70.987,30.211   c-1.867,0.795-3.08,2.627-3.081,4.656v0.004v95.552l-69.633,29.635c-1.867,0.795-3.08,2.627-3.081,4.656c0,0.002,0,0.004,0,0.004   v97.541c0,2.028,1.21,3.861,3.076,4.658l73.121,31.229c0.227,0.1,0.461,0.181,0.702,0.246c0,0,0.002,0,0.005,0   c0.419,0.113,0.848,0.17,1.278,0.174h0.001h0.018c0,0,0.01,0,0.017,0c0.473,0,0.95-0.066,1.411-0.202   c0.002,0.003,0.008-0.002,0.008-0.002c0.201-0.059,0.401-0.131,0.595-0.215l72.16-30.816l70.587,30.147   c0.226,0.098,0.461,0.18,0.698,0.244l0.009,0.002c0.419,0.112,0.848,0.17,1.277,0.174h0.001h0.016c0.003,0,0.012,0,0.019,0   c0.474,0,0.951-0.067,1.412-0.201c0.002,0.001,0.008-0.002,0.008-0.002c0.201-0.06,0.401-0.131,0.594-0.216l70.599-30.148   l72.151,30.815c0.227,0.099,0.461,0.181,0.698,0.244c0.004,0.002,0.008,0.002,0.008,0.002c0.42,0.113,0.85,0.17,1.278,0.174h0.001   c0.004,0,0.012,0,0.02,0c0,0,0.009,0,0.017,0c0.474,0,0.95-0.066,1.411-0.202c0.002,0.003,0.006-0.001,0.008-0.002   c0.201-0.059,0.401-0.131,0.594-0.215l73.13-31.23c1.865-0.797,3.075-2.63,3.075-4.658v-97.543c0,0,0,0,0-0.002   C474.633,329.193,473.42,327.361,471.553,326.566z M336.178,331.234l60.241-25.639c2.652,1.131,8.478,3.611,21.297,9.067   l-60.014,25.765L336.178,331.234z M189.394,330.566l60.241-25.639c2.653,1.132,8.482,3.613,21.311,9.073l-60.013,25.765   L189.394,330.566z M318.953,322.493l-63.021-26.917V209.05l63.021,26.918V322.493z M263.781,201.388l60.241-25.639   c2.651,1.131,8.476,3.611,21.289,9.064l-60.003,25.77L263.781,201.388z M235.804,201.388l-60.24,25.728l-25.833-11.033   l60.026-25.779C216.933,193.357,225.515,197.009,235.804,201.388z M243.654,209.05v86.526l-63.025,26.917v-86.525L243.654,209.05z    M392.107,295.576l-63.024,26.917v-86.525l63.024-26.918V295.576z M324.018,227.116l-25.841-11.037l60.025-25.779   c7.177,3.054,15.762,6.708,26.055,11.088L324.018,227.116z M317.72,166.809l-63.024,26.917V107.2l63.024-26.917V166.809z    M249.631,98.349l-25.828-11.031l60.036-25.774c7.173,3.052,15.75,6.703,26.032,11.079L249.631,98.349z M249.635,46.982   c2.653,1.133,8.482,3.614,21.312,9.075l-60.014,25.765l-21.539-9.199L249.635,46.982z M181.544,80.283l63.022,26.917v86.527   l-63.022-26.917V80.283z M175.568,175.749c2.652,1.132,8.478,3.612,21.298,9.068l-60.003,25.77l-21.537-9.199L175.568,175.749z    M107.477,209.05l63.022,26.918v86.525l-63.022-26.917V209.05z M102.853,305.596c2.652,1.132,8.479,3.612,21.302,9.07   l-60.003,25.77l-21.542-9.201L102.853,305.596z M97.784,452.341l-63.022-26.918v-86.524l63.022,26.918V452.341z M102.849,356.963   l-25.828-11.031l60.025-25.779c7.174,3.053,15.755,6.704,26.041,11.082L102.849,356.963z M170.938,425.422l-63.024,26.918v-86.525   l63.024-26.918V425.422z M244.566,451.672l-63.022-26.917V338.23l63.022,26.916V451.672z M249.631,356.294l-25.829-11.032   l60.036-25.774c7.172,3.053,15.75,6.703,26.033,11.079L249.631,356.294z M317.72,424.755l-63.024,26.917v-86.525l63.024-26.916   V424.755z M391.349,452.341l-63.021-26.918v-86.524l63.021,26.918V452.341z M396.416,356.963l-25.845-11.038l60.037-25.775   c7.175,3.054,15.758,6.706,26.047,11.085L396.416,356.963z M464.504,425.422L401.48,452.34v-86.525l63.023-26.918V425.422z"></path><path fill="#000000" d="M346.593,368.652l22.079,9.358c0.538,0.229,1.096,0.337,1.646,0.337c1.643,0,3.205-0.967,3.886-2.574   c0.911-2.146-0.091-4.623-2.238-5.533l-22.078-9.359c-2.144-0.908-4.623,0.094-5.532,2.24   C343.445,365.266,344.447,367.743,346.593,368.652z"></path><path fill="#000000" d="M53.027,368.652l22.08,9.358c0.537,0.229,1.095,0.337,1.645,0.337c1.643,0,3.206-0.967,3.887-2.574   c0.911-2.146-0.092-4.623-2.239-5.533l-22.078-9.359c-2.143-0.908-4.623,0.094-5.532,2.24   C49.879,365.266,50.881,367.743,53.027,368.652z"></path></g></svg></g></g></svg>