<svg xmlns="http://www.w3.org/2000/svg" xmlns:xlink="http://www.w3.org/1999/xlink" width="100" height="100" viewBox="0 0 100 100"><g><g transform="translate(50 50) scale(-0.69 0.69) rotate(0) translate(-50 -50)" style="fill:#000000"><svg fill="#000000" xmlns:rdf="http://www.w3.org/1999/02/22-rdf-syntax-ns#" xmlns="http://www.w3.org/2000/svg" xmlns:cc="http://creativecommons.org/ns#" xmlns:dc="http://purl.org/dc/elements/1.1/" version="1.1" x="0px" y="0px" viewBox="0 0 100 100"><g transform="translate(0,-952.36218)"><path style="baseline-shift:baseline;block-progression:tb;color:#000000;direction:ltr;text-indent:0;enable-background:accumulate;text-transform:none;" fill="#000000" d="m45.765,955.9a0.87509,0.87509,0,0,0,-0.28125,0.0937l-10.5,4.7812-7.5938,3.4375-9.7812,4.4375a0.87509,0.87509,0,0,0,0,0.0312,0.87509,0.87509,0,0,0,-0.0625,0.0312,0.87509,0.87509,0,0,0,-0.15625,0.0937,0.87509,0.87509,0,0,0,0,0.0312,0.87509,0.87509,0,0,0,-0.0625,0.0312,0.87509,0.87509,0,0,0,0,0.0312,0.87509,0.87509,0,0,0,-0.0625,0.0312,0.87509,0.87509,0,0,0,-0.03125,0.0937,0.87509,0.87509,0,0,0,-0.03125,0.0625,0.87509,0.87509,0,0,0,-0.0625,0.0937,0.87509,0.87509,0,0,0,0,0.0625,0.87509,0.87509,0,0,0,0,0.0312,0.87509,0.87509,0,0,0,-0.03125,0.0625,0.87509,0.87509,0,0,0,0,0.125,0.87509,0.87509,0,0,0,0,0.0937v27.375a0.87509,0.87509,0,0,0,0.46875,0.78125l4.1562,2.0625-3.8125,1.75-9.625,4.375-0.15625,0.062c-0.03255,0.019-0.06388,0.04-0.09375,0.062-0.11717,0.079-0.21462,0.1876-0.28125,0.3125-0.01124,0.02-0.02167,0.041-0.03125,0.062-0.02282,0.03-0.04371,0.061-0.0625,0.094-0.02238,0.081-0.03294,0.1657-0.03125,0.25-0.000186,0.01-0.000186,0.021,0,0.031-0.0047,0.052-0.0047,0.1043,0,0.1562v27.281c-0.0023,0.3194,0.18585,0.6329,0.46875,0.7812l27.594,13.719,0.0625,0.031c0.01042,0.0002,0.02083,0.0002,0.03125,0,0.03991,0.024,0.08176,0.045,0.125,0.062,0.01042,0.0002,0.02083,0.0002,0.03125,0,0.02041,0.011,0.04126,0.022,0.0625,0.031,0.01042,0.0002,0.02083,0.0002,0.03125,0h0.15625c0.11938-0.01,0.23718-0.04,0.34375-0.094,0.04324-0.017,0.08509-0.038,0.125-0.062,0.02124-0.01,0.04209-0.02,0.0625-0.031l27.469-13.656c0.05515-0.026,0.10762-0.057,0.15625-0.094l27.5-13.625c0.2829-0.1483,0.47102-0.4619,0.46875-0.7813v-27.187c0.0884-0.28806,0.0146-0.62025-0.1875-0.84375,0.00019-0.0104,0.00019-0.0208,0-0.0312-0.0204-0.0112-0.0413-0.0217-0.0625-0.0312,0.00019-0.0104,0.00019-0.0208,0-0.0312-0.0643-0.0629-0.13838-0.11582-0.21875-0.15625l-17.688-8.1562v-14.406a0.87509,0.87509,0,0,0,-0.03125,-0.4375,0.87509,0.87509,0,0,0,0,-0.0625,0.87509,0.87509,0,0,0,-0.0625,-0.0937,0.87509,0.87509,0,0,0,-0.03125,-0.0625,0.87509,0.87509,0,0,0,-0.0625,-0.0937,0.87509,0.87509,0,0,0,-0.03125,-0.0312,0.87509,0.87509,0,0,0,-0.03125,-0.0312,0.87509,0.87509,0,0,0,-0.03125,-0.0312,0.87509,0.87509,0,0,0,-0.03125,-0.0312,0.87509,0.87509,0,0,0,-0.03125,-0.0312,0.87509,0.87509,0,0,0,-0.0625,0,0.87509,0.87509,0,0,0,-0.03125,-0.0312,0.87509,0.87509,0,0,0,-0.03125,-0.0312,0.87509,0.87509,0,0,0,-0.03125,-0.0312l-27.469-12.656a0.87509,0.87509,0,0,0,-0.4375,-0.0937zm0.0625,1.8438,25.438,11.719-8.1875,4.0625-25.656-11.969,8.4062-3.8125zm-10.5,4.7812,25.75,12-5.6875,2.8438-0.03125,0-25.562-12.312,5.5312-2.5312zm-7.625,3.4688,0.09375,0.0312a0.87509,0.87509,0,0,0,0.03125,0l25.531,12.344-7.75,3.8438-25.625-12.719,7.7188-3.5zm-8.8438,4.875,11.25,5.5938,14.656,7.2812,0,25.5-25.906-12.844,0-25.531zm53.562,0,0,25.5-25.906,12.875,0-25.531,7.6875-3.8125,0.125,4.4688a0.87509,0.87509,0,0,0,1.25,0.75l7.8438-3.9375a0.87509,0.87509,0,0,0,0.46875,-0.78125l0.03125-5.3125,8.5-4.2188zm-10.25,5.0938-0.03125,3.9062-6.0938,3.0625-0.125-3.875,6.25-3.0938zm12,10.031,15.281,7.0312-8.1562,4.0625-7.125-3.3125,0-7.7812zm16.406,8.4375,0,25.5-25.875,12.875,0-25.5,7.6562-3.8125,0.125,4.4375c0.01683,0.5906,0.75806,1.0245,1.2812,0.75l7.8125-3.9375c0.29442-0.1396,0.4965-0.4554,0.5-0.7812l0.03125-5.3125,8.4688-4.2188zm-16.406,1.2812,5.0938,2.375-4,2-1.7188,0.8437-3.2188-1.5625,3.3438-1.6562a0.87509,0.87509,0,0,0,0.5,-0.78125v-1.2188zm6.1875,3.8125-0.03125,3.9062-6.125,3.0938-0.125-3.9063,2.875-1.4062,3.4062-1.6875zm-12.031,0.84371,3.2188,1.5625-7.75,3.8438-3.1875-1.5938,7.7188-3.8125zm-44.562,0.4063,21.469,10.656a0.87509,0.87509,0,0,0,0.03125,0,0.87509,0.87509,0,0,0,0.125,0.062,0.87509,0.87509,0,0,0,0.03125,0,0.87509,0.87509,0,0,0,0.0625,0.031,0.87509,0.87509,0,0,0,0.03125,0,0.87509,0.87509,0,0,0,0.15625,0,0.87509,0.87509,0,0,0,0.34375,-0.094,0.87509,0.87509,0,0,0,0.1875,-0.094l2.1562-1.0625,3.2812,1.5312-4.7188,2.375-1.0312,0.5-25.531-12.344,3.4062-1.5625zm-5.5312,2.5,0.09375,0.031c0.01015,0.011,0.02057,0.021,0.03125,0.031l25.562,12.312-7.75,3.8437-25.625-12.719,7.6875-3.5zm40.25,1.9687,3.3438,1.5313-4.5625,2.2812-3.5938,1.7813-3.3125-1.5625,8.125-4.0313zm-49.094,2.9375,25.906,12.875,0,25.5-25.906-12.875,0-25.5zm53.562,0,0,25.469-25.906,12.906,0-25.531,7.6562-3.7813,0.125,4.4063c0.01683,0.5905,0.75806,1.0244,1.2812,0.75l7.8438-3.9375c0.2738-0.1434,0.45984-0.4411,0.46875-0.75l0.03125-5.3125,8.5-4.2188zm-10.25,5.0938-0.03125,3.875-6.125,3.0625-0.09375-3.8438,1.6875-0.8437,4.5625-2.25z"></path></g></svg></g></g></svg>