<svg xmlns="http://www.w3.org/2000/svg" xmlns:xlink="http://www.w3.org/1999/xlink" width="100" height="100" viewBox="0 0 100 100"><g><g transform="translate(50 50) scale(0.69 0.69) rotate(0) translate(-50 -50)" style="fill:#000000"><svg fill="#000000" xmlns="http://www.w3.org/2000/svg" data-name="Layer 1" viewBox="0 0 1024 1024" x="0px" y="0px"><title>icon-01</title><path fill="#000000" d="M992 512a32 32 0 0 0-32 32v416H64V64h412.48a32 32 0 0 0 0-64H64a64 64 0 0 0-64 64v896a64 64 0 0 0 64 64h896a64 64 0 0 0 64-64V544a32 32 0 0 0-32-32z"></path><path fill="#000000" d="M378.56 748.8a32 32 0 0 0 64 0A480 480 0 0 1 912 271.36l-118.4 118.4a32 32 0 1 0 45.12 45.12l173.44-173.44a32 32 0 0 0 0-45.12l-173.12-173.44a32 32 0 0 0-45.44 45.44l119.04 119.04A544 544 0 0 0 378.56 748.8z"></path></svg></g></g></svg>