<svg xmlns="http://www.w3.org/2000/svg" xmlns:xlink="http://www.w3.org/1999/xlink" width="100" height="100" viewBox="0 0 100 100"><g><g transform="translate(50 50) scale(0.69 0.69) rotate(0) translate(-50 -50)" style="fill:#000000"><svg fill="#000000" xmlns:dc="http://purl.org/dc/elements/1.1/" xmlns:cc="http://creativecommons.org/ns#" xmlns:rdf="http://www.w3.org/1999/02/22-rdf-syntax-ns#" xmlns:svg="http://www.w3.org/2000/svg" xmlns="http://www.w3.org/2000/svg" xmlns:sodipodi="http://sodipodi.sourceforge.net/DTD/sodipodi-0.dtd" xmlns:inkscape="http://www.inkscape.org/namespaces/inkscape" version="1.1" x="0px" y="0px" viewBox="0 0 100 100"><g transform="translate(0,-952.36218)"><path style="text-indent:0;text-transform:none;direction:ltr;block-progression:tb;baseline-shift:baseline;color:#000000;enable-background:accumulate;" d="m 29.8125,14 c -0.17487,0.03931 -0.338684,0.12668 -0.46875,0.25 l -18,16 C 11.129864,30.436035 11.001303,30.716532 11,31 l 0,54 c 5.2e-5,0.523584 0.476416,0.999948 1,1 l 76,0 c 0.523584,-5.2e-5 0.999948,-0.476416 1,-1 l 0,-54 c -0.0013,-0.283468 -0.129864,-0.563965 -0.34375,-0.75 l -18,-16 C 70.47686,14.091799 70.239179,14.001253 70,14 c -13.39126,-10e-7 -26.810069,0 -40.1875,0 z m 0.5625,2 39.25,0 5.625,5 c -4.805993,-5e-6 -9.646103,0 -14.4375,0 -0.523599,0.04909 -0.955337,0.570151 -0.90625,1.09375 C 59.955338,22.617349 60.476401,23.049087 61,23 l 16.5,0 7.875,7 -70.75,0 c 2.612399,-2.3342 5.237006,-4.664358 7.84375,-7 5.510417,0 11.020833,0 16.53125,0 0.528313,0.0075 1.014242,-0.471635 1.014242,-1 0,-0.528365 -0.485929,-1.007472 -1.014242,-1 L 24.75,21 z M 13,32 l 74,0 0,52 -74,0 z m 39.78125,18 c -0.18921,0.04261 -0.365332,0.141677 -0.5,0.28125 l -5,5 c -0.364567,0.377086 -0.355177,1.050872 0.01976,1.417654 0.374931,0.366781 1.048762,0.361361 1.417745,-0.0114 L 52,53.40625 52,67 c -0.0075,0.528313 0.471635,1.014242 1,1.014242 0.528365,0 1.007472,-0.485929 1,-1.014242 l 0,-13.59375 3.28125,3.28125 c 0.368983,0.372765 1.042814,0.378185 1.417745,0.0114 0.374932,-0.366782 0.384322,-1.040568 0.01976,-1.417654 l -5,-5 C 53.48191,50.036025 53.113965,49.925642 52.78125,50 z m 20,0 c -0.18921,0.04261 -0.365332,0.141677 -0.5,0.28125 l -5,5 c -0.364567,0.377086 -0.355177,1.050872 0.01976,1.417654 0.374931,0.366781 1.048762,0.361361 1.417745,-0.0114 L 72,53.40625 72,67 c -0.0075,0.528313 0.471635,1.014242 1,1.014242 0.528365,0 1.007472,-0.485929 1,-1.014242 l 0,-13.59375 3.28125,3.28125 c 0.368983,0.372765 1.042814,0.378185 1.417745,0.0114 0.374932,-0.366782 0.384322,-1.040568 0.01976,-1.417654 l -5,-5 C 73.48191,50.036025 73.113965,49.925642 72.78125,50 z M 47.8125,74 c -0.523599,0.04909 -0.955337,0.570151 -0.90625,1.09375 C 46.955338,75.617349 47.476401,76.049087 48,76 l 30,0 c 0.528313,0.0075 1.014242,-0.471635 1.014242,-1 0,-0.528365 -0.485929,-1.007472 -1.014242,-1 l -30,0 c -0.06232,-0.0059 -0.125184,-0.0059 -0.1875,0 z" transform="translate(0,952.36218)" fill="#000000" fill-opacity="1" stroke="none" marker="none" visibility="visible" display="inline" overflow="visible"></path></g></svg></g></g></svg>