<svg xmlns="http://www.w3.org/2000/svg" xmlns:xlink="http://www.w3.org/1999/xlink" width="100" height="100" viewBox="0 0 100 100"><g><g transform="translate(50 50) scale(0.69 0.69) rotate(0) translate(-50 -50)" style="fill:#000000"><svg fill="#000000" xmlns:x="http://ns.adobe.com/Extensibility/1.0/" xmlns:i="http://ns.adobe.com/AdobeIllustrator/10.0/" xmlns:graph="http://ns.adobe.com/Graphs/1.0/" xmlns="http://www.w3.org/2000/svg" xmlns:xlink="http://www.w3.org/1999/xlink" version="1.1" x="0px" y="0px" viewBox="0 0 100 100" style="enable-background:new 0 0 100 100;" xml:space="preserve"><g><g i:extraneous="self"><g><rect x="30.5" y="24.9" width="4.1" height="50.1"></rect><rect x="39.6" y="24.9" width="10.3" height="50.1"></rect><rect x="54.9" y="24.9" width="4.1" height="50.1"></rect><rect x="64" y="24.9" width="4.1" height="50.1"></rect><rect x="73" y="24.9" width="8.6" height="50.1"></rect><rect x="18.4" y="24.9" width="7.2" height="50.1"></rect><polygon points="9,16.7 22.8,16.7 22.8,10.2 2.5,10.2 2.5,30.6 9,30.6    "></polygon><polygon points="77.2,10.2 77.2,16.7 91,16.7 91,30.6 97.5,30.6 97.5,10.2    "></polygon><polygon points="91,83.3 77.2,83.3 77.2,89.8 97.5,89.8 97.5,69.4 91,69.4    "></polygon><polygon points="9,69.4 2.5,69.4 2.5,89.8 22.8,89.8 22.8,83.3 9,83.3    "></polygon></g></g></g></svg></g></g></svg>