<svg xmlns="http://www.w3.org/2000/svg" xmlns:xlink="http://www.w3.org/1999/xlink" width="100" height="100" viewBox="0 0 100 100"><g><g transform="translate(50 50) scale(0.69 0.69) rotate(0) translate(-50 -50)" style="fill:#000000"><svg fill="#000000" xmlns="http://www.w3.org/2000/svg" xmlns:xlink="http://www.w3.org/1999/xlink" version="1.1" x="0px" y="0px" viewBox="0 0 20 20" enable-background="new 0 0 20 20" xml:space="preserve"><g><path fill="#000000" d="M17,0H3C1.3,0,0,1.3,0,3v14c0,1.7,1.3,3,3,3h14c1.7,0,3-1.3,3-3V3C20,1.3,18.7,0,17,0z M18,17   c0,0.6-0.4,1-1,1H3c-0.6,0-1-0.4-1-1V3c0-0.6,0.4-1,1-1h14c0.6,0,1,0.4,1,1V17z"></path><rect x="4" y="5" fill="#000000" width="2" height="2"></rect><rect x="8" y="5" fill="#000000" width="8" height="2"></rect><rect x="4" y="9" fill="#000000" width="2" height="2"></rect><rect x="8" y="9" fill="#000000" width="8" height="2"></rect><rect x="4" y="13" fill="#000000" width="2" height="2"></rect><rect x="8" y="13" fill="#000000" width="8" height="2"></rect></g></svg></g></g></svg>