<svg xmlns="http://www.w3.org/2000/svg" xmlns:xlink="http://www.w3.org/1999/xlink" width="100" height="100" viewBox="0 0 100 100"><g><g transform="translate(50 50) scale(0.69 0.69) rotate(0) translate(-50 -50)" style="fill:#1A1A1A"><svg fill="#1A1A1A" xmlns="http://www.w3.org/2000/svg" xmlns:xlink="http://www.w3.org/1999/xlink" version="1.1" x="0px" y="0px" viewBox="0 0 100 100" style="enable-background:new 0 0 100 100;" xml:space="preserve"><path d="M89.125,88H86.31V33.261c0-0.553-0.447-1-1-1h-3.269c-0.204-3.013-2.713-5.402-5.776-5.402h-1.071v-4.864  c0-0.553-0.447-1-1-1s-1,0.447-1,1v4.864h-1.07c-3.063,0-5.573,2.39-5.777,5.402h-0.965v-12.99c0-0.438-0.284-0.824-0.702-0.954  l-26.465-8.271c-0.305-0.098-0.635-0.039-0.891,0.148c-0.256,0.188-0.407,0.487-0.407,0.806v14.479H20.84c-0.553,0-1,0.447-1,1  v18.235h-5.075c-0.553,0-1,0.447-1,1V88h-2.64c-0.553,0-1,0.447-1,1s0.447,1,1,1h78c0.553,0,1-0.447,1-1S89.678,88,89.125,88z   M72.123,28.858h4.142c1.958,0,3.556,1.496,3.756,3.402H68.366C68.566,30.355,70.164,28.858,72.123,28.858z M38.916,12.36  l24.465,7.646v12.255h-3.979c-0.553,0-1,0.447-1,1v11.63h-7.332V26.479c0-0.553-0.447-1-1-1H38.916V12.36z M21.84,27.479h27.229  v8.652H21.84V27.479z M27.879,88h-4.744v-5.75c0-1.308,1.064-2.372,2.372-2.372s2.372,1.064,2.372,2.372V88z M35.249,88h-5.37v-5.75  c0-2.411-1.961-4.372-4.372-4.372s-4.372,1.961-4.372,4.372V88h-5.37V46.715h19.484V88z M40.593,45.184  c-0.188,0.188-0.292,0.443-0.292,0.708L40.357,88h-3.108V45.715c0-0.553-0.447-1-1-1H21.84v-6.583h27.229v6.759h-7.769  C41.035,44.891,40.781,44.996,40.593,45.184z M54.245,88h-4.744v-5.75c0-1.308,1.064-2.372,2.372-2.372s2.372,1.064,2.372,2.372V88z   M56.245,88v-5.75c0-2.411-1.961-4.372-4.372-4.372s-4.372,1.961-4.372,4.372V88h-5.144l-0.055-41.109h19.145L61.501,88H56.245z   M76.565,88h-4.744v-5.75c0-1.308,1.064-2.372,2.372-2.372s2.372,1.064,2.372,2.372V88z M84.31,88h-5.744v-5.75  c0-2.411-1.961-4.372-4.372-4.372s-4.372,1.961-4.372,4.372V88h-6.32l-0.056-42.11c-0.001-0.552-0.448-0.999-1-0.999h-2.044v-10.63  H84.31V88z"></path><path d="M20.84,70.604c0.553,0,1-0.447,1-1v-4.195c0-0.553-0.447-1-1-1s-1,0.447-1,1v4.195C19.84,70.156,20.287,70.604,20.84,70.604  z"></path><path d="M25.507,70.604c0.553,0,1-0.447,1-1v-4.195c0-0.553-0.447-1-1-1s-1,0.447-1,1v4.195  C24.507,70.156,24.954,70.604,25.507,70.604z"></path><path d="M30.174,70.604c0.553,0,1-0.447,1-1v-4.195c0-0.553-0.447-1-1-1s-1,0.447-1,1v4.195  C29.174,70.156,29.621,70.604,30.174,70.604z"></path><path d="M47.206,52.552c-0.553,0-1,0.447-1,1v4.195c0,0.553,0.447,1,1,1s1-0.447,1-1v-4.195  C48.206,52.999,47.759,52.552,47.206,52.552z"></path><path d="M51.873,52.552c-0.553,0-1,0.447-1,1v4.195c0,0.553,0.447,1,1,1s1-0.447,1-1v-4.195  C52.873,52.999,52.426,52.552,51.873,52.552z"></path><path d="M56.54,52.552c-0.553,0-1,0.447-1,1v4.195c0,0.553,0.447,1,1,1s1-0.447,1-1v-4.195C57.54,52.999,57.093,52.552,56.54,52.552  z"></path><path d="M47.206,64.408c-0.553,0-1,0.447-1,1v4.195c0,0.553,0.447,1,1,1s1-0.447,1-1v-4.195  C48.206,64.855,47.759,64.408,47.206,64.408z"></path><path d="M51.873,64.408c-0.553,0-1,0.447-1,1v4.195c0,0.553,0.447,1,1,1s1-0.447,1-1v-4.195  C52.873,64.855,52.426,64.408,51.873,64.408z"></path><path d="M56.54,64.408c-0.553,0-1,0.447-1,1v4.195c0,0.553,0.447,1,1,1s1-0.447,1-1v-4.195C57.54,64.855,57.093,64.408,56.54,64.408  z"></path><path d="M69.526,58.747c0.553,0,1-0.447,1-1v-4.195c0-0.553-0.447-1-1-1s-1,0.447-1,1v4.195  C68.526,58.3,68.974,58.747,69.526,58.747z"></path><path d="M74.193,58.747c0.553,0,1-0.447,1-1v-4.195c0-0.553-0.447-1-1-1s-1,0.447-1,1v4.195  C73.193,58.3,73.641,58.747,74.193,58.747z"></path><path d="M78.86,58.747c0.553,0,1-0.447,1-1v-4.195c0-0.553-0.447-1-1-1s-1,0.447-1,1v4.195C77.86,58.3,78.308,58.747,78.86,58.747z"></path><path d="M20.84,58.747c0.553,0,1-0.447,1-1v-4.195c0-0.553-0.447-1-1-1s-1,0.447-1,1v4.195C19.84,58.3,20.287,58.747,20.84,58.747z"></path><path d="M25.507,58.747c0.553,0,1-0.447,1-1v-4.195c0-0.553-0.447-1-1-1s-1,0.447-1,1v4.195  C24.507,58.3,24.954,58.747,25.507,58.747z"></path><path d="M30.174,58.747c0.553,0,1-0.447,1-1v-4.195c0-0.553-0.447-1-1-1s-1,0.447-1,1v4.195  C29.174,58.3,29.621,58.747,30.174,58.747z"></path><path d="M69.526,70.604c0.553,0,1-0.447,1-1v-4.195c0-0.553-0.447-1-1-1s-1,0.447-1,1v4.195  C68.526,70.156,68.974,70.604,69.526,70.604z"></path><path d="M74.193,70.604c0.553,0,1-0.447,1-1v-4.195c0-0.553-0.447-1-1-1s-1,0.447-1,1v4.195  C73.193,70.156,73.641,70.604,74.193,70.604z"></path><path d="M78.86,70.604c0.553,0,1-0.447,1-1v-4.195c0-0.553-0.447-1-1-1s-1,0.447-1,1v4.195C77.86,70.156,78.308,70.604,78.86,70.604  z"></path><path d="M69.526,46.529c0.553,0,1-0.447,1-1v-4.195c0-0.553-0.447-1-1-1s-1,0.447-1,1v4.195  C68.526,46.082,68.974,46.529,69.526,46.529z"></path><path d="M74.193,46.529c0.553,0,1-0.447,1-1v-4.195c0-0.553-0.447-1-1-1s-1,0.447-1,1v4.195  C73.193,46.082,73.641,46.529,74.193,46.529z"></path><path d="M78.86,46.529c0.553,0,1-0.447,1-1v-4.195c0-0.553-0.447-1-1-1s-1,0.447-1,1v4.195C77.86,46.082,78.308,46.529,78.86,46.529  z"></path></svg></g></g></svg>