<svg xmlns="http://www.w3.org/2000/svg" xmlns:xlink="http://www.w3.org/1999/xlink" width="100" height="100" viewBox="0 0 100 100"><g><g transform="translate(50 50) scale(0.69 0.69) rotate(0) translate(-50 -50)" style="fill:#000000"><svg fill="#000000" xmlns:x="http://ns.adobe.com/Extensibility/1.0/" xmlns:i="http://ns.adobe.com/AdobeIllustrator/10.0/" xmlns:graph="http://ns.adobe.com/Graphs/1.0/" xmlns="http://www.w3.org/2000/svg" xmlns:xlink="http://www.w3.org/1999/xlink" version="1.1" x="0px" y="0px" viewBox="0 0 64 64" enable-background="new 0 0 64 64" xml:space="preserve"><metadata><sfw xmlns="http://ns.adobe.com/SaveForWeb/1.0/"><slices></slices><sliceSourceBounds height="16384" width="16389" x="-8165" y="-8160" bottomLeftOrigin="true"></sliceSourceBounds></sfw></metadata><g><g><path d="M58,5H6C5.448,5,5,5.448,5,6v52c0,0.553,0.448,1,1,1h52c0.553,0,1-0.447,1-1V6C59,5.448,58.553,5,58,5z M57,57H7V7h50V57z    "></path><path d="M12,21h8c0.552,0,1-0.448,1-1v-8c0-0.552-0.448-1-1-1h-8c-0.552,0-1,0.448-1,1v8C11,20.552,11.448,21,12,21z M17.414,16    L19,14.414v3.172L17.414,16z M17.586,19h-3.172L16,17.414L17.586,19z M16,14.586L14.414,13h3.172L16,14.586z M14.586,16L13,17.586    v-3.172L14.586,16z"></path><path d="M12,37h8c0.552,0,1-0.447,1-1v-8c0-0.552-0.448-1-1-1h-8c-0.552,0-1,0.448-1,1v8C11,36.553,11.448,37,12,37z M17.414,32    L19,30.414v3.172L17.414,32z M17.586,35h-3.172L16,33.414L17.586,35z M16,30.586L14.414,29h3.172L16,30.586z M14.586,32L13,33.586    v-3.172L14.586,32z"></path><path d="M12,53h8c0.552,0,1-0.447,1-1v-8c0-0.553-0.448-1-1-1h-8c-0.552,0-1,0.447-1,1v8C11,52.553,11.448,53,12,53z M13,45h6v6    h-6V45z"></path><path d="M26,17h26c0.553,0,1-0.448,1-1s-0.447-1-1-1H26c-0.552,0-1,0.448-1,1S25.448,17,26,17z"></path><path d="M26,33h26c0.553,0,1-0.448,1-1s-0.447-1-1-1H26c-0.552,0-1,0.448-1,1S25.448,33,26,33z"></path><path d="M26,49h26c0.553,0,1-0.447,1-1s-0.447-1-1-1H26c-0.552,0-1,0.447-1,1S25.448,49,26,49z"></path></g></g></svg></g></g></svg>