<svg xmlns="http://www.w3.org/2000/svg" xmlns:xlink="http://www.w3.org/1999/xlink" width="100" height="100" viewBox="0 0 100 100"><g><g transform="translate(50 50) scale(0.69 0.69) rotate(0) translate(-50 -50)" style="fill:#000000"><svg fill="#000000" xmlns="http://www.w3.org/2000/svg" xmlns:xlink="http://www.w3.org/1999/xlink" version="1.1" x="0px" y="0px" viewBox="0 0 52 52" enable-background="new 0 0 52 52" xml:space="preserve"><g><rect x="26.5" y="38.9980469" width="5.5" height="11"></rect><rect x="19" y="38.9980469" width="5.5" height="11"></rect><rect x="9" y="1.9980469" width="34" height="4"></rect><path d="M43,48.0019531V7.9980469H9v40.0039063H2v2h8v-0.0039063h7v-13h17v13h8v0.0039063h8v-2H43z M16.9978027,32.9931641h-6v-6h6   V32.9931641z M16.9978027,24.9931641h-6v-6h6V24.9931641z M16.9978027,16.9931641h-6v-6h6V16.9931641z M24.9978027,32.9931641h-6   v-6h6V32.9931641z M24.9978027,24.9931641h-6v-6h6V24.9931641z M24.9978027,16.9931641h-6v-6h6V16.9931641z M32.9978027,32.9931641   h-6v-6h6V32.9931641z M32.9978027,24.9931641h-6v-6h6V24.9931641z M32.9978027,16.9931641h-6v-6h6V16.9931641z    M40.9978027,32.9931641h-6v-6h6V32.9931641z M40.9978027,24.9931641h-6v-6h6V24.9931641z M40.9978027,16.9931641h-6v-6h6   V16.9931641z"></path><rect x="45" y="10.9931641" width="3.9978027" height="35"></rect><rect x="2.9978027" y="10.9931641" width="4.0021973" height="35"></rect></g></svg></g></g></svg>