<svg xmlns="http://www.w3.org/2000/svg" xmlns:xlink="http://www.w3.org/1999/xlink" width="100" height="100" viewBox="0 0 100 100"><g><g transform="translate(50 50) scale(-0.69 0.69) rotate(0) translate(-50 -50)" style="fill:#000000"><svg fill="#000000" xmlns="http://www.w3.org/2000/svg" xmlns:xlink="http://www.w3.org/1999/xlink" version="1.1" x="0px" y="0px" viewBox="0 0 100 100" style="enable-background:new 0 0 100 100;" xml:space="preserve"><path d="M89.922,29.633c-0.036-0.091-0.085-0.176-0.146-0.252c-0.013-0.016-0.022-0.033-0.036-0.049  c-0.063-0.07-0.135-0.134-0.218-0.185c-0.018-0.011-0.039-0.016-0.058-0.026c-0.01-0.005-0.016-0.015-0.026-0.02l-39-19  c-0.276-0.135-0.6-0.135-0.876,0l-39,19c-0.01,0.005-0.016,0.015-0.026,0.02c-0.019,0.01-0.039,0.015-0.058,0.026  c-0.083,0.051-0.154,0.114-0.218,0.185c-0.014,0.015-0.023,0.033-0.036,0.049c-0.061,0.077-0.11,0.161-0.146,0.252  c-0.009,0.023-0.02,0.045-0.028,0.069C10.02,29.797,10,29.897,10,30v39c0,0.375,0.21,0.719,0.543,0.89l39,20  c0.013,0.007,0.028,0.004,0.041,0.01C49.717,89.96,49.857,90,50,90s0.283-0.04,0.415-0.1c0.013-0.006,0.028-0.003,0.041-0.01l39-20  C89.79,69.719,90,69.375,90,69V30c0-0.103-0.02-0.203-0.051-0.299C89.942,29.677,89.931,29.656,89.922,29.633z M50,48.876  l-17.467-8.957l36.08-18.739l18.151,8.843L50,48.876z M50,12.112l16.374,7.977L30.35,38.799l-17.114-8.776L50,12.112z M12,31.637  l37,18.974v36.752L12,68.389V31.637z M88,68.389L51,87.363V50.611l37-18.974V68.389z"></path></svg></g></g></svg>