<svg xmlns="http://www.w3.org/2000/svg" xmlns:xlink="http://www.w3.org/1999/xlink" width="100" height="100" viewBox="0 0 100 100"><g><g transform="translate(50 50) scale(0.69 0.69) rotate(0) translate(-50 -50)" style="fill:#000000"><svg fill="#000000" xmlns:dc="http://purl.org/dc/elements/1.1/" xmlns:cc="http://creativecommons.org/ns#" xmlns:rdf="http://www.w3.org/1999/02/22-rdf-syntax-ns#" xmlns:svg="http://www.w3.org/2000/svg" xmlns="http://www.w3.org/2000/svg" xmlns:sodipodi="http://sodipodi.sourceforge.net/DTD/sodipodi-0.dtd" xmlns:inkscape="http://www.inkscape.org/namespaces/inkscape" version="1.1" x="0px" y="0px" viewBox="0 0 100 100"><g transform="translate(0,-952.36218)"><path style="text-indent:0;text-transform:none;direction:ltr;block-progression:tb;baseline-shift:baseline;color:#000000;enable-background:accumulate;" d="m 3.0000022,973.36217 0,58.00003 9.9999998,0 0,-58.00003 -9.9999998,0 z m 11.9999998,0 0,58.00003 6,0 0,-58.00003 -6,0 z m 8,0 0,58.00003 2,0 0,-58.00003 -2,0 z m 4,0 0,58.00003 2,0 0,-58.00003 -2,0 z m 4,0 0,58.00003 6,0 0,-58.00003 -6,0 z m 10,0 0,58.00003 2,0 0,-58.00003 -2,0 z m 5,0 0,58.00003 2,0 0,-58.00003 -2,0 z m 4,0 0,58.00003 2,0 0,-58.00003 -2,0 z m 6,0 0,58.00003 8,0 0,-58.00003 -8,0 z m 12,0 0,58.00003 6,0 0,-58.00003 -6,0 z m 10,0 0,58.00003 2,0 0,-58.00003 -2,0 z m 4,0 0,58.00003 4,0 0,-58.00003 -4,0 z m 7,0 0,58.00003 7.999996,0 0,-58.00003 -7.999996,0 z" fill="#000000" fill-opacity="1" stroke="none" marker="none" visibility="visible" display="inline" overflow="visible"></path></g></svg></g></g></svg>