<svg xmlns="http://www.w3.org/2000/svg" xmlns:xlink="http://www.w3.org/1999/xlink" width="100" height="100" viewBox="0 0 100 100"><g><g transform="translate(50 50) scale(0.69 0.69) rotate(0) translate(-50 -50)" style="fill:#1A1A1A"><svg fill="#1A1A1A" xmlns="http://www.w3.org/2000/svg" viewBox="0 0 98 93.36" x="0px" y="0px"><defs><style>.cls-1{fill:none;stroke:#1A1A1A;stroke-linecap:round;stroke-linejoin:round;stroke-width:4px;}</style></defs><title>Asset 16</title><g data-name="Layer 2"><g><line class="cls-1" x1="61.9" y1="2" x2="61.9" y2="44.99"></line><polyline class="cls-1" points="73.5 33.41 61.9 45 50.3 33.41"></polyline><polyline class="cls-1" points="80.4 23.65 96 23.65 89.21 67.66 33.86 67.66"></polyline><line class="cls-1" x1="27.81" y1="23.65" x2="43.4" y2="23.65"></line><path class="cls-1" d="M48,84.59a6.77,6.77,0,1,0-6.77,6.77A6.77,6.77,0,0,0,48,84.59Z"></path><path class="cls-1" d="M89.33,84.59a6.77,6.77,0,1,0-6.77,6.77A6.77,6.77,0,0,0,89.33,84.59Z"></path><path class="cls-1" d="M2,6.64H21.41a2.47,2.47,0,0,1,2.34,2L33.86,67.22"></path></g></g></svg></g></g></svg>