<svg xmlns="http://www.w3.org/2000/svg" xmlns:xlink="http://www.w3.org/1999/xlink" width="100" height="100" viewBox="0 0 100 100"><g><g transform="translate(50 50) scale(0.69 0.69) rotate(0) translate(-50 -50)" style="fill:#000000"><svg fill="#000000" xmlns="http://www.w3.org/2000/svg" xmlns:xlink="http://www.w3.org/1999/xlink" version="1.1" x="0px" y="0px" viewBox="0 0 16 16" style="enable-background:new 0 0 16 16;" xml:space="preserve"><g><path d="M6,16c-0.128,0-0.256-0.049-0.354-0.146C5.416,15.623,0,10.159,0,6c0-3.309,2.691-6,6-6s6,2.691,6,6   c0,0.197-0.012,0.405-0.047,0.613c-0.045,0.273-0.307,0.453-0.576,0.41c-0.272-0.046-0.456-0.304-0.41-0.576   C10.992,6.295,11,6.143,11,6c0-2.757-2.243-5-5-5S1,3.243,1,6c0,3.178,3.807,7.5,5,8.777c0.173-0.186,0.401-0.436,0.663-0.735   c0.183-0.208,0.498-0.23,0.706-0.049c0.208,0.182,0.23,0.497,0.048,0.705c-0.624,0.716-1.063,1.155-1.063,1.155   C6.256,15.951,6.128,16,6,16z"></path><path d="M6,9C4.346,9,3,7.654,3,6s1.346-3,3-3s3,1.346,3,3S7.654,9,6,9z M6,4C4.897,4,4,4.897,4,6s0.897,2,2,2s2-0.897,2-2   S7.103,4,6,4z"></path><path d="M12,16c-2.206,0-4-1.794-4-4s1.794-4,4-4s4,1.794,4,4S14.206,16,12,16z M12,9c-1.654,0-3,1.346-3,3s1.346,3,3,3   s3-1.346,3-3S13.654,9,12,9z"></path><path d="M13.5,12.5h-3c-0.276,0-0.5-0.224-0.5-0.5s0.224-0.5,0.5-0.5h3c0.276,0,0.5,0.224,0.5,0.5S13.776,12.5,13.5,12.5z"></path><path d="M12,14c-0.276,0-0.5-0.224-0.5-0.5v-3c0-0.276,0.224-0.5,0.5-0.5s0.5,0.224,0.5,0.5v3C12.5,13.776,12.276,14,12,14z"></path></g></svg></g></g></svg>