<svg xmlns="http://www.w3.org/2000/svg" xmlns:xlink="http://www.w3.org/1999/xlink" width="100" height="100" viewBox="0 0 100 100"><g><g transform="translate(50 50) scale(0.69 0.69) rotate(0) translate(-50 -50)" style="fill:#000000"><svg fill="#000000" xmlns="http://www.w3.org/2000/svg" xmlns:xlink="http://www.w3.org/1999/xlink" version="1.1" x="0px" y="0px" viewBox="0 0 500 500" enable-background="new 0 0 500 500" xml:space="preserve"><g><path fill="#000000" d="M469.354,308.794c-0.305-0.201-0.627-0.362-0.956-0.503l0.005-0.011l-66.044-28.255v-175.15   c0-0.001,0-0.002,0-0.004c-0.002-2.404-1.438-4.576-3.65-5.517L238.825,31.312c-1.501-0.639-3.198-0.639-4.699,0L74.245,99.354   c-2.212,0.941-3.649,3.113-3.65,5.517c0,0.001,0,0.002,0,0.004v208.946l-38.473,16.332l0.008,0.019   c-0.333,0.141-0.658,0.302-0.965,0.504c-1.685,1.11-2.698,2.992-2.698,5.01v47.724c0,2.369,1.395,4.517,3.559,5.481l25.502,11.358   c1.524,0.678,3.243,0.675,4.753,0.043l0.004,0.011l24.411-10.217l17.061,7.336l0.001,18.508c0,2.392,1.42,4.554,3.614,5.505   l26.38,11.436c1.593,0.691,3.391,0.648,4.937-0.079l0.002,0.006l24.16-10.079l25.992,11.122v18.578   c0,2.384,1.412,4.542,3.596,5.497l28.56,12.49c0.766,0.335,1.585,0.503,2.404,0.503c0.783,0,1.566-0.153,2.303-0.46l30.146-12.533   c2.238-0.931,3.696-3.116,3.696-5.54v-18.14l49.76-21.535l24.009,9.988c1.57,0.797,3.425,0.871,5.064,0.171l36.041-15.361   c2.212-0.942,3.647-3.114,3.647-5.519l0.003-18.743l32.938-14.008l24.088,10.347l0.004-0.01c1.507,0.647,3.228,0.664,4.758-0.001   l28.577-12.43c2.189-0.952,3.606-3.113,3.606-5.502v-47.836C472.043,311.784,471.033,309.905,469.354,308.794z M223.415,410.231   l-25.717-11.035l26.809-11.442l9.578,4.091c0.256,0.111,0.519,0.204,0.786,0.278c0.004,0.001,0.008,0.004,0.01,0.003   c0.497,0.137,1.005,0.208,1.513,0.215c0.001,0,0.002,0,0.002,0c0.024,0.011,0.053,0.001,0.08,0.001   c0.625,0,1.251-0.098,1.856-0.294c0.005-0.005,0.007-0.003,0.01-0.004c0.173-0.057,0.344-0.121,0.512-0.193l159.862-68.272   c2.21-0.943,3.644-3.114,3.644-5.518v-6.217l21.958-9.372l26.418,11.303L223.415,410.231z M76.274,324.447l21.301,9.098   l-26.534,11.306l-21.3-9.14L76.274,324.447z M112.863,340.074l22.092,9.435l-26.622,11.344l-22.04-9.457L112.863,340.074z    M150.243,356.038l22.09,9.435l-26.708,11.381l-22.039-9.457L150.243,356.038z M187.621,372.002l21.605,9.227l-26.773,11.427   l-21.576-9.258L187.621,372.002z M409.05,295.94l-6.69,2.855v-5.718L409.05,295.94z M390.359,314.099l-147.884,63.156V177.122   l147.884-63.16V314.099z M236.475,166.636l-69.306-29.601l144.064-61.867l69.827,29.716L236.475,166.636z M236.475,43.354   l59.484,25.314l-143.013,61.415l0.461,1.075l-61.515-26.273L236.475,43.354z M82.594,113.962l147.881,63.16v195.037l-5.968,2.547   L82.594,314.099V113.962z M65.968,385.752v-4.578l5.395,2.319L65.968,385.752z M142.137,418.357v-4.503l5.328,2.28L142.137,418.357   z M197.202,424.364l-58.705-25.12c-1.854-0.791-3.982-0.602-5.665,0.509c-1.683,1.11-2.696,2.991-2.696,5.008v13.464l-14.38-6.233   l-0.001-18.521c0-2.397-1.427-4.565-3.63-5.512l-49.788-21.408c-1.853-0.798-3.984-0.61-5.67,0.501   c-1.686,1.109-2.7,2.992-2.7,5.011v13.465l-13.502-6.014v-34.725l176.936,75.92v35.026l-16.56-7.242v-18.612   C200.842,427.479,199.41,425.31,197.202,424.364z M330.029,408.323l-5.408-2.25l5.409-2.341L330.029,408.323z M431.466,364.955   l-5.179-2.225l5.179-2.202V364.955z M460.043,357.699l-16.577,7.211v-13.453c0-2.014-1.011-3.894-2.69-5.005   c-1.678-1.11-3.803-1.305-5.658-0.517l-65.393,27.811c-2.214,0.941-3.651,3.114-3.651,5.521l-0.003,18.747l-24.04,10.246   l0.002-13.661c0-2.021-1.017-3.906-2.705-5.016c-1.69-1.109-3.824-1.292-5.678-0.492l-82.484,35.696   c-2.196,0.95-3.617,3.114-3.617,5.507v18.078l-18.146,7.544v-35.189l230.641-97.866V357.699z"></path><path fill="#000000" d="M183.344,189.426l-48.253-20.455c-5.084-2.155-10.954,0.219-13.11,5.304   c-2.155,5.085,0.219,10.954,5.304,13.11l48.253,20.455c1.274,0.54,2.597,0.795,3.898,0.795c3.894,0,7.596-2.289,9.211-6.1   C190.803,197.451,188.429,191.582,183.344,189.426z"></path></g></svg></g></g></svg>