<svg xmlns="http://www.w3.org/2000/svg" xmlns:xlink="http://www.w3.org/1999/xlink" width="100" height="100" viewBox="0 0 100 100"><g><g transform="translate(50 50) scale(0.69 0.69) rotate(0) translate(-50 -50)" style="fill:#000000"><svg fill="#000000" xmlns="http://www.w3.org/2000/svg" xmlns:xlink="http://www.w3.org/1999/xlink" version="1.1" x="0px" y="0px" viewBox="0 0 100 100" enable-background="new 0 0 100 100" xml:space="preserve"><path fill-rule="evenodd" clip-rule="evenodd" d="M73.998,54.504c-9.943,0-18.002-8.06-18.002-18.002  c0-9.943,8.059-18.003,18.002-18.003s18.004,8.06,18.004,18.003C92.002,46.444,83.941,54.504,73.998,54.504z M82.225,28.291  L71.004,39.46l-4.469-4.489l-2.244,2.234l4.467,4.489l0,0l2.234,2.245l13.467-13.404L82.225,28.291z M61,52.988v28.514H49.99V27.501  h5.045c-1.299,2.731-2.047,5.775-2.047,9C52.988,43.192,56.125,49.14,61,52.988z M39.011,27.501h5.982v54.001h-5.982V27.501z   M32.99,27.501h2.014v54.001H32.99V27.501z M25.002,27.501h5.982v54.001h-5.982V27.501z M7.999,27.501h12.992v54.001H7.999V27.501z   M69.008,81.502h-6.012V54.377c1.838,1.133,3.857,1.988,6.012,2.514V81.502z M77.004,81.502H74.99V57.463  c0.68-0.033,1.352-0.096,2.014-0.189V81.502z M85.998,81.502h-6.012V56.635c2.174-0.646,4.195-1.633,6.012-2.9V81.502z"></path></svg></g></g></svg>