<?xml version="1.0" encoding="UTF-8"?>
<svg width="30px" height="30px" viewBox="0 0 30 30" version="1.1" xmlns="http://www.w3.org/2000/svg" xmlns:xlink="http://www.w3.org/1999/xlink">
    <!-- Generator: sketchtool 49.3 (51167) - http://www.bohemiancoding.com/sketch -->
    <title>DEC95CE1-ECC2-4505-9FB3-3EC8118A6AD0</title>
    <desc>Created with sketchtool.</desc>
    <defs></defs>
    <g id="Symbols" stroke="none" stroke-width="1" fill="none" fill-rule="evenodd">
        <g id="DO---status-rectangle---Swipe-Open" transform="translate(-802.000000, -22.000000)" fill="#FFFFFF" fill-rule="nonzero">
            <g id="Swipe-Panel" transform="translate(528.000000, 0.000000)">
                <g id="Assign-User-Button" transform="translate(238.000000, 7.000000)">
                    <g id="Assign-User" transform="translate(36.000000, 15.000000)">
                        <path d="M22,14 C17.5820029,14 14,17.5820029 14,22 C14,26.4179971 17.5820029,30 22,30 C26.4179971,30 30,26.4179971 30,22 C30,17.5820029 26.4179971,14 22,14 Z M26.4441219,22.8882438 L22.8882438,22.8882438 L22.8882438,26.4441219 L21.1088534,26.4441219 L21.1088534,22.8882438 L17.5558781,22.8882438 L17.5558781,21.1088534 L21.1117562,21.1088534 L21.1117562,17.5558781 L22.8882438,17.5558781 L22.8882438,21.1117562 L26.4441219,21.1117562 L26.4441219,22.8882438 Z" id="Shape"></path>
                        <path d="M11.4,21.2298417 C11.4,16.8681236 14.2476735,13.1394122 18.2275918,11.7045968 C18.7115102,10.6495855 19,9.48003014 19,8.30746044 C19,3.71966843 19,0 13.298449,0 C7.59689796,0 7.6,3.71665411 7.6,8.30444612 C7.6,11.1620196 9.30612245,14.0195931 11.4,15.1650339 L11.4,16.6872645 C4.95395918,17.1996986 0,20.2773173 0,24 L11.7939592,24 C11.5364898,23.1168048 11.4,22.1883949 11.4,21.2298417 Z" id="Shape"></path>
                    </g>
                </g>
            </g>
        </g>
    </g>
</svg>