<?xml version="1.0" encoding="UTF-8"?>
<svg width="49px" height="32px" viewBox="0 0 49 32" version="1.1" xmlns="http://www.w3.org/2000/svg" xmlns:xlink="http://www.w3.org/1999/xlink">
    <!-- Generator: sketchtool 49.1 (51147) - http://www.bohemiancoding.com/sketch -->
    <title>2DDF3135-970A-4866-847D-4E1692F4D98A</title>
    <desc>Created with sketchtool.</desc>
    <defs></defs>
    <g id="Swipe-Menu-Buttons" stroke="none" stroke-width="1" fill="none" fill-rule="evenodd">
        <g transform="translate(-157.000000, -329.000000)" id="Group-8-Copy-3">
            <g transform="translate(133.000000, 314.000000)">
                <g id="ChaseWave" transform="translate(24.000000, 16.000000)">
                    <circle id="Oval" stroke="#FFFFFF" stroke-width="1.5" fill="#4F93E4" cx="33" cy="15" r="15"></circle>
                    <g id="Wave" transform="translate(22.000000, 8.000000)">
                        <g id="View" stroke-width="1" fill-rule="evenodd" transform="translate(21.592593, 7.000000)">
                            <g id="Group-7"></g>
                        </g>
                        <path d="M0.407407407,3.81810779 C1.89782245,4.10503261 3.28177927,5.57552231 4.55927787,8.2295769 C6.47552578,12.2106588 9.7757305,10.0587226 10.8403127,7.47639925 C11.9048948,4.89407587 13.2888517,4.03330141 13.6082263,3.9257046 C13.927601,3.81810779 15.9503071,3.28012375 17.1213475,5.53965671 C18.2923879,7.79918967 19.4634283,10.0587226 21.5925926,10.3815131" id="Path-6" stroke="#FFFFFF" stroke-width="1.5"></path>
                    </g>
                    <path d="M0.5,11.5 L14.5,11.5" id="Line-2" stroke="#FFFFFF" stroke-linecap="square"></path>
                    <path d="M5.44444444,14.5 L12.5555556,14.5" id="Line-2-Copy" stroke="#FFFFFF" stroke-linecap="square"></path>
                    <path d="M7.42857143,18.5 L12.5714286,18.5" id="Line-2-Copy-2" stroke="#FFFFFF" stroke-linecap="square"></path>
                    <path d="M0.5,21.5 L14.5,21.5" id="Line-2-Copy-3" stroke="#FFFFFF" stroke-linecap="square"></path>
                </g>
            </g>
        </g>
    </g>
</svg>