<?xml version="1.0" encoding="UTF-8"?>
<svg width="26px" height="30px" viewBox="0 0 26 30" version="1.1" xmlns="http://www.w3.org/2000/svg" xmlns:xlink="http://www.w3.org/1999/xlink">
    <!-- Generator: sketchtool 49.1 (51147) - http://www.bohemiancoding.com/sketch -->
    <title>83A21BAD-20A7-4BBD-AD05-A01E5EF70080</title>
    <desc>Created with sketchtool.</desc>
    <defs></defs>
    <g id="Swipe-Menu-Buttons" stroke="none" stroke-width="1" fill="none" fill-rule="evenodd">
        <g transform="translate(-170.000000, -233.000000)" fill="#FFFFFF" fill-rule="nonzero" id="Group-8-Copy-2">
            <g transform="translate(133.000000, 219.000000)">
                <g id="Copy" transform="translate(37.000000, 14.000000)">
                    <path d="M26,5.76926295 L20.0909341,0 L7.09090353,0 L7.09090353,4.61539841 L0,4.61539841 L0,30 L18.9090965,30 L18.9090965,25.3846016 L26,25.3846016 L26,5.76926295 Z M20.0909341,1.63165339 L24.3288517,5.76920319 L20.0909341,5.76920319 L20.0909341,1.63165339 Z M1.18177645,28.8461355 L1.18177645,5.76926295 L11.8181317,5.76926295 L11.8181317,11.5384661 L17.7271976,11.5384661 L17.7271976,28.8461355 L1.18177645,28.8461355 Z M12.9999694,6.24705179 L17.2378869,10.3846016 L12.9999694,10.3846016 L12.9999694,6.24705179 Z M18.9090965,24.2307968 L18.9090965,10.3846016 L13.0000306,4.61539841 L8.27274118,4.61539841 L8.27274118,1.15386454 L18.9090965,1.15386454 L18.9090965,6.92306773 L24.8181623,6.92306773 L24.8181623,24.2307968 L18.9090965,24.2307968 Z" id="Shape"></path>
                </g>
            </g>
        </g>
    </g>
</svg>