<?xml version="1.0" encoding="UTF-8"?>
<svg width="30px" height="30px" viewBox="0 0 30 30" version="1.1" xmlns="http://www.w3.org/2000/svg" xmlns:xlink="http://www.w3.org/1999/xlink">
    <!-- Generator: sketchtool 49.1 (51147) - http://www.bohemiancoding.com/sketch -->
    <title>7F1EF79C-5F6F-4751-A3F0-EACF827258F0</title>
    <desc>Created with sketchtool.</desc>
    <defs></defs>
    <g id="Swipe-Menu-Buttons" stroke="none" stroke-width="1" fill="none" fill-rule="evenodd">
        <g transform="translate(-59.000000, -427.000000)" fill="#FFFFFF" id="CycleCount">
            <g transform="translate(59.000000, 427.000000)">
                <g id="if_InterfaceExpendet-01_592600">
                    <g id="Group" fill-rule="nonzero">
                        <path d="M26.5024674,7.05882353 C26.2673047,7.05882353 26.0333884,6.96242407 25.8651182,6.7733488 L25.8046656,6.70591056 C25.4916,6.35692802 25.5217224,5.82135261 25.8719736,5.50939902 C26.2226404,5.19806605 26.7602739,5.22785472 27.0735473,5.57642351 L27.1389857,5.64965401 C27.4505972,5.99987775 27.4179818,6.53545316 27.0662764,6.8457518 C26.9044462,6.98848914 26.7029374,7.05882353 26.5024674,7.05882353 Z" id="Shape"></path>
                        <path d="M27.8259968,8.82352941 C27.5908341,8.82352941 27.3569178,8.72713386 27.1886476,8.53806625 L27.128195,8.47063074 C26.8151294,8.12166235 26.8452518,7.58610864 27.1955031,7.27416769 C27.5461698,6.96284734 28.0838033,6.99242794 28.3970767,7.34118947 L28.4625151,7.41441699 C28.7741266,7.76462654 28.7415112,8.30018025 28.3898058,8.61046631 C28.2279756,8.75319787 28.0264669,8.82352941 27.8259968,8.82352941 Z" id="Shape"></path>
                        <path d="M28.694323,10.7647167 C28.348404,10.7647167 28.021902,10.5619814 27.8887264,10.2304376 L27.8553797,10.1485244 C27.6791489,9.71786551 27.8961133,9.23027702 28.3397507,9.05928312 C28.7840213,8.88869881 29.286332,9.09880626 29.4623518,9.52926031 L29.4994975,9.62100313 C29.6729846,10.0524811 29.4530654,10.5388409 29.0081616,10.7071726 C28.9051668,10.7462861 28.7987952,10.7647167 28.694323,10.7647167 Z" id="Shape"></path>
                        <path d="M29.1354994,12.7941176 C28.7895804,12.7941176 28.4630785,12.5913824 28.3299029,12.2598386 L28.2965562,12.1779253 C28.1203253,11.7472665 28.3372898,11.259678 28.7809272,11.0886841 C29.2249868,10.9180998 29.7272974,11.1282073 29.9035283,11.5586613 L29.940674,11.6504041 C30.1141611,12.0818821 29.8942419,12.5682419 29.4493381,12.7365736 C29.3463433,12.7756871 29.2399716,12.7941176 29.1354994,12.7941176 Z" id="Shape"></path>
                        <path d="M2.65365479,11.4705882 C2.55537494,11.4705882 2.45535944,11.4533074 2.35729655,11.4171542 C1.89453514,11.245483 1.65219827,10.7134162 1.81578109,10.2284168 C3.8807427,4.11055748 9.43040847,0 15.6252934,0 C18.9006375,0 21.99808,1.10824522 24.5822109,3.20467956 C24.8230291,3.39999812 25.0577726,3.60304759 25.2862244,3.81337313 C25.6548281,4.15284997 25.6910593,4.74130683 25.367148,5.12785111 C25.0432367,5.51394066 24.4819785,5.55214031 24.1129409,5.21266347 C23.9122591,5.02780433 23.7057195,4.84931185 23.4941901,4.6774133 C21.2244245,2.83609821 18.503396,1.86268874 15.6252934,1.86268874 C10.1819347,1.86268874 5.30569209,5.47414935 3.49152844,10.8496162 C3.36244124,11.2318403 3.019655,11.4705882 2.65365479,11.4705882 Z" id="Shape"></path>
                        <path d="M1.51760656,13.2352941 C1.36463242,13.2352941 1.21207971,13.1871763 1.07638365,13.0916888 C0.816791166,12.908941 0.656863642,12.5790975 0.65454585,12.2215799 L0.617671926,6.31319207 C0.614089879,5.74924189 0.997789455,5.29411765 1.47441137,5.29411765 C1.47651845,5.29411765 1.47862552,5.29411765 1.48094331,5.29411765 C1.95461529,5.29411765 2.34021127,5.73677618 2.34379331,6.29823317 L2.37013185,10.5235589 L5.52485477,8.53062949 C5.94500688,8.26535852 6.46798461,8.45189275 6.69238881,8.9500238 C6.91679301,9.44765624 6.75749764,10.0656064 6.33692409,10.3308775 L1.9236412,13.1154243 C1.79658417,13.1957037 1.65709539,13.2352941 1.51760656,13.2352941 Z" id="Shape"></path>
                    </g>
                    <g id="Group" transform="translate(15.000000, 23.382353) scale(-1, -1) translate(-15.000000, -23.382353) translate(0.000000, 16.764706)" fill-rule="nonzero">
                        <path d="M26.5024674,7.05882353 C26.2673047,7.05882353 26.0333884,6.96242407 25.8651182,6.7733488 L25.8046656,6.70591056 C25.4916,6.35692802 25.5217224,5.82135261 25.8719736,5.50939902 C26.2226404,5.19806605 26.7602739,5.22785472 27.0735473,5.57642351 L27.1389857,5.64965401 C27.4505972,5.99987775 27.4179818,6.53545316 27.0662764,6.8457518 C26.9044462,6.98848914 26.7029374,7.05882353 26.5024674,7.05882353 Z" id="Shape"></path>
                        <path d="M27.8259968,8.82352941 C27.5908341,8.82352941 27.3569178,8.72713386 27.1886476,8.53806625 L27.128195,8.47063074 C26.8151294,8.12166235 26.8452518,7.58610864 27.1955031,7.27416769 C27.5461698,6.96284734 28.0838033,6.99242794 28.3970767,7.34118947 L28.4625151,7.41441699 C28.7741266,7.76462654 28.7415112,8.30018025 28.3898058,8.61046631 C28.2279756,8.75319787 28.0264669,8.82352941 27.8259968,8.82352941 Z" id="Shape"></path>
                        <path d="M28.694323,10.7647167 C28.348404,10.7647167 28.021902,10.5619814 27.8887264,10.2304376 L27.8553797,10.1485244 C27.6791489,9.71786551 27.8961133,9.23027702 28.3397507,9.05928312 C28.7840213,8.88869881 29.286332,9.09880626 29.4623518,9.52926031 L29.4994975,9.62100313 C29.6729846,10.0524811 29.4530654,10.5388409 29.0081616,10.7071726 C28.9051668,10.7462861 28.7987952,10.7647167 28.694323,10.7647167 Z" id="Shape"></path>
                        <path d="M29.1354994,12.7941176 C28.7895804,12.7941176 28.4630785,12.5913824 28.3299029,12.2598386 L28.2965562,12.1779253 C28.1203253,11.7472665 28.3372898,11.259678 28.7809272,11.0886841 C29.2249868,10.9180998 29.7272974,11.1282073 29.9035283,11.5586613 L29.940674,11.6504041 C30.1141611,12.0818821 29.8942419,12.5682419 29.4493381,12.7365736 C29.3463433,12.7756871 29.2399716,12.7941176 29.1354994,12.7941176 Z" id="Shape"></path>
                        <path d="M2.65365479,11.4705882 C2.55537494,11.4705882 2.45535944,11.4533074 2.35729655,11.4171542 C1.89453514,11.245483 1.65219827,10.7134162 1.81578109,10.2284168 C3.8807427,4.11055748 9.43040847,0 15.6252934,0 C18.9006375,0 21.99808,1.10824522 24.5822109,3.20467956 C24.8230291,3.39999812 25.0577726,3.60304759 25.2862244,3.81337313 C25.6548281,4.15284997 25.6910593,4.74130683 25.367148,5.12785111 C25.0432367,5.51394066 24.4819785,5.55214031 24.1129409,5.21266347 C23.9122591,5.02780433 23.7057195,4.84931185 23.4941901,4.6774133 C21.2244245,2.83609821 18.503396,1.86268874 15.6252934,1.86268874 C10.1819347,1.86268874 5.30569209,5.47414935 3.49152844,10.8496162 C3.36244124,11.2318403 3.019655,11.4705882 2.65365479,11.4705882 Z" id="Shape"></path>
                        <path d="M1.51760656,13.2352941 C1.36463242,13.2352941 1.21207971,13.1871763 1.07638365,13.0916888 C0.816791166,12.908941 0.656863642,12.5790975 0.65454585,12.2215799 L0.617671926,6.31319207 C0.614089879,5.74924189 0.997789455,5.29411765 1.47441137,5.29411765 C1.47651845,5.29411765 1.47862552,5.29411765 1.48094331,5.29411765 C1.95461529,5.29411765 2.34021127,5.73677618 2.34379331,6.29823317 L2.37013185,10.5235589 L5.52485477,8.53062949 C5.94500688,8.26535852 6.46798461,8.45189275 6.69238881,8.9500238 C6.91679301,9.44765624 6.75749764,10.0656064 6.33692409,10.3308775 L1.9236412,13.1154243 C1.79658417,13.1957037 1.65709539,13.2352941 1.51760656,13.2352941 Z" id="Shape"></path>
                    </g>
                </g>
            </g>
        </g>
    </g>
</svg>