<?xml version="1.0" encoding="UTF-8"?>
<svg width="10px" height="10px" viewBox="0 0 10 10" version="1.1" xmlns="http://www.w3.org/2000/svg" xmlns:xlink="http://www.w3.org/1999/xlink">
    <!-- Generator: Sketch 51.3 (57544) - http://www.bohemiancoding.com/sketch -->
    <title>Pickup</title>
    <desc>Created with Sketch.</desc>
    <defs></defs>
    <g id="Symbols" stroke="none" stroke-width="1" fill="none" fill-rule="evenodd">
        <g id="Pin_Pickup_Orange" transform="translate(-5.000000, -5.000000)" fill="#FFFFFF">
            <g id="Pickup-Pin-Copy-3">
                <path d="M13.8403406,10.4538447 C13.738977,10.5524932 13.615893,10.598294 13.471088,10.5912478 C13.326283,10.5842016 13.203199,10.5313542 13.1018354,10.4327058 L10.6039505,7.89603382 L10.6039505,13.9629076 C10.6039505,14.1038339 10.5532689,14.223621 10.4519054,14.3222694 C10.3505418,14.4209179 10.2274578,14.470242 10.0826528,14.470242 L9.38758917,14.470242 C9.24278414,14.470242 9.11970017,14.4209179 9.01833662,14.3222694 C8.91697306,14.223621 8.86629145,14.1038339 8.86629145,13.9629076 L8.86629145,7.89603382 L6.36840652,10.4327058 C6.26704297,10.5313542 6.143959,10.5842016 5.99915397,10.5912478 C5.85434894,10.598294 5.73126497,10.5524932 5.62990142,10.4538447 L5.15204517,9.96764925 C5.05068161,9.86900079 5,9.74921371 5,9.60828739 C5,9.46736106 5.05068161,9.34757399 5.15204517,9.24892553 L9.36586843,5.14797253 C9.46723199,5.04932407 9.59031595,5 9.73512099,5 C9.87992602,5 10.00301,5.04932407 10.1043735,5.14797253 L14.3181968,9.24892553 C14.4195604,9.34757399 14.470242,9.46736106 14.470242,9.60828739 C14.470242,9.74921371 14.4195604,9.86900079 14.3181968,9.96764925 L13.8403406,10.4538447 Z" id="Pickup"></path>
            </g>
        </g>
    </g>
</svg>