<svg id="RGB_1C" data-name="RGB 1C" xmlns="http://www.w3.org/2000/svg" viewBox="0 0 444.32 87.98"><title>EPS_MA_Logo_WEB 1C_Stack</title><polygon points="53.48 52.85 42.68 52.85 67.21 20.2 67.21 34.27 53.48 52.85 53.48 52.85" fill="#071d49"/><polygon points="67.21 52.85 56.19 52.85 67.21 38.66 67.21 52.85 67.21 52.85" fill="#071d49"/><polygon points="39.29 52.85 28.49 52.85 67.21 1.06 67.21 15.13 39.29 52.85 39.29 52.85" fill="#071d49"/><polygon points="25 52.85 14.19 52.85 38.73 20.2 38.73 34.27 25 52.85 25 52.85" fill="#071d49"/><polygon points="10.81 52.85 0 52.85 38.73 1.06 38.73 15.13 10.81 52.85 10.81 52.85" fill="#071d49"/><polygon points="86.15 0 100.49 0 114.61 37.03 128.87 0 143.06 0 143.06 52.85 134.09 52.85 134.09 8.95 133.94 8.95 117.89 52.85 111.31 52.85 95.27 8.95 95.11 8.95 95.11 52.85 86.15 52.85 86.15 0 86.15 0" fill="#071d49"/><path d="M220.31,91.06h-1.87c-4.93,0-13.44.37-13.44,5.52,0,3.29,3.36,4.7,6.27,4.7,6.13,0,9-3.19,9-8.21v-2Zm.52,11.12h-.22c-2.54,4-6.72,5.83-11.5,5.83-6.64,0-13.07-3.66-13.07-10.74,0-11.66,13.59-12.48,22.55-12.48h2.24v-1c0-4.41-3.43-6.73-8.21-6.73a14.1,14.1,0,0,0-9.56,3.74l-4.7-4.7c3.95-4,9.55-5.75,15.23-5.75,15.31,0,15.31,11.05,15.31,16.12v20.61h-8.07v-4.93Z" transform="translate(-46.76 -54.25)" fill="#071d49"/><path d="M237.22,71.27h8.52V77h.14c1.64-3.57,5-6.63,11-6.63,9.63,0,13.07,6.8,13.07,14.11v22.62h-9V89c0-3.95-.29-10.52-6.56-10.52-5.89,0-8.21,4.34-8.21,9.1v19.57h-9V71.27Z" transform="translate(-46.76 -54.25)" fill="#071d49"/><path d="M287.42,76.27h.15c1.42-3,5-5.89,10.53-5.89,9.63,0,13.06,6.8,13.06,14.11v22.62h-9V89c0-3.95-.31-10.52-6.58-10.52-5.9,0-8.21,4.34-8.21,9.1v19.57h-9V54.25h9v22Z" transform="translate(-46.76 -54.25)" fill="#071d49"/><path d="M341.75,91.06h-1.86c-4.93,0-13.44.37-13.44,5.52,0,3.29,3.36,4.7,6.27,4.7,6.12,0,9-3.19,9-8.21v-2Zm.53,11.12h-.22c-2.54,4-6.73,5.83-11.51,5.83-6.64,0-13.06-3.66-13.06-10.74,0-11.66,13.59-12.48,22.55-12.48h2.24v-1c0-4.41-3.44-6.73-8.21-6.73a14.12,14.12,0,0,0-9.57,3.74l-4.69-4.7c3.95-4,9.55-5.75,15.22-5.75,15.31,0,15.31,11.05,15.31,16.12v20.61h-8.06v-4.93Z" transform="translate(-46.76 -54.25)" fill="#071d49"/><path d="M355.74,78.89l12.8-18V71.27h11.18l-5.43,7.62h-5.75V94.57c0,3.58,1,5.83,5,5.83a9.19,9.19,0,0,0,4.85-1.13v7.55A19,19,0,0,1,371.3,108c-9.48,0-11.72-4.26-11.72-12.69V78.89Z" transform="translate(-46.76 -54.25)" fill="#071d49"/><path d="M379.19,78.89l12.85-18V71.27h9.85v7.62H392V94.57c0,3.58,1,5.83,5,5.83a9.24,9.24,0,0,0,4.85-1.13v7.55A19,19,0,0,1,394.8,108c-9.48,0-11.73-4.26-11.73-12.69V78.89Z" transform="translate(-46.76 -54.25)" fill="#071d49"/><path d="M430.57,91.06h-1.86c-4.93,0-13.45.37-13.45,5.52,0,3.29,3.36,4.7,6.28,4.7,6.12,0,9-3.19,9-8.21v-2Zm.52,11.12h-.22c-2.54,4-6.72,5.83-11.5,5.83-6.64,0-13.07-3.66-13.07-10.74,0-11.66,13.6-12.48,22.55-12.48h2.24v-1c0-4.41-3.43-6.73-8.21-6.73a14.16,14.16,0,0,0-9.57,3.74l-4.69-4.7c4-4,9.56-5.75,15.23-5.75,15.31,0,15.31,11.05,15.31,16.12v20.61h-8.07v-4.93Z" transform="translate(-46.76 -54.25)" fill="#071d49"/><path d="M447,71.27h8.5V77h.16c1.64-3.57,5-6.63,11-6.63,9.63,0,13.07,6.8,13.07,14.11v22.62h-9V89c0-3.95-.29-10.52-6.57-10.52-5.9,0-8.21,4.34-8.21,9.1v19.57h-9V71.27Z" transform="translate(-46.76 -54.25)" fill="#071d49"/><path d="M327.27,119.91h-.08L322,132.32h10.31l-5-12.41Zm-1.36-3.86h2.83l10.73,25.25H336l-2.56-6.2H320.78l-2.61,6.2h-3.39l11.13-25.25Z" transform="translate(-46.76 -54.25)" fill="#071d49"/><path d="M342.68,136.92a5.14,5.14,0,0,0,4.28,2.24c1.75,0,3.67-.73,3.67-2.56s-1.78-2.24-3.57-2.64c-3.17-.71-5.88-1.4-5.88-4.86,0-3.23,3.14-4.92,6.24-4.92a6.1,6.1,0,0,1,5.68,3l-2.33,1.53a4,4,0,0,0-3.53-2c-1.53,0-3.28.75-3.28,2.31,0,1.39,2,2,4.21,2.43,3,.56,5.46,1.64,5.46,5,0,3.78-3.35,5.24-6.67,5.24-2.82,0-4.86-.75-6.5-3.1l2.22-1.71Z" transform="translate(-46.76 -54.25)" fill="#071d49"/><path d="M357.87,136.92a5.18,5.18,0,0,0,4.29,2.24c1.74,0,3.66-.73,3.66-2.56s-1.78-2.24-3.56-2.64c-3.17-.71-5.88-1.4-5.88-4.86,0-3.23,3.13-4.92,6.23-4.92a6.08,6.08,0,0,1,5.68,3L366,128.75a4,4,0,0,0-3.54-2c-1.52,0-3.27.75-3.27,2.31,0,1.39,2,2,4.21,2.43,2.95.56,5.46,1.64,5.46,5,0,3.78-3.35,5.24-6.67,5.24-2.83,0-4.85-.75-6.51-3.1l2.22-1.71Z" transform="translate(-46.76 -54.25)" fill="#071d49"/><path d="M380.67,139.16c3.6,0,5.92-2.71,5.92-6.21s-2.32-6.19-5.92-6.19-5.92,2.7-5.92,6.19,2.32,6.21,5.92,6.21Zm0-15c5.13,0,8.91,3.56,8.91,8.77a8.92,8.92,0,0,1-17.83,0c0-5.21,3.78-8.77,8.92-8.77Z" transform="translate(-46.76 -54.25)" fill="#071d49"/><path d="M405.78,128.78a5.09,5.09,0,0,0-4.2-2c-3.75,0-5.64,2.78-5.64,6.19s2.24,6.21,5.64,6.21a4.85,4.85,0,0,0,4.23-2.07l2.07,2a8.11,8.11,0,0,1-6.3,2.67c-5.19,0-8.64-3.63-8.64-8.78s3.49-8.77,8.64-8.77a8.5,8.5,0,0,1,6.41,2.64l-2.21,2Z" transform="translate(-46.76 -54.25)" fill="#071d49"/><path d="M411.34,124.61h2.79V141.3h-2.79V124.61Zm1.39-8.56a2,2,0,0,1,2,2,2,2,0,1,1-4.08,0,2,2,0,0,1,2-2Z" transform="translate(-46.76 -54.25)" fill="#071d49"/><path d="M426.78,133.28c-3.53,0-5.81,1-5.81,3.21s1.57,2.88,3.67,2.88c3.21,0,4.86-2.31,4.93-5v-1.08Zm-8-6.52a9.26,9.26,0,0,1,6.62-2.58c4.93,0,7,2.36,7,7.07v7.18a18.8,18.8,0,0,0,.25,2.87h-2.68a11.79,11.79,0,0,1-.18-2.5h-.06a6.35,6.35,0,0,1-5.5,2.93c-3.38,0-6.21-1.7-6.21-4.95,0-5.53,6.42-5.86,10.52-5.86h1.08v-.5c0-2.41-1.54-3.66-4.14-3.66a7.35,7.35,0,0,0-5,1.81l-1.74-1.81Z" transform="translate(-46.76 -54.25)" fill="#071d49"/><path d="M445.13,127H440.2v8.35c0,2.14,0,3.85,2.5,3.85a5.54,5.54,0,0,0,2.46-.56l.11,2.53a8.39,8.39,0,0,1-3.24.6c-4,0-4.6-2.14-4.6-5.6V127h-2.29l5.06-7.1v4.75h4.93V127Z" transform="translate(-46.76 -54.25)" fill="#071d49"/><path d="M461.07,131.46c-.1-2.82-1.95-4.7-5-4.7a5.15,5.15,0,0,0-5.45,4.7Zm2.39,6.82a8.54,8.54,0,0,1-7.42,3.45c-5.23,0-8.45-3.92-8.45-8.78a8.36,8.36,0,0,1,8.56-8.77c4.71,0,7.92,3.22,7.92,8.74v.9H450.59a5.58,5.58,0,0,0,5.45,5.34,6.22,6.22,0,0,0,5.32-2.53l2.1,1.65Z" transform="translate(-46.76 -54.25)" fill="#071d49"/><path d="M468.74,136.92a5.17,5.17,0,0,0,4.29,2.24c1.74,0,3.67-.73,3.67-2.56s-1.78-2.24-3.56-2.64c-3.18-.71-5.89-1.4-5.89-4.86,0-3.23,3.14-4.92,6.24-4.92a6.07,6.07,0,0,1,5.67,3l-2.31,1.53a4,4,0,0,0-3.54-2c-1.53,0-3.28.75-3.28,2.31,0,1.39,2,2,4.21,2.43,3,.56,5.46,1.64,5.46,5,0,3.78-3.36,5.24-6.67,5.24-2.83,0-4.85-.75-6.5-3.1l2.21-1.71Z" transform="translate(-46.76 -54.25)" fill="#071d49"/><path d="M485.68,137.75h.91a1.45,1.45,0,0,0,.89-.2.63.63,0,0,0,.25-.51.65.65,0,0,0-.12-.37.83.83,0,0,0-.32-.26,3.2,3.2,0,0,0-.75-.06h-.86v1.4Zm-.75,2.57v-4.58h1.59a4.42,4.42,0,0,1,1.16.11,1.14,1.14,0,0,1,.58.45,1.13,1.13,0,0,1,.23.66,1.22,1.22,0,0,1-.37.88,1.39,1.39,0,0,1-.94.44,1.3,1.3,0,0,1,.37.23,7,7,0,0,1,.69.91l.56.9h-.89l-.42-.73a3.86,3.86,0,0,0-.78-1.07,1.21,1.21,0,0,0-.6-.14h-.43v1.94Zm1.88-5.92a3.53,3.53,0,0,0-1.75.46,3.25,3.25,0,0,0-1.34,1.31,3.55,3.55,0,0,0-.48,1.78,3.45,3.45,0,0,0,.48,1.76A3.23,3.23,0,0,0,485,141a3.59,3.59,0,0,0,3.55,0,3.23,3.23,0,0,0,1.31-1.33,3.45,3.45,0,0,0,.48-1.76,3.55,3.55,0,0,0-.48-1.78,3.19,3.19,0,0,0-1.34-1.31,3.46,3.46,0,0,0-1.74-.46Zm0-.7a4.26,4.26,0,0,1,2.1.53,3.84,3.84,0,0,1,1.59,1.58,4.28,4.28,0,0,1,.58,2.14,4.19,4.19,0,0,1-.56,2.13,3.9,3.9,0,0,1-1.59,1.58,4.38,4.38,0,0,1-2.12.57,4.44,4.44,0,0,1-2.13-.57,3.9,3.9,0,0,1-1.59-1.58,4.25,4.25,0,0,1,0-4.27,4.12,4.12,0,0,1,1.6-1.58,4.4,4.4,0,0,1,2.11-.53Z" transform="translate(-46.76 -54.25)" fill="#071d49"/></svg>