<?xml version="1.0" encoding="UTF-8"?>
<svg width="27px" height="27px" viewBox="0 0 27 27" version="1.1" xmlns="http://www.w3.org/2000/svg" xmlns:xlink="http://www.w3.org/1999/xlink">
    <!-- Generator: sketchtool 49.3 (51167) - http://www.bohemiancoding.com/sketch -->
    <title>0CD4819D-D0B4-4F1F-AC98-9BFF4AF23E5A</title>
    <desc>Created with sketchtool.</desc>
    <defs></defs>
    <g id="Symbols" stroke="none" stroke-width="1" fill="none" fill-rule="evenodd">
        <g id="Error-Toast" transform="translate(-14.000000, -17.000000)">
            <g id="Group-2">
                <g id="Group-12" transform="translate(15.000000, 18.000000)">
                    <circle id="Oval-3" stroke="#EC4C4C" stroke-width="2" cx="12.5" cy="12.5" r="12.5"></circle>
                    <path d="M13.3944272,6.28885438 L18.5263932,16.5527864 C18.7733825,17.0467649 18.5731581,17.6474379 18.0791796,17.8944272 C17.9403242,17.9638549 17.7872111,18 17.631966,18 L7.36803399,18 C6.81574924,18 6.36803399,17.5522847 6.36803399,17 C6.36803399,16.8447549 6.40417908,16.6916418 6.4736068,16.5527864 L11.6055728,6.28885438 C11.8525621,5.79487588 12.4532351,5.59465154 12.9472136,5.84164079 C13.140741,5.93840449 13.2976635,6.09532698 13.3944272,6.28885438 Z M11.9188571,14.7908571 L11.9188571,16.2 L13.2868571,16.2 L13.2868571,14.7908571 L11.9188571,14.7908571 Z M11.8674286,9.36 L12.2582857,13.9268571 L12.9474286,13.9268571 L13.328,9.36 L13.328,9 L11.8674286,9 L11.8674286,9.36 Z" id="Combined-Shape-Copy-2" fill="#EC4C4C"></path>
                </g>
            </g>
        </g>
    </g>
</svg>