<?xml version="1.0" encoding="utf-8"?>
<!-- Generator: Adobe Illustrator 23.0.2, SVG Export Plug-In . SVG Version: 6.00 Build 0)  -->
<svg version="1.1" id="RGB_1C" xmlns="http://www.w3.org/2000/svg" xmlns:xlink="http://www.w3.org/1999/xlink" x="0px" y="0px"
	 viewBox="0 0 452.21 98.39" style="enable-background:new 0 0 452.21 98.39;" xml:space="preserve">
<style type="text/css">
	.st0{fill:#FFFFFF;}
</style>
<g>
	<polygon class="st0" points="58.07,58.74 47.27,58.74 71.8,26.09 71.8,40.15 58.07,58.74 	"/>
	<polygon class="st0" points="71.8,58.74 60.77,58.74 71.8,44.55 71.8,58.74 	"/>
	<polygon class="st0" points="43.88,58.74 33.08,58.74 71.8,6.94 71.8,21.02 43.88,58.74 	"/>
	<polygon class="st0" points="29.59,58.74 18.78,58.74 43.33,26.09 43.33,40.15 29.59,58.74 	"/>
	<polygon class="st0" points="15.4,58.74 4.59,58.74 43.33,6.94 43.33,21.02 15.4,58.74 	"/>
	<polygon class="st0" points="90.74,5.89 105.08,5.89 119.2,42.92 133.45,5.89 147.65,5.89 147.65,58.74 138.68,58.74 138.68,14.84 
		138.53,14.84 122.48,58.74 115.9,58.74 99.86,14.84 99.7,14.84 99.7,58.74 90.74,58.74 90.74,5.89 	"/>
	<path class="st0" d="M178.14,42.69h-1.87c-4.93,0-13.44,0.38-13.44,5.53c0,3.29,3.36,4.7,6.27,4.7c6.12,0,9.04-3.2,9.04-8.21V42.69
		L178.14,42.69z M178.66,53.82h-0.22c-2.54,4.03-6.72,5.82-11.5,5.82c-6.65,0-13.07-3.65-13.07-10.74
		c0-11.66,13.59-12.48,22.55-12.48h2.24v-0.97c0-4.4-3.43-6.73-8.21-6.73c-3.74,0-7.17,1.5-9.56,3.74l-4.7-4.7
		c3.95-4.03,9.55-5.75,15.22-5.75c15.31,0,15.31,11.05,15.31,16.12v20.61h-8.07V53.82L178.66,53.82z"/>
	<path class="st0" d="M195.05,22.91h8.52v5.74h0.15c1.64-3.58,5-6.64,10.98-6.64c9.63,0,13.07,6.8,13.07,14.11v22.62h-8.96V40.6
		c0-3.96-0.29-10.53-6.57-10.53c-5.89,0-8.21,4.34-8.21,9.11v19.56h-8.97V22.91L195.05,22.91z"/>
	<path class="st0" d="M245.24,27.91h0.15c1.42-2.98,5-5.9,10.53-5.9c9.63,0,13.06,6.8,13.06,14.11v22.62h-8.95V40.6
		c0-3.96-0.31-10.53-6.57-10.53c-5.9,0-8.22,4.34-8.22,9.11v19.56h-8.96V5.89h8.96V27.91L245.24,27.91z"/>
	<path class="st0" d="M299.58,42.69h-1.86c-4.93,0-13.44,0.38-13.44,5.53c0,3.29,3.36,4.7,6.27,4.7c6.12,0,9.03-3.2,9.03-8.21V42.69
		L299.58,42.69z M300.11,53.82h-0.23c-2.54,4.03-6.72,5.82-11.5,5.82c-6.64,0-13.06-3.65-13.06-10.74
		c0-11.66,13.59-12.48,22.55-12.48h2.25v-0.97c0-4.4-3.44-6.73-8.21-6.73c-3.74,0-7.18,1.5-9.57,3.74l-4.69-4.7
		c3.95-4.03,9.55-5.75,15.22-5.75c15.31,0,15.31,11.05,15.31,16.12v20.61h-8.06V53.82L300.11,53.82z"/>
	<path class="st0" d="M313.57,30.52l12.8-18v10.38h11.18l-5.43,7.62h-5.75V46.2c0,3.58,1.04,5.83,5,5.83c1.58,0,3.74-0.3,4.85-1.13
		v7.55c-1.87,0.89-5,1.18-7.09,1.18c-9.48,0-11.72-4.26-11.72-12.69V30.52H313.57L313.57,30.52z"/>
	<path class="st0" d="M337.01,30.52l12.85-18v10.38h9.85v7.62h-9.85V46.2c0,3.58,1.04,5.83,5,5.83c1.57,0,3.74-0.3,4.85-1.13v7.55
		c-1.86,0.89-5,1.18-7.09,1.18c-9.49,0-11.74-4.26-11.74-12.69V30.52H337.01L337.01,30.52z"/>
	<path class="st0" d="M388.4,42.69h-1.87c-4.93,0-13.44,0.38-13.44,5.53c0,3.29,3.35,4.7,6.27,4.7c6.12,0,9.04-3.2,9.04-8.21V42.69
		L388.4,42.69z M388.92,53.82h-0.22c-2.55,4.03-6.72,5.82-11.5,5.82c-6.64,0-13.07-3.65-13.07-10.74
		c0-11.66,13.59-12.48,22.55-12.48h2.24v-0.97c0-4.4-3.43-6.73-8.21-6.73c-3.73,0-7.17,1.5-9.57,3.74l-4.7-4.7
		c3.96-4.03,9.56-5.75,15.24-5.75c15.3,0,15.3,11.05,15.3,16.12v20.61h-8.06V53.82L388.92,53.82z"/>
	<path class="st0" d="M404.82,22.91h8.51v5.74h0.15c1.64-3.58,5-6.64,10.98-6.64c9.63,0,13.07,6.8,13.07,14.11v22.62h-8.97V40.6
		c0-3.96-0.29-10.53-6.57-10.53c-5.9,0-8.22,4.34-8.22,9.11v19.56h-8.96V22.91L404.82,22.91z"/>
	<path class="st0" d="M285.09,71.54h-0.07l-5.24,12.42h10.31L285.09,71.54L285.09,71.54z M283.74,67.69h2.82l10.73,25.25h-3.5
		l-2.56-6.2H278.6l-2.6,6.2h-3.39L283.74,67.69L283.74,67.69z"/>
	<path class="st0" d="M300.51,88.55c1.1,1.36,2.31,2.24,4.27,2.24c1.75,0,3.68-0.73,3.68-2.56c0-1.79-1.79-2.24-3.57-2.64
		c-3.17-0.71-5.88-1.39-5.88-4.85c0-3.24,3.14-4.92,6.24-4.92c2.35,0,4.53,0.9,5.68,3.04l-2.33,1.53c-0.71-1.18-1.89-2-3.53-2
		c-1.53,0-3.27,0.75-3.27,2.32c0,1.38,2,2.01,4.21,2.42c2.96,0.56,5.46,1.64,5.46,5c0,3.78-3.35,5.24-6.67,5.24
		c-2.82,0-4.85-0.75-6.49-3.1L300.51,88.55L300.51,88.55z"/>
	<path class="st0" d="M315.7,88.55c1.11,1.36,2.32,2.24,4.28,2.24c1.75,0,3.67-0.73,3.67-2.56c0-1.79-1.78-2.24-3.56-2.64
		c-3.17-0.71-5.89-1.39-5.89-4.85c0-3.24,3.14-4.92,6.24-4.92c2.36,0,4.54,0.9,5.67,3.04l-2.32,1.53c-0.72-1.18-1.89-2-3.54-2
		c-1.52,0-3.27,0.75-3.27,2.32c0,1.38,2,2.01,4.22,2.42c2.95,0.56,5.45,1.64,5.45,5c0,3.78-3.35,5.24-6.67,5.24
		c-2.82,0-4.85-0.75-6.5-3.1L315.7,88.55L315.7,88.55z"/>
	<path class="st0" d="M338.5,90.79c3.6,0,5.92-2.71,5.92-6.2c0-3.49-2.32-6.2-5.92-6.2c-3.61,0-5.93,2.71-5.93,6.2
		C332.57,88.08,334.89,90.79,338.5,90.79L338.5,90.79z M338.5,75.81c5.13,0,8.91,3.56,8.91,8.78c0,5.2-3.78,8.78-8.91,8.78
		c-5.14,0-8.92-3.58-8.92-8.78C329.57,79.37,333.36,75.81,338.5,75.81L338.5,75.81z"/>
	<path class="st0" d="M363.6,80.41c-1.17-1.43-2.52-2.02-4.2-2.02c-3.75,0-5.64,2.78-5.64,6.2c0,3.43,2.24,6.2,5.64,6.2
		c1.81,0,3.21-0.63,4.24-2.07l2.07,1.97c-1.61,1.85-3.89,2.67-6.31,2.67c-5.19,0-8.64-3.63-8.64-8.78c0-5.06,3.5-8.78,8.64-8.78
		c2.46,0,4.74,0.83,6.42,2.64L363.6,80.41L363.6,80.41z"/>
	<path class="st0" d="M369.17,76.24h2.79v16.69h-2.79V76.24L369.17,76.24z M370.56,67.69c1.14,0,2.04,0.92,2.04,2.02
		c0,1.18-0.87,2.04-2.04,2.04c-1.18,0-2.03-0.86-2.03-2.04C368.53,68.61,369.42,67.69,370.56,67.69L370.56,67.69z"/>
	<path class="st0" d="M384.61,84.91c-3.53,0-5.8,0.96-5.8,3.21c0,2.1,1.56,2.88,3.67,2.88c3.21,0,4.86-2.31,4.93-5.02v-1.08H384.61
		L384.61,84.91z M376.55,78.39c1.71-1.75,4.2-2.58,6.63-2.58c4.92,0,7,2.37,7,7.07v7.18c0,0.95,0.11,2.02,0.24,2.88h-2.67
		c-0.18-0.74-0.18-1.79-0.18-2.5h-0.07c-1.11,1.71-2.97,2.93-5.5,2.93c-3.38,0-6.21-1.71-6.21-4.95c0-5.53,6.42-5.86,10.52-5.86
		h1.08v-0.5c0-2.42-1.55-3.67-4.15-3.67c-1.79,0-3.64,0.59-4.96,1.82L376.55,78.39L376.55,78.39z"/>
	<path class="st0" d="M402.95,78.59h-4.92v8.35c0,2.14,0.04,3.85,2.5,3.85c0.82,0,1.71-0.18,2.46-0.56l0.11,2.54
		c-0.97,0.42-2.21,0.6-3.24,0.6c-3.96,0-4.6-2.14-4.6-5.6v-9.17h-2.29l5.06-7.1v4.75h4.92V78.59L402.95,78.59z"/>
	<path class="st0" d="M418.9,83.09c-0.1-2.82-1.96-4.71-5.03-4.71c-3.07,0-5.1,1.89-5.46,4.71H418.9L418.9,83.09z M421.29,89.91
		c-1.96,2.53-4.32,3.45-7.42,3.45c-5.24,0-8.46-3.92-8.46-8.78c0-5.17,3.64-8.78,8.56-8.78c4.71,0,7.93,3.22,7.93,8.74v0.89h-13.49
		c0.22,2.89,2.43,5.34,5.46,5.34c2.39,0,4-0.85,5.31-2.53L421.29,89.91L421.29,89.91z"/>
	<path class="st0" d="M426.56,88.55c1.11,1.36,2.33,2.24,4.29,2.24c1.75,0,3.67-0.73,3.67-2.56c0-1.79-1.78-2.24-3.56-2.64
		c-3.18-0.71-5.89-1.39-5.89-4.85c0-3.24,3.14-4.92,6.24-4.92c2.36,0,4.54,0.9,5.67,3.04l-2.32,1.53c-0.72-1.18-1.89-2-3.53-2
		c-1.53,0-3.29,0.75-3.29,2.32c0,1.38,2,2.01,4.21,2.42c2.96,0.56,5.46,1.64,5.46,5c0,3.78-3.36,5.24-6.67,5.24
		c-2.82,0-4.85-0.75-6.5-3.1L426.56,88.55L426.56,88.55z"/>
	<path class="st0" d="M443.5,89.38h0.92c0.42,0,0.74-0.07,0.89-0.2c0.16-0.13,0.25-0.3,0.25-0.51c0-0.15-0.05-0.26-0.12-0.37
		c-0.07-0.1-0.19-0.2-0.32-0.26c-0.15-0.04-0.4-0.06-0.76-0.06h-0.86V89.38L443.5,89.38z M442.75,91.96v-4.59h1.59
		c0.53,0,0.94,0.04,1.17,0.11c0.25,0.1,0.43,0.24,0.58,0.45c0.15,0.21,0.23,0.43,0.23,0.67c0,0.33-0.13,0.64-0.37,0.87
		c-0.24,0.26-0.56,0.41-0.94,0.44c0.16,0.06,0.28,0.15,0.37,0.23c0.18,0.2,0.42,0.5,0.69,0.92l0.57,0.9h-0.9l-0.42-0.73
		c-0.31-0.56-0.59-0.92-0.78-1.07c-0.15-0.09-0.34-0.15-0.6-0.15h-0.43v1.95H442.75L442.75,91.96z M444.64,86.03
		c-0.59,0-1.18,0.15-1.75,0.46c-0.57,0.3-1.02,0.74-1.34,1.31c-0.32,0.56-0.48,1.17-0.48,1.79c0,0.61,0.16,1.2,0.48,1.76
		c0.31,0.57,0.74,1.01,1.31,1.32c0.57,0.3,1.17,0.47,1.78,0.47c0.61,0,1.21-0.17,1.77-0.47c0.57-0.31,1-0.75,1.31-1.32
		c0.32-0.56,0.48-1.15,0.48-1.76c0-0.62-0.16-1.22-0.48-1.79c-0.33-0.57-0.76-1-1.35-1.31C445.82,86.18,445.22,86.03,444.64,86.03
		L444.64,86.03z M444.64,85.33c0.72,0,1.43,0.16,2.1,0.54c0.68,0.37,1.22,0.9,1.59,1.58c0.38,0.69,0.58,1.4,0.58,2.14
		c0,0.74-0.18,1.44-0.56,2.12c-0.38,0.69-0.91,1.21-1.59,1.59c-0.68,0.37-1.38,0.57-2.12,0.57c-0.73,0-1.45-0.2-2.13-0.57
		c-0.68-0.38-1.21-0.9-1.59-1.59c-0.38-0.68-0.57-1.38-0.57-2.12c0-0.75,0.19-1.45,0.58-2.14c0.39-0.68,0.92-1.21,1.59-1.58
		C443.22,85.49,443.92,85.33,444.64,85.33L444.64,85.33z"/>
</g>
</svg>
