<?xml version="1.0" encoding="utf-8"?>
<!-- Generator: Adobe Illustrator 23.0.2, SVG Export Plug-In . SVG Version: 6.00 Build 0)  -->
<svg version="1.1" id="Layer_1" xmlns="http://www.w3.org/2000/svg" xmlns:xlink="http://www.w3.org/1999/xlink" x="0px" y="0px"
	 viewBox="0 0 298.08 118.2" style="enable-background:new 0 0 298.08 118.2;" xml:space="preserve">
<style type="text/css">
	.st0{fill:#FFFFFF;}
	.st1{font-family:'Avenir-Black';}
	.st2{font-size:27.7107px;}
	.st3{letter-spacing:-1;}
	.st4{font-size:101.0352px;}
	.st5{font-family:'Avenir-Light';}
	.st6{font-size:9px;}
</style>
<g>
	<text transform="matrix(1 0 0 1 6.103516e-05 23.665)" class="st0 st1 st2">M</text>
	<text transform="matrix(1 0 0 1 25.9101 23.665)" class="st0 st1 st2">A</text>
	<text transform="matrix(1 0 0 1 46.1701 23.665)" class="st0 st1 st2">NH</text>
	<text transform="matrix(1 0 0 1 89.2801 23.665)" class="st0 st1 st2 st3">A</text>
	<text transform="matrix(1 0 0 1 107.0201 23.665)" class="st0 st1 st2">T</text>
	<text transform="matrix(1 0 0 1 122.6701 23.665)" class="st0 st1 st2 st3">T</text>
	<text transform="matrix(1 0 0 1 135.7801 23.665)" class="st0 st1 st2">A</text>
	<text transform="matrix(1 0 0 1 156.0401 23.665)" class="st0 st1 st2">N </text>
	<text transform="matrix(1 0 0 1 186.3201 23.665)" class="st0 st1 st2">AC</text>
	<text transform="matrix(1 0 0 1 225.2901 23.665)" class="st0 st1 st2">TIV</text>
	<text transform="matrix(1 0 0 1 268.1501 23.665)" class="st0 st1 st2">E</text>
	<text transform="matrix(1 0 0 1 0 112.79)" class="st0 st1 st4">OMNI</text>
</g>
<text transform="matrix(1 0 0 1 285.9902 10.5186)" class="st0 st5 st6">™</text>
<text transform="matrix(1 0 0 1 1049.1804 10.5185)" class="st5 st6" style="fill:#F05332;">™</text>
</svg>
