<?xml version="1.0" encoding="UTF-8"?>
<svg width="11px" height="9px" viewBox="0 0 11 9" version="1.1" xmlns="http://www.w3.org/2000/svg" xmlns:xlink="http://www.w3.org/1999/xlink">
    <!-- Generator: Sketch 51.3 (57544) - http://www.bohemiancoding.com/sketch -->
    <title>Origin</title>
    <desc>Created with Sketch.</desc>
    <defs></defs>
    <g id="Symbols" stroke="none" stroke-width="1" fill="none" fill-rule="evenodd">
        <g id="Pin_Order-Origin_Purple" transform="translate(-4.000000, -6.000000)" fill="#FFFFFF">
            <g id="Origin-Pin">
                <path d="M13.3251366,14.0714286 C13.3251366,14.1904763 13.2805101,14.2916666 13.1912569,14.375 C13.1020036,14.4583334 12.9936249,14.5 12.8661202,14.5 L10.647541,14.5 C10.5837888,14.5 10.5295992,14.4791666 10.4849727,14.4375 C10.4403462,14.3958334 10.4180328,14.345238 10.4180328,14.2857143 L10.4180328,12.2857143 C10.4180328,12.2261906 10.3957194,12.1755951 10.3510929,12.1339286 C10.3064664,12.092262 10.2522768,12.0714286 10.1885246,12.0714286 L8.81147541,12.0714286 C8.74772323,12.0714286 8.6935336,12.092262 8.6489071,12.1339286 C8.6042806,12.1755951 8.58196721,12.2261906 8.58196721,12.2857143 L8.58196721,14.2857143 C8.58196721,14.345238 8.55965381,14.3958334 8.51502732,14.4375 C8.47040082,14.4791666 8.41621119,14.5 8.35245901,14.5 L6.13387976,14.5 C6.00637511,14.5 5.89799643,14.4583334 5.80874315,14.375 C5.71948986,14.2916666 5.67486337,14.1904763 5.67486337,14.0714286 L5.67486337,11.5178571 C5.67486337,11.4464286 5.70036418,11.3869049 5.7513661,11.3392857 L9.34699453,8.58928571 C9.39799645,8.55357143 9.44899808,8.53571429 9.5,8.53571429 C9.55100192,8.53571429 9.60200355,8.55357143 9.65300547,8.58928571 L13.2486339,11.3392857 C13.2996358,11.3869049 13.3251366,11.4464286 13.3251366,11.5178571 L13.3251366,14.0714286 Z M14.931694,10.4285714 C14.9699454,10.4642857 14.9922588,10.5119049 14.9986339,10.5714286 C15.005009,10.6309523 14.9890711,10.6845237 14.9508197,10.7321429 L14.4726776,11.2857143 C14.4344263,11.3333334 14.3834243,11.3571429 14.3196722,11.3571429 C14.25592,11.3571429 14.1985429,11.3392857 14.147541,11.3035714 L9.65300547,7.85714286 C9.60200355,7.82142857 9.55100192,7.80357143 9.5,7.80357143 C9.44899808,7.80357143 9.39799645,7.82142857 9.34699453,7.85714286 L4.85245899,11.3035714 C4.80145707,11.3392857 4.74408002,11.3571429 4.68032784,11.3571429 C4.61657566,11.3571429 4.56557374,11.3333334 4.52732238,11.2857143 L4.0491803,10.7321429 C4.01092893,10.6845237 3.99499096,10.6309523 4.00136609,10.5714286 C4.00774122,10.5119049 4.03005461,10.4642857 4.06830598,10.4285714 L8.92622951,6.69642857 C9.09198552,6.56547628 9.28324235,6.5 9.5,6.5 C9.71675765,6.5 9.9143899,6.56547628 10.0928962,6.69642857 L11.795082,8.01785714 L11.795082,6.71428571 C11.795082,6.654762 11.8173954,6.60416658 11.8620219,6.5625 C11.9066484,6.52083342 11.960838,6.5 12.0245902,6.5 L13.0956284,6.5 C13.1593806,6.5 13.2135702,6.52083342 13.2581967,6.5625 C13.3028232,6.60416658 13.3251366,6.654762 13.3251366,6.71428571 L13.3251366,9.19642857 L14.931694,10.4285714 Z" id="Origin"></path>
            </g>
        </g>
    </g>
</svg>