<?xml version="1.0" encoding="UTF-8"?>
<svg width="32px" height="31px" viewBox="0 0 32 31" version="1.1" xmlns="http://www.w3.org/2000/svg" xmlns:xlink="http://www.w3.org/1999/xlink">
    <!-- Generator: sketchtool 49.1 (51147) - http://www.bohemiancoding.com/sketch -->
    <title>4B71B876-5805-4A12-B4D0-89FAC1C750C8</title>
    <desc>Created with sketchtool.</desc>
    <defs></defs>
    <g id="Swipe-Menu-Buttons" stroke="none" stroke-width="1" fill="none" fill-rule="evenodd">
        <g transform="translate(-59.000000, -139.000000)" id="Reassign">
            <g transform="translate(59.000000, 139.000000)">
                <circle id="Oval" stroke="#FFFFFF" fill="#4F93E4" cx="22.5" cy="21.5" r="8.5"></circle>
                <path d="M11.4,21.2298417 C11.4,16.8681236 14.2476735,13.1394122 18.2275918,11.7045968 C18.7115102,10.6495855 19,9.48003014 19,8.30746044 C19,3.71966843 19,0 13.298449,0 C7.59689796,0 7.6,3.71665411 7.6,8.30444612 C7.6,11.1620196 9.30612245,14.0195931 11.4,15.1650339 L11.4,16.6872645 C4.95395918,17.1996986 0,20.2773173 0,24 L11.7939592,24 C11.5364898,23.1168048 11.4,22.1883949 11.4,21.2298417 Z" id="Shape" fill="#FFFFFF" fill-rule="nonzero"></path>
                <g id="Refresh" transform="translate(18.000000, 16.000000)" fill="#FFFFFF" stroke="#FFFFFF" stroke-width="0.5">
                    <path d="M7.05122959,1.851689 C6.43499178,1.53953196 5.7380372,1.36363636 5,1.36363636 C2.48961477,1.36363636 0.454545455,3.39870568 0.454545455,5.90909091 C0.454545455,6.76433082 0.690742457,7.56440396 1.10146295,8.24763682 L0.771114991,8.57798477 C0.282705017,7.80571615 0,6.89041818 0,5.90909091 C0,3.14766716 2.23857625,0.909090909 5,0.909090909 C5.77997605,0.909090909 6.5182391,1.08768551 7.17612635,1.4062119 L6.93735192,0.493992888 L7.33886319,0.338766914 L7.73141123,1.77345659 C7.74530702,1.81881372 7.74463013,1.86936283 7.72613106,1.91755455 C7.70763199,1.96574627 7.67431107,2.0037645 7.63416705,2.02922443 L6.33095991,2.71723179 L6.13644533,2.33321292 L7.05122959,1.851689 L7.05122959,1.851689 Z" id="Path"></path>
                    <path d="M2.63019406,9.78866462 C3.3202318,10.2110698 4.13168251,10.4545455 5,10.4545455 C7.51038523,10.4545455 9.54545455,8.41947614 9.54545455,5.90909091 C9.54545455,4.99482883 9.27553155,4.14361065 8.81102927,3.43078005 L9.13888478,3.10292454 C9.68239883,3.90300807 10,4.86895962 10,5.90909091 C10,8.67051466 7.76142375,10.9090909 5,10.9090909 C4.05343751,10.9090909 3.16830884,10.6460615 2.41371706,10.1891057 L2.580789,11.1697979 L2.16727675,11.2894392 L1.90126393,9.82599612 C1.89137415,9.77960049 1.89645411,9.72930274 1.91908297,9.6829067 C1.94171183,9.63651067 1.97821947,9.60154121 2.0204297,9.57967696 L3.37864154,9.00786966 L3.53894648,9.40738028 L2.63019406,9.78866462 L2.63019406,9.78866462 Z" id="Path"></path>
                </g>
            </g>
        </g>
    </g>
</svg>