<?xml version="1.0" encoding="UTF-8"?>
<svg width="11px" height="12px" viewBox="0 0 11 12" version="1.1" xmlns="http://www.w3.org/2000/svg" xmlns:xlink="http://www.w3.org/1999/xlink">
    <!-- Generator: Sketch 51.3 (57544) - http://www.bohemiancoding.com/sketch -->
    <title>Destination</title>
    <desc>Created with Sketch.</desc>
    <defs></defs>
    <g id="Symbols" stroke="none" stroke-width="1" fill="none" fill-rule="evenodd">
        <g id="Pin_Order-Destination_Magenta" transform="translate(-4.000000, -5.000000)" fill="#FFFFFF">
            <g id="Destination-Pin">
                <path d="M11.4642857,7.16196147 C12.1626984,7.16196147 13.0138889,6.92915712 14.0178571,6.46354877 C14.2361111,6.36169681 14.4543651,6.37624718 14.672619,6.50719956 C14.890873,6.63815194 15,6.83458052 15,7.09648528 L15,12.4000567 C15,12.6474111 14.898148,12.8365646 14.6944444,12.967517 C13.8359789,13.5640778 12.9484127,13.8623583 12.031746,13.8623583 C11.6825397,13.8623583 11.318783,13.8187075 10.9404762,13.7314059 C10.7222222,13.6877551 10.4093916,13.5931785 10.0019841,13.4476758 C9.65277778,13.3312737 9.39087302,13.2512472 9.21626984,13.2075964 C8.92526466,13.1348452 8.65608455,13.0984694 8.40873016,13.0984694 C7.50661387,13.0984694 6.67724879,13.2657976 5.92063492,13.6004535 L5.92063492,15.6520408 C5.92063492,15.7975436 5.86970911,15.9212206 5.76785714,16.0230726 C5.66600518,16.1249245 5.54232815,16.1758504 5.3968254,16.1758504 L5.04761905,16.1758504 C4.90211629,16.1758504 4.77843926,16.1249245 4.6765873,16.0230726 C4.57473534,15.9212206 4.52380952,15.7975436 4.52380952,15.6520408 L4.52380952,7.22743766 C4.36375672,7.11103565 4.23644169,6.9655329 4.14186508,6.79092972 C4.04728847,6.61632655 4,6.427173 4,6.2234694 C4,5.87426306 4.12367736,5.5796202 4.37103175,5.33954083 C4.61838613,5.09946147 4.91666667,4.98669681 5.26587302,5.00124718 C5.58597895,5.01579756 5.85879641,5.13219956 6.0843254,5.35045353 C6.30985439,5.5687075 6.42989407,5.83061226 6.44444444,6.13616782 C6.45899482,6.32532137 6.42989407,6.49992454 6.35714286,6.65997734 C6.83730159,6.48537417 7.33201069,6.39807258 7.84126984,6.39807258 C8.19047619,6.39807258 8.55423292,6.44172337 8.93253968,6.52902496 C9.15079365,6.58722613 9.46362423,6.68180274 9.87103175,6.81275512 C10.2202381,6.92915712 10.4821429,7.00918369 10.656746,7.05283448 C10.9477512,7.1255857 11.2169313,7.16196147 11.4642857,7.16196147 Z" id="Destination"></path>
            </g>
        </g>
    </g>
</svg>