<?xml version="1.0" encoding="UTF-8"?>
<svg width="34px" height="33px" viewBox="0 0 34 33" version="1.1" xmlns="http://www.w3.org/2000/svg" xmlns:xlink="http://www.w3.org/1999/xlink">
    <!-- Generator: sketchtool 49.3 (51167) - http://www.bohemiancoding.com/sketch -->
    <title>9A1A57E0-99FB-44F8-B728-021703F0DF78</title>
    <desc>Created with sketchtool.</desc>
    <defs></defs>
    <g id="Symbols" stroke="none" stroke-width="1" fill="none" fill-rule="evenodd">
        <g id="DO---status-rectangle---Swipe-Open" transform="translate(-689.000000, -20.000000)" fill="#FFFFFF">
            <g id="Swipe-Panel" transform="translate(528.000000, 0.000000)">
                <g id="Pickup">
                    <g id="Group-6">
                        <g id="Group-8" transform="translate(127.000000, 7.000000)">
                            <g id="Hold" transform="translate(34.000000, 13.000000)">
                                <path d="M32.3466667,16.5 C32.3466667,8.11631753 25.5503491,1.32 17.1666667,1.32 C8.78298419,1.32 1.98666667,8.11631753 1.98666667,16.5 C1.98666667,24.8836825 8.78298419,31.68 17.1666667,31.68 C25.5503491,31.68 32.3466667,24.8836825 32.3466667,16.5 Z M0.666666667,16.5 C0.666666667,7.38730166 8.05396832,0 17.1666667,0 C26.279365,0 33.6666667,7.38730166 33.6666667,16.5 C33.6666667,25.6126983 26.279365,33 17.1666667,33 C8.05396832,33 0.666666667,25.6126983 0.666666667,16.5 Z" id="Oval-2" fill-rule="nonzero"></path>
                                <g transform="translate(11.666667, 8.053409)" id="Path-19">
                                    <path d="M0,14.1891472 L0,2.76082455 C0.192333984,2.34572666 0.461933051,2.13817771 0.808797201,2.13817771 C1.15566135,2.13817771 1.42494303,2.34572666 1.61664225,2.76082455 L1.61664225,7.85488046 C1.65818414,7.95261371 1.74876334,8.00148033 1.88837986,8.00148033 C2.09780464,8.00148033 2.09324544,7.87366311 2.09324544,7.85488046 C2.09324544,7.64772622 2.09324544,5.56966005 2.09324544,1.62068195 C2.26233995,1.20043063 2.53257378,0.99030497 2.90394694,0.99030497 C3.2753201,0.99030497 3.54597711,1.20043063 3.71591797,1.62068195 L3.71591797,7.39318995 C3.75226499,7.49425774 3.81915068,7.54479164 3.91657505,7.54479164 C4.06271159,7.54479164 4.09931641,7.39318995 4.09931641,7.39318995 C4.09931641,7.15434982 4.09931641,4.9708149 4.09931641,0.842585184 C4.28339844,0.280861728 4.5672092,1.34618999e-16 4.9507487,0 C5.52605794,0 5.75510254,0.564511954 5.75510254,0.842585184 C5.75510254,1.02796734 5.75510254,3.30168722 5.75510254,7.66374482 C5.79549207,7.76505994 5.88366563,7.80996336 6.01962321,7.79845507 C6.22355957,7.78119264 6.22355957,7.68397026 6.22355957,7.66374482 C6.22355957,7.44043176 6.22355957,5.806125 6.22355957,2.76082455 C6.36715766,2.34572666 6.63827311,2.13817771 7.03690592,2.13817771 C7.43553874,2.13817771 7.72086589,2.34572666 7.89288737,2.76082455 L7.89288737,11.1790521 C7.95597602,11.389319 8.09396701,11.389319 8.30686035,11.1790521 C8.62620036,10.8636519 11.2444499,8.05226374 12.476001,8.50198842 C13.297035,8.80180488 13.1378852,9.42487528 11.9985514,10.3711996 C11.043476,11.2024543 10.4553304,12.2283391 10.2341146,13.448854 C9.90229085,15.2796263 8.28236273,17.5946442 6.49589735,17.8317371 C4.70943197,18.06883 2.9398112,18.0329325 1.61664225,16.9973056 C0.734529622,16.3068877 0.195648872,15.3708349 0,14.1891472 Z"></path>
                                </g>
                            </g>
                        </g>
                    </g>
                </g>
            </g>
        </g>
    </g>
</svg>