<?xml version="1.0" encoding="UTF-8"?>
<svg width="24px" height="31px" viewBox="0 0 24 31" version="1.1" xmlns="http://www.w3.org/2000/svg" xmlns:xlink="http://www.w3.org/1999/xlink">
    <!-- Generator: sketchtool 49.1 (51147) - http://www.bohemiancoding.com/sketch -->
    <title>D1DC3C64-2857-4060-A38D-3C055F99FC2E</title>
    <desc>Created with sketchtool.</desc>
    <defs></defs>
    <g id="Swipe-Menu-Buttons" stroke="none" stroke-width="1" fill="none" fill-rule="evenodd">
        <g transform="translate(-282.000000, -327.000000)" id="Group-8-Copy-4">
            <g transform="translate(244.000000, 314.000000)">
                <g id="Lock" transform="translate(39.000000, 14.000000)">
                    <g id="if_lock_172497">
                        <path d="M1.375,29 C0.616,29 0,28.3796923 0,27.6153846 L0,12.3846154 C0,11.6203077 0.616,11 1.375,11 L20.625,11 C21.384,11 22,11.6203077 22,12.3846154 L22,27.6153846 C22,28.3796923 21.384,29 20.625,29 L1.375,29 Z" id="Shape" stroke="#FFFFFF" stroke-width="1.5" stroke-linecap="round"></path>
                        <path d="M18,11 C18,10.2623529 18,7.79647059 18,7.05882353 C18,3.16023529 14.8661,0 11,0 C7.1339,0 4,3.16023529 4,7.05882353 C4,7.79647059 4,10.2623529 4,11" id="Shape" stroke="#FFFFFF" stroke-width="1.5" stroke-linecap="round"></path>
                        <path d="M13,19.1 C13,17.9401 12.1046667,17 11,17 C9.89533333,17 9,17.9401 9,19.1 C9,19.7195 9.26066667,20.2711 9.66666667,20.6554 L9.66666667,22.6 C9.66666667,23.3728 10.264,24 11,24 C11.736,24 12.3333333,23.3728 12.3333333,22.6 L12.3333333,20.6554 C12.7393333,20.2711 13,19.7195 13,19.1 Z" id="Shape" fill="#FFFFFF" fill-rule="nonzero"></path>
                    </g>
                </g>
            </g>
        </g>
    </g>
</svg>