<?xml version="1.0" encoding="UTF-8"?>
<svg width="32px" height="32px" viewBox="0 0 32 32" version="1.1" xmlns="http://www.w3.org/2000/svg" xmlns:xlink="http://www.w3.org/1999/xlink">
    <!-- Generator: sketchtool 49.1 (51147) - http://www.bohemiancoding.com/sketch -->
    <title>E36B14F1-C9FE-4AAF-8B3F-D128EC00199C</title>
    <desc>Created with sketchtool.</desc>
    <defs></defs>
    <g id="Swipe-Menu-Buttons" stroke="none" stroke-width="1" fill="none" fill-rule="evenodd">
        <g transform="translate(-279.000000, -138.000000)" id="Assign-User-Button-Copy">
            <g transform="translate(244.000000, 125.000000)">
                <g id="Observe" transform="translate(36.000000, 14.000000)">
                    <circle id="Oval" stroke="#FFFFFF" stroke-width="1.5" fill="#4F93E4" cx="15" cy="15" r="15"></circle>
                    <g id="View" transform="translate(5.000000, 9.000000)" fill="#FFFFFF">
                        <g id="Group-7">
                            <path d="M3.42929518,3.11838174 C2.63000072,3.7928827 1.90522677,4.51462216 1.26726563,5.23657261 C1.04370862,5.48956151 0.846759972,5.72477987 0.678020466,5.93634886 C0.575809928,6.0645025 0.50509583,6.15716668 0.467500339,6.20845748 L0.308693052,6.42511521 L0.467500339,6.64177293 C0.50509583,6.69306374 0.575809928,6.78572792 0.678020466,6.91388155 C0.846759972,7.12545055 1.04370862,7.3606689 1.26726563,7.6136578 C1.90522677,8.33560825 2.63000072,9.05734772 3.42929518,9.73184867 C5.73423691,11.6769208 8.1853677,12.8502304 10.6914446,12.8502304 C13.1975215,12.8502304 15.6486523,11.6769208 17.953594,9.73184867 C18.7528885,9.05734772 19.4776624,8.33560825 20.1156236,7.6136578 C20.3391806,7.3606689 20.5361292,7.12545055 20.7048687,6.91388155 C20.8070793,6.78572792 20.8777934,6.69306374 20.9153889,6.64177293 L21.0741961,6.42511521 L20.9153889,6.20845748 C20.8777934,6.15716668 20.8070793,6.0645025 20.7048687,5.93634886 C20.5361292,5.72477987 20.3391806,5.48956151 20.1156236,5.23657261 C19.4776624,4.51462216 18.7528885,3.7928827 17.953594,3.11838174 C15.6486523,1.17330958 13.1975215,0 10.6914446,0 L10.6914446,0.755895907 C12.9689848,0.755895907 15.255222,1.85027405 17.4290242,3.68468142 C18.1972901,4.3329983 18.8957799,5.02856366 19.510239,5.72391804 C19.7250291,5.96698582 19.9137616,6.19239154 20.074719,6.39420312 C20.1703266,6.51407783 20.2348096,6.59857675 20.2664718,6.64177293 L20.2664718,6.20845748 C20.2348096,6.25165367 20.1703266,6.33615259 20.074719,6.4560273 C19.9137616,6.65783888 19.7250291,6.88324459 19.510239,7.12631238 C18.8957799,7.82166675 18.1972901,8.51723211 17.4290242,9.165549 C15.255222,10.9999564 12.9689848,12.0943345 10.6914446,12.0943345 C8.41390437,12.0943345 6.1276672,10.9999564 3.95386503,9.165549 C3.18559912,8.51723211 2.48710932,7.82166675 1.87265016,7.12631238 C1.65786007,6.88324459 1.46912756,6.65783888 1.3081702,6.4560273 C1.21256262,6.33615259 1.14807962,6.25165367 1.11641738,6.20845748 L1.11641738,6.64177293 C1.14807962,6.59857675 1.21256262,6.51407783 1.3081702,6.39420312 C1.46912756,6.19239154 1.65786007,5.96698582 1.87265016,5.72391804 C2.48710932,5.02856366 3.18559912,4.3329983 3.95386503,3.68468142 C6.1276672,1.85027405 8.41390437,0.755895907 10.6914446,0.755895907 L10.6914446,0 C8.1853677,0 5.73423691,1.17330958 3.42929518,3.11838174 Z" id="Fill-3" stroke="#FFFFFF" stroke-width="0.5" fill-rule="nonzero"></path>
                            <path d="M10.6914446,9.82664679 C8.723204,9.82664679 7.12762973,8.30372923 7.12762973,6.42511521 C7.12762973,4.54650119 8.723204,3.02358363 10.6914446,3.02358363 C12.6596852,3.02358363 14.2552595,4.54650119 14.2552595,6.42511521 C14.2552595,8.30372923 12.6596852,9.82664679 10.6914446,9.82664679 Z M11.8793829,4.15742749 C11.223641,4.15742749 10.6914446,4.66482261 10.6914446,5.29127135 C10.6914446,5.91715316 11.223641,6.42511521 11.8793829,6.42511521 C12.5357188,6.42511521 13.0673212,5.91715316 13.0673212,5.29127135 C13.0673212,4.66482261 12.5357188,4.15742749 11.8793829,4.15742749 Z" id="Combined-Shape"></path>
                        </g>
                    </g>
                </g>
            </g>
        </g>
    </g>
</svg>