<?xml version="1.0" encoding="UTF-8"?>
<svg width="26px" height="30px" viewBox="0 0 26 30" version="1.1" xmlns="http://www.w3.org/2000/svg" xmlns:xlink="http://www.w3.org/1999/xlink">
    <!-- Generator: sketchtool 49.3 (51167) - http://www.bohemiancoding.com/sketch -->
    <title>D9D253E5-A9EF-4721-9002-2699CF64A343</title>
    <desc>Created with sketchtool.</desc>
    <defs></defs>
    <g id="Symbols" stroke="none" stroke-width="1" fill="none" fill-rule="evenodd">
        <g id="App-Header---TaskList" transform="translate(-1319.000000, -15.000000)" fill="#FFFFFF">
            <g id="App-Header---L1-hybrid">
                <g id="Dashboard-App-Header">
                    <g id="Refresh" transform="translate(1319.000000, 15.000000)">
                        <path d="M18.3331969,4.79260683 C16.7309786,3.98467096 14.9188967,3.52941176 13,3.52941176 C6.47299841,3.52941176 1.18181818,8.79665 1.18181818,15.2941176 C1.18181818,17.5076798 1.79593039,19.5784573 2.86380366,21.3468247 L2.00489898,22.2018429 C0.735033045,20.20303 0,17.8340235 0,15.2941176 C0,8.14690324 5.82029825,2.35294118 13,2.35294118 C15.0279377,2.35294118 16.9474217,2.81518602 18.6579285,3.63960728 L18.037115,1.27856983 L19.0810443,0.876808484 L20.1016692,4.59012295 C20.1377982,4.70751787 20.1360383,4.83835084 20.0879408,4.96308236 C20.0398432,5.08781388 19.9532088,5.186214 19.8488343,5.25211028 L16.4604958,7.03283521 L15.9547579,6.03890403 L18.3331969,4.79260683 L18.3331969,4.79260683 Z" id="Path"></path>
                        <path d="M6.83850455,25.3353673 C8.63260269,26.4286512 10.7423745,27.0588235 13,27.0588235 C19.5270016,27.0588235 24.8181818,21.7915853 24.8181818,15.2941176 C24.8181818,12.9277923 24.116382,10.7246393 22.9086761,8.87966602 L23.7611004,8.03109882 C25.1742369,10.1019032 26,12.6020131 26,15.2941176 C26,22.4413321 20.1797017,28.2352941 13,28.2352941 C10.5389375,28.2352941 8.23760299,27.554512 6.27566435,26.3718029 L6.71005139,28.9100652 L5.63491956,29.219725 L4.94328621,25.43199 C4.9175728,25.3119072 4.93078069,25.1817247 4.98961572,25.0616409 C5.04845076,24.941557 5.14337061,24.8510479 5.25311722,24.794458 L8.784468,23.3144862 L9.20126085,24.3485137 L6.83850455,25.3353673 L6.83850455,25.3353673 Z" id="Path"></path>
                    </g>
                </g>
            </g>
        </g>
    </g>
</svg>