<?xml version="1.0" encoding="UTF-8"?>
<svg width="30px" height="30px" viewBox="0 0 30 30" version="1.1" xmlns="http://www.w3.org/2000/svg" xmlns:xlink="http://www.w3.org/1999/xlink">
    <!-- Generator: sketchtool 49.1 (51147) - http://www.bohemiancoding.com/sketch -->
    <title>078FE707-5812-404B-903E-027B4E6CF4BD</title>
    <desc>Created with sketchtool.</desc>
    <defs></defs>
    <g id="Swipe-Menu-Buttons" stroke="none" stroke-width="1" fill="none" fill-rule="evenodd">
        <g transform="translate(-280.000000, -423.000000)" id="Group-5-Copy-6">
            <g transform="translate(244.000000, 414.000000)">
                <g id="SelectAll" transform="translate(36.000000, 9.000000)">
                    <g id="Release-icon">
                        <path d="M28.1818182,15 C28.1818182,7.71988287 22.2801171,1.81818182 15,1.81818182 C7.71988287,1.81818182 1.81818182,7.71988287 1.81818182,15 C1.81818182,22.2801171 7.71988287,28.1818182 15,28.1818182 C22.2801171,28.1818182 28.1818182,22.2801171 28.1818182,15 Z M0.454545455,15 C0.454545455,6.9667673 6.9667673,0.454545455 15,0.454545455 C23.0332327,0.454545455 29.5454545,6.9667673 29.5454545,15 C29.5454545,23.0332327 23.0332327,29.5454545 15,29.5454545 C6.9667673,29.5454545 0.454545455,23.0332327 0.454545455,15 Z" id="Oval-2" fill="#FFFFFF" fill-rule="nonzero"></path>
                        <g id="Ticks" transform="translate(8.181818, 10.000000)" stroke="#FFFFFF" stroke-linecap="round" stroke-width="2">
                            <polyline id="Path-2" points="0.517134233 6.83504972 4.74698153 10.6392045 14.6764027 0.670720881"></polyline>
                        </g>
                    </g>
                </g>
            </g>
        </g>
    </g>
</svg>