<?xml version="1.0" encoding="UTF-8"?>
<svg width="29px" height="28px" viewBox="0 0 29 28" version="1.1" xmlns="http://www.w3.org/2000/svg" xmlns:xlink="http://www.w3.org/1999/xlink">
    <!-- Generator: sketchtool 49.1 (51147) - http://www.bohemiancoding.com/sketch -->
    <title>DEFFA447-2B80-461E-9075-90BBFC4F292C</title>
    <desc>Created with sketchtool.</desc>
    <defs>
        <polygon id="path-1" points="0 17.0803959 4.22137251 17.0803959 7.91366472 17.0803959 14.5910646 23.5259626 11.463876 30 21.9054136 30 30.4294627 26.5623644 32 9.43112798 23.5459851 0 9.35721473 0.880151844 1.88528879 9.43112798"></polygon>
    </defs>
    <g id="Swipe-Menu-Buttons" stroke="none" stroke-width="1" fill="none" fill-rule="evenodd">
        <g transform="translate(-59.000000, -331.000000)" id="Group-5-Copy-3">
            <g transform="translate(24.000000, 314.000000)">
                <g id="Undo-Wave" transform="translate(33.000000, 15.000000)">
                    <mask id="mask-2" fill="white">
                        <use xlink:href="#path-1"></use>
                    </mask>
                    <g id="Path-5"></g>
                    <path d="M17,29 C24.1797017,29 30,23.1797017 30,16 C30,8.82029825 24.1797017,3 17,3 C11.553592,3 6.88945271,6.34929014 4.95488383,11.1005686 C4.33921636,12.6126407 4,14.2667062 4,16 C4,21.1679319 7.01554624,25.6315452 11.3830227,27.7272239 C13.0831916,28.5430286 14.9882301,29 17,29 Z" id="Oval" stroke="#FFFFFF" stroke-width="1.5" fill="#4F93E4" mask="url(#mask-2)"></path>
                    <g id="Wave" mask="url(#mask-2)">
                        <g transform="translate(8.000000, 10.000000)">
                            <g id="View" stroke="none" stroke-width="1" fill-rule="evenodd" transform="translate(18.648148, 6.000000)">
                                <g id="Group-7"></g>
                            </g>
                            <path d="M0.351851852,3.27266382 C1.63902848,3.51859938 2.83426391,4.77901913 3.93755816,7.05392306 C5.59249953,10.466279 8.44267634,8.62176225 9.36208822,6.40834221 C10.2815001,4.19492217 11.4767355,3.45711549 11.7525591,3.36488966 C12.0283827,3.27266382 13.7752652,2.81153465 14.7866183,4.74827718 C15.7979713,6.68501972 16.8093244,8.62176225 18.6481481,8.89843976" id="Path-6" stroke="#FFFFFF" stroke-width="1.5"></path>
                        </g>
                    </g>
                    <polyline id="Path-6" stroke="#FFFFFF" points="2 15.5873675 4.44360292 17 6 15"></polyline>
                </g>
            </g>
        </g>
    </g>
</svg>