<?xml version="1.0" encoding="UTF-8"?>
<svg width="31px" height="30px" viewBox="0 0 31 30" version="1.1" xmlns="http://www.w3.org/2000/svg" xmlns:xlink="http://www.w3.org/1999/xlink">
    <!-- Generator: sketchtool 49.1 (51147) - http://www.bohemiancoding.com/sketch -->
    <title>BAAA834C-5DCA-4097-B814-3A2F05612AAD</title>
    <desc>Created with sketchtool.</desc>
    <defs></defs>
    <g id="Swipe-Menu-Buttons" stroke="none" stroke-width="1" fill="none" fill-rule="evenodd">
        <g transform="translate(-172.000000, -140.000000)" id="Group-8-Copy">
            <g transform="translate(133.000000, 125.000000)">
                <g id="View-Priority" transform="translate(39.000000, 15.000000)">
                    <g id="Prioritize">
                        <rect id="Rectangle-3" stroke="#FFFFFF" stroke-width="1.5" x="0.75" y="0.75" width="21.5" height="24.5"></rect>
                        <ellipse id="Oval-6" fill="#FFFFFF" cx="5.30769231" cy="6.06666667" rx="1.76923077" ry="1.73333333"></ellipse>
                        <path d="M9.28846154,6.5 L19.4615385,6.5" id="Line" stroke="#FFFFFF" stroke-linecap="round"></path>
                        <ellipse id="Oval-6" fill="#FFFFFF" cx="5.30769231" cy="10.4" rx="1.76923077" ry="1.73333333"></ellipse>
                        <path d="M9.28846154,10.8333333 L16.8076923,10.8333333" id="Line" stroke="#FFFFFF" stroke-linecap="round"></path>
                        <ellipse id="Oval-6" fill="#FFFFFF" cx="5.30769231" cy="15.6" rx="1.76923077" ry="1.73333333"></ellipse>
                        <path d="M9.28846154,16.0333333 L18.5769231,16.0333333" id="Line" stroke="#FFFFFF" stroke-linecap="round"></path>
                        <ellipse id="Oval-6" fill="#FFFFFF" cx="5.30769231" cy="19.9333333" rx="1.76923077" ry="1.73333333"></ellipse>
                        <path d="M9.28846154,20.3666667 L16.8076923,20.3666667" id="Line" stroke="#FFFFFF" stroke-linecap="round"></path>
                    </g>
                    <circle id="Oval" stroke="#FFFFFF" fill="#4F93E4" cx="23" cy="22" r="7"></circle>
                    <g id="View" transform="translate(18.000000, 19.000000)" fill="#FFFFFF">
                        <g id="Group-7">
                            <path d="M1.6037567,1.45602762 C1.22995574,1.77096406 0.891005303,2.10795699 0.592654071,2.44504843 C0.488104583,2.56317342 0.395998859,2.67300103 0.317085525,2.77178634 C0.269285372,2.83162354 0.236214959,2.87489009 0.218632915,2.89883867 L0.144364519,3 L0.218632915,3.10116133 C0.236214959,3.12510991 0.269285372,3.16837646 0.317085525,3.22821366 C0.395998859,3.32699897 0.488104583,3.43682658 0.592654071,3.55495157 C0.891005303,3.89204301 1.22995574,4.22903594 1.6037567,4.54397238 C2.68169416,5.45216099 3.82799893,6 5,6 C6.17200107,6 7.31830584,5.45216099 8.3962433,4.54397238 C8.77004426,4.22903594 9.1089947,3.89204301 9.40734593,3.55495157 C9.51189542,3.43682658 9.60400114,3.32699897 9.68291447,3.22821366 C9.73071463,3.16837646 9.76378504,3.12510991 9.78136709,3.10116133 L9.85563548,3 L9.78136709,2.89883867 C9.76378504,2.87489009 9.73071463,2.83162354 9.68291447,2.77178634 C9.60400114,2.67300103 9.51189542,2.56317342 9.40734593,2.44504843 C9.1089947,2.10795699 8.77004426,1.77096406 8.3962433,1.45602762 C7.31830584,0.547839007 6.17200107,0 5,0 L5,0.352941176 C6.06512278,0.352941176 7.13431279,0.863925699 8.15092105,1.72044296 C8.51021109,2.02315359 8.83686938,2.34792537 9.12422959,2.67259863 C9.22467911,2.78609128 9.31294244,2.8913372 9.38821635,2.9855666 C9.43292854,3.04153822 9.4630849,3.08099226 9.47789217,3.10116133 L9.47789217,2.89883867 C9.4630849,2.91900774 9.43292854,2.95846178 9.38821635,3.0144334 C9.31294244,3.1086628 9.22467911,3.21390872 9.12422959,3.32740137 C8.83686938,3.65207463 8.51021109,3.97684641 8.15092105,4.27955704 C7.13431279,5.1360743 6.06512278,5.64705882 5,5.64705882 C3.93487722,5.64705882 2.86568721,5.1360743 1.84907895,4.27955704 C1.48978891,3.97684641 1.16313062,3.65207463 0.875770408,3.32740137 C0.775320891,3.21390872 0.687057556,3.1086628 0.611783651,3.0144334 C0.567071462,2.95846178 0.536915105,2.91900774 0.522107826,2.89883867 L0.522107826,3.10116133 C0.536915105,3.08099226 0.567071462,3.04153822 0.611783651,2.9855666 C0.687057556,2.8913372 0.775320891,2.78609128 0.875770408,2.67259863 C1.16313062,2.34792537 1.48978891,2.02315359 1.84907895,1.72044296 C2.86568721,0.863925699 3.93487722,0.352941176 5,0.352941176 L5,0 C3.82799893,0 2.68169416,0.547839007 1.6037567,1.45602762 Z" id="Fill-3" stroke="#FFFFFF" stroke-width="0.5" fill-rule="nonzero"></path>
                            <path d="M5,4.58823529 C4.07952542,4.58823529 3.33333333,3.87715813 3.33333333,3 C3.33333333,2.12284187 4.07952542,1.41176471 5,1.41176471 C5.92047458,1.41176471 6.66666667,2.12284187 6.66666667,3 C6.66666667,3.87715813 5.92047458,4.58823529 5,4.58823529 Z M5.55555556,1.94117647 C5.24888889,1.94117647 5,2.17808824 5,2.47058824 C5,2.76282353 5.24888889,3 5.55555556,3 C5.8625,3 6.11111111,2.76282353 6.11111111,2.47058824 C6.11111111,2.17808824 5.8625,1.94117647 5.55555556,1.94117647 Z" id="Combined-Shape"></path>
                        </g>
                    </g>
                </g>
            </g>
        </g>
    </g>
</svg>