<svg xmlns="http://www.w3.org/2000/svg" xmlns:xlink="http://www.w3.org/1999/xlink" width="100" height="100" viewBox="0 0 100 100"><g><g transform="translate(50 50) scale(-0.69 0.69) rotate(0) translate(-50 -50)" style="fill:#000000"><svg fill="#000000" xmlns="http://www.w3.org/2000/svg" xmlns:xlink="http://www.w3.org/1999/xlink" version="1.1" x="0px" y="0px" viewBox="0 0 100 100" style="enable-background:new 0 0 100 100;" xml:space="preserve"><path d="M89.922,29.633c-0.036-0.092-0.085-0.176-0.147-0.253c-0.013-0.016-0.022-0.033-0.036-0.048  c-0.064-0.07-0.135-0.134-0.218-0.185c-0.019-0.011-0.04-0.016-0.059-0.026c-0.01-0.005-0.015-0.014-0.025-0.019l-39-19  c-0.275-0.135-0.6-0.135-0.875,0l-39,19c-0.01,0.005-0.016,0.014-0.025,0.019c-0.019,0.01-0.04,0.015-0.059,0.026  c-0.083,0.051-0.154,0.115-0.218,0.185c-0.014,0.015-0.023,0.032-0.036,0.048c-0.062,0.077-0.11,0.162-0.147,0.253  c-0.009,0.023-0.02,0.044-0.028,0.068C10.021,29.797,10,29.896,10,30v39c0,0.375,0.21,0.719,0.544,0.89l39,20  c0.013,0.007,0.028,0.004,0.041,0.01C49.717,89.96,49.857,90,50,90s0.283-0.04,0.415-0.101c0.013-0.006,0.028-0.003,0.041-0.01  l39-20C89.79,69.719,90,69.375,90,69V30c0-0.104-0.021-0.203-0.051-0.299C89.942,29.677,89.931,29.656,89.922,29.633z M50,48.876  l-11.544-5.92L75.16,24.37l11.604,5.653L50,48.876z M35.492,59.836l-2.371,0.276l-2.051-3.101c-0.21-0.317-0.576-0.485-0.961-0.44  l-2.761,0.353l-1.473-2.534V38.753l9.616,4.931V59.836z M27.079,37.122l36.411-18.438l9.414,4.586L36.256,41.828L27.079,37.122z   M50,12.112l11.233,5.472L24.879,35.994l-11.643-5.971L50,12.112z M12,31.637l11.876,6.09v16.932c0,0.021,0.011,0.039,0.012,0.061  c0.004,0.066,0.022,0.129,0.039,0.194c0.018,0.067,0.034,0.131,0.065,0.191c0.009,0.019,0.009,0.039,0.019,0.057l1.941,3.341  c0.201,0.348,0.589,0.541,0.991,0.49l2.801-0.358l2.047,3.094c0.187,0.282,0.501,0.448,0.834,0.448c0.038,0,0.077-0.002,0.115-0.007  l3.866-0.45c0.048-0.006,0.087-0.031,0.133-0.043c0.067-0.017,0.131-0.032,0.192-0.062c0.057-0.028,0.105-0.066,0.155-0.104  c0.052-0.039,0.102-0.076,0.146-0.125c0.043-0.048,0.073-0.101,0.105-0.156c0.033-0.055,0.065-0.107,0.087-0.168  c0.023-0.063,0.03-0.128,0.039-0.195c0.007-0.047,0.028-0.089,0.028-0.138V44.709L49,50.611v36.752L12,68.389V31.637z M88,68.389  L51,87.363V50.611l37-18.974V68.389z"></path></svg></g></g></svg>