<?xml version="1.0" encoding="utf-8"?>
<!-- Generator: Adobe Illustrator 23.0.4, SVG Export Plug-In . SVG Version: 6.00 Build 0)  -->
<svg version="1.1" id="Layer_1" xmlns="http://www.w3.org/2000/svg" xmlns:xlink="http://www.w3.org/1999/xlink" x="0px" y="0px"
	 viewBox="0 0 100 100" style="enable-background:new 0 0 100 100;" xml:space="preserve">
<g>
	<g transform="translate(50 50) scale(0.69 0.69) rotate(0) translate(-50 -50)">
		<g>
			<g>
				<g>
					<g>
						<path d="M50.8-5.2l15.6,17.6c0.4,0.4,0.4,1,0.2,1.5c-0.2,0.5-0.7,0.8-1.2,0.8H34.2c-0.5,0-1-0.3-1.2-0.8
							c-0.2-0.5-0.1-1.1,0.2-1.5L48.8-5.2c0.3-0.3,0.6-0.5,1-0.5C50.2-5.7,50.6-5.5,50.8-5.2z M62.4,11.9L49.8-2.2L37.2,11.9H62.4z"
							/>
					</g>
					<g>
						<path d="M60.9,13.3V27c0,0.8-0.6,1.4-1.4,1.4H40c-0.8,0-1.4-0.6-1.4-1.4V13.3c0-0.8,0.6-1.4,1.4-1.4h19.5
							C60.3,11.9,60.9,12.5,60.9,13.3z M41.4,25.6h16.8V14.7H41.4V25.6z"/>
					</g>
				</g>
				<g>
					<g>
						<path d="M14.7,58.4c-0.5,0-1-0.3-1.2-0.8L4.6,39.7c-0.2-0.4-0.2-0.8,0-1.2s0.6-0.7,1-0.7l32.2-5.9c0.5-0.1,1.1,0.1,1.4,0.6
							l12,17.2c0.3,0.4,0.3,0.9,0.1,1.3c-0.2,0.4-0.6,0.7-1,0.8L15,58.3C14.9,58.3,14.8,58.4,14.7,58.4z M7.9,40.1l7.6,15.4l32.2-6
							L37.4,34.7L7.9,40.1z"/>
					</g>
					<g>
						<path d="M85.3,58.4c-0.1,0-0.2,0-0.3,0l-35.3-6.6c-0.5-0.1-0.8-0.4-1-0.8c-0.2-0.4-0.1-0.9,0.1-1.3l11.6-17.2
							c0.3-0.5,0.8-0.7,1.4-0.6L94,37.7c0.4,0.1,0.8,0.3,1,0.7s0.2,0.8,0,1.2l-8.5,17.9C86.3,58.1,85.8,58.4,85.3,58.4z M52.3,49.5
							l32.2,6l7.2-15.4l-29.5-5.4L52.3,49.5z"/>
					</g>
				</g>
				<g>
					<g>
						<path d="M50,97.1c-0.1,0-0.1,0-0.2,0l-35.6-5.7c-0.7-0.1-1.1-0.7-1.1-1.3V76.4c0-0.4,0.2-0.8,0.5-1.1c0.3-0.3,0.8-0.4,1.2-0.3
							l22.6,5.4l11.5-17.6c0.3-0.5,1-0.7,1.5-0.6c0.6,0.2,1,0.7,1,1.3v32.1c0,0.4-0.2,0.8-0.5,1C50.7,97,50.4,97.1,50,97.1z
							 M15.8,88.8l32.9,5.3V68.2l-9.5,14.6c-0.3,0.5-0.9,0.7-1.5,0.6l-21.9-5.2V88.8z"/>
					</g>
					<g>
						<path d="M50,97.1c-0.3,0-0.6-0.1-0.9-0.3c-0.3-0.3-0.5-0.6-0.5-1V63.6c0-0.6,0.4-1.1,1-1.3c0.6-0.2,1.2,0.1,1.5,0.6l11,17.6
							l22.6-5.4c0.4-0.1,0.8,0,1.2,0.3c0.3,0.3,0.5,0.7,0.5,1.1V90c0,0.7-0.5,1.2-1.1,1.3l-35.1,5.7C50.2,97.1,50.1,97.1,50,97.1z
							 M51.4,68.3v25.8l32.4-5.3V78.1l-21.9,5.2c-0.6,0.1-1.2-0.1-1.5-0.6L51.4,68.3z"/>
					</g>
					<g>
						<path d="M61.6,83.4c-0.5,0-0.9-0.2-1.2-0.6L48.9,64.3c-0.2-0.4-0.3-0.9-0.1-1.3c0.2-0.4,0.6-0.7,1-0.8L85,55.6
							c0.6-0.1,1.2,0.2,1.5,0.7L95,73.8c0.2,0.4,0.2,0.8,0,1.2c-0.2,0.4-0.5,0.6-0.9,0.7l-32.2,7.7C61.8,83.4,61.7,83.4,61.6,83.4z
							 M52.3,64.5l10,15.9l29.5-7.1l-7.3-14.9L52.3,64.5z"/>
					</g>
					<g>
						<path d="M38,83.4c-0.1,0-0.2,0-0.3,0L5.5,75.7c-0.4-0.1-0.7-0.4-0.9-0.8c-0.2-0.4-0.2-0.8,0-1.2l8.9-17.4
							c0.3-0.5,0.9-0.8,1.5-0.7l35.3,6.6c0.4,0.1,0.8,0.4,1,0.8c0.2,0.4,0.1,0.9-0.1,1.3l-12,18.5C38.9,83.2,38.5,83.4,38,83.4z
							 M7.9,73.4l29.5,7.1l10.4-15.9l-32.3-6L7.9,73.4z"/>
					</g>
				</g>
				<g>
					<rect x="9.8" y="15.6" width="3.9" height="3.9"/>
					<rect x="15.6" y="15.6" width="3.9" height="3.9"/>
					<rect x="21.5" y="15.6" width="3.9" height="3.9"/>
					<rect x="74.2" y="15.6" width="3.9" height="3.9"/>
					<rect x="80.1" y="15.6" width="3.9" height="3.9"/>
					<rect x="85.9" y="15.6" width="3.9" height="3.9"/>
				</g>
			</g>
		</g>
	</g>
</g>
</svg>
