<svg xmlns="http://www.w3.org/2000/svg" xmlns:xlink="http://www.w3.org/1999/xlink" width="100" height="100" viewBox="0 0 100 100"><g><g transform="translate(50 50) scale(-0.69 0.69) rotate(0) translate(-50 -50)" style="fill:#000000"><svg fill="#000000" xmlns:x="http://ns.adobe.com/Extensibility/1.0/" xmlns:i="http://ns.adobe.com/AdobeIllustrator/10.0/" xmlns:graph="http://ns.adobe.com/Graphs/1.0/" xmlns="http://www.w3.org/2000/svg" xmlns:xlink="http://www.w3.org/1999/xlink" version="1.1" x="0px" y="0px" viewBox="0 0 90 90" enable-background="new 0 0 90 90" xml:space="preserve"><g><g i:extraneous="self"><g><g><g><path d="M74.729,48.48L64.55,43.556v-8.637l5.374-2.636c0.276-0.131,0.477-0.381,0.546-0.678       c0.076-0.289,0.021-0.608-0.16-0.857l-5.885-8.277c-0.27-0.373-0.623-0.505-0.623-0.505L43.915,12.34h-0.007       c-0.069-0.034-0.146-0.062-0.215-0.075c-0.076-0.021-0.152-0.028-0.221-0.028c-0.145,0-0.276,0.028-0.401,0.083       c-0.021,0-0.042,0.014-0.062,0.021l-18.34,8.977c-0.366,0.18-0.546,0.56-0.546,0.56l-4.744,8.79       c-0.138,0.249-0.166,0.538-0.076,0.809c0.09,0.27,0.284,0.491,0.533,0.615l0.961,0.463l-8.194,4.012       c-0.048,0.021-0.616,0.332-0.616,0.947v21.147c0,0.394,0.228,0.76,0.581,0.933l20.054,9.73c0,0,0.436,0.234,0.913,0       l1.314-0.644v1.189c0,0.395,0.228,0.761,0.581,0.934l20.054,9.729c0,0,0.436,0.235,0.913,0L74.771,71.5       c0.353-0.173,0.581-0.532,0.581-0.926V49.427C75.352,48.777,74.729,48.48,74.729,48.48z M71.936,49.435l-6.023,2.958       l-8.52-4.12l6.023-2.96L71.936,49.435z M46.177,51.474v-16.23l1.714,2.406l0.609,0.857l1.521,2.145       c0,0,0.332,0.442,0.395,0.498c0.187,0.166,0.429,0.256,0.678,0.256c0.159,0,0.311-0.035,0.456-0.11l0.941-0.465l9.985-4.896       v7.531L46.177,51.474z M67.918,30.956L52.49,38.528l-1.058,0.519l-2.158-3.029l-2.58-3.63l16.486-8.092L67.918,30.956z        M44.51,14.933l16.631,8.042l-3.492,1.717l-13.139-6.35V14.933z M43.472,20.141l11.798,5.705l-10.11,4.979l-1.002-0.484       l8.305-4.067c0.173-0.082,0.242-0.289,0.159-0.456c-0.083-0.173-0.291-0.248-0.463-0.158l-8.803,4.309h-0.008l-1.901-0.921       l0.007-0.006h0.007l8.388-4.115c0.173-0.083,0.242-0.29,0.159-0.464c-0.082-0.172-0.29-0.241-0.463-0.159l-8.873,4.35       l-0.014,0.008l-1.908-0.926l0.006-0.008l8.479-4.156c0.173-0.083,0.242-0.29,0.159-0.463c-0.083-0.166-0.291-0.242-0.463-0.16       l-8.97,4.398l-1.908-0.919l8.575-4.205c0.166-0.083,0.242-0.291,0.159-0.463c-0.055-0.111-0.166-0.181-0.276-0.187       c-0.062-0.015-0.125,0-0.187,0.027l-9.059,4.439h-0.006v0.007H35.25l-1.908-0.934L43.472,20.141z M42.436,14.933v3.409       L30.97,23.957h-0.007l-3.506-1.701L42.436,14.933z M25.527,23.64l18.188,8.803l-0.381,0.698l-0.989,1.833l-2.441,4.516       l-14.363-6.95l-2.372-1.148l-1.452-0.698L25.527,23.64z M22.996,33.785l1.058,0.51v7.415l-8.665-4.204L22.996,33.785z        M32.041,66.729l-17.979-8.721V39.164l17.979,8.715V66.729z M34.849,66.362l-0.733,0.359V48.943l0.733,0.358V66.362z        M35.389,47.255l-9.26-4.494v-7.628l13.761,6.659c0.146,0.069,0.304,0.104,0.45,0.104c0.374,0,0.733-0.201,0.92-0.547       l2.842-5.27v15.401l-5.774-2.802l-2.365-1.147L35.389,47.255z M54.903,77.938l-17.979-8.72V50.374l17.979,8.714V77.938z        M55.934,57.289l-8.499-4.121l7.6-3.733l8.513,4.12L55.934,57.289z M73.277,69.924l-16.299,8.008V59.088l16.299-7.995V69.924z"></path></g></g></g></g></g></svg></g></g></svg>