<svg xmlns="http://www.w3.org/2000/svg" xmlns:xlink="http://www.w3.org/1999/xlink" width="100" height="100" viewBox="0 0 100 100"><g><g transform="translate(50 50) scale(0.69 0.69) rotate(0) translate(-50 -50)" style="fill:#000000"><svg fill="#000000" xmlns="http://www.w3.org/2000/svg" xmlns:xlink="http://www.w3.org/1999/xlink" version="1.1" x="0px" y="0px" viewBox="0 0 512 512" style="enable-background:new 0 0 512 512;" xml:space="preserve"><g><g><g><g><path d="M255.001,197c-2,0-3.903-0.855-5.232-2.35l-80.001-90c-1.831-2.06-2.283-5.003-1.154-7.518S172.244,93,175,93h160      c2.757,0,5.257,1.618,6.386,4.132s0.678,5.458-1.154,7.518l-79.999,90C258.904,196.145,257,197,255.001,197z M190.588,107      l64.413,72.463L319.412,107H190.588z"></path></g><g><path d="M305,107H205c-3.866,0-7-3.134-7-7V30c0-3.866,3.134-7,7-7h100c3.866,0,7,3.134,7,7v70C312,103.866,308.866,107,305,107      z M212,93h86V37h-86V93z"></path></g></g><g><g><path d="M75.491,298.782c-2.622,0-5.073-1.479-6.27-3.893l-45.493-91.781c-0.976-1.97-0.97-4.284,0.016-6.249      c0.986-1.965,2.838-3.353,5.001-3.747l164.634-30c2.691-0.491,5.428,0.635,6.996,2.881l61.517,88.162      c1.36,1.951,1.639,4.459,0.737,6.659c-0.902,2.201-2.859,3.793-5.197,4.229L76.774,298.663      C76.345,298.743,75.916,298.782,75.491,298.782z M40.4,205.22l39.015,78.711l164.784-30.666l-52.732-75.574L40.4,205.22z"></path></g><g><path d="M436.705,298.782c-0.426,0-0.854-0.039-1.284-0.119L254.87,265.044c-2.316-0.432-4.26-1.999-5.173-4.171      c-0.912-2.173-0.67-4.658,0.643-6.614l59.216-88.162c1.552-2.311,4.32-3.482,7.065-2.984l164.634,30      c2.14,0.39,3.977,1.752,4.971,3.686s1.033,4.22,0.105,6.188l-43.298,91.781C441.862,297.25,439.374,298.782,436.705,298.782z       M267.896,253.229l164.778,30.682l37.107-78.658l-151.161-27.545L267.896,253.229z"></path></g></g><g><g><path d="M256.151,497c-0.37,0-0.742-0.029-1.112-0.089L72.79,467.577c-3.393-0.546-5.888-3.475-5.888-6.911v-69.511      c0-2.143,0.981-4.167,2.663-5.495c1.683-1.327,3.881-1.809,5.963-1.313l115.932,27.698l58.824-90.366      c1.69-2.597,4.885-3.773,7.858-2.892c2.971,0.882,5.008,3.612,5.008,6.711V490c0,2.051-0.898,3.999-2.46,5.328      C259.415,496.415,257.803,497,256.151,497z M80.902,454.702l168.249,27.081v-132.7l-48.65,74.736      c-1.615,2.48-4.616,3.672-7.493,2.989L80.902,400.024V454.702z"></path></g><g><path d="M256.151,497c-1.649,0-3.259-0.583-4.534-1.667c-1.564-1.33-2.466-3.279-2.466-5.333V325.498      c0-3.121,2.066-5.865,5.066-6.728c3-0.863,6.208,0.365,7.866,3.011l56.546,90.242l115.842-27.677      c2.082-0.495,4.28-0.014,5.964,1.313c1.682,1.328,2.663,3.353,2.663,5.495v69.511c0,3.432-2.487,6.356-5.874,6.909      l-179.946,29.334C256.902,496.97,256.525,497,256.151,497z M263.151,349.853v131.914l165.946-27.052v-54.69l-112.104,26.784      c-2.921,0.696-5.963-0.545-7.559-3.092L263.151,349.853z"></path></g><g><path d="M315.365,427c-2.372,0-4.631-1.209-5.931-3.283l-59.215-94.502c-1.23-1.963-1.409-4.406-0.479-6.527      c0.93-2.121,2.849-3.646,5.125-4.07L435.417,284.9c3.092-0.582,6.198,0.982,7.578,3.815l43.298,88.885      c0.93,1.909,0.943,4.137,0.036,6.057s-2.637,3.324-4.702,3.817l-164.634,39.334C316.451,426.938,315.905,427,315.365,427z       M267.541,330.492l51.088,81.531l151.256-36.138l-37.14-76.244L267.541,330.492z"></path></g><g><path d="M194.635,427c-0.54,0-1.085-0.063-1.627-0.191L28.374,387.475c-2.089-0.499-3.833-1.93-4.731-3.88      c-0.898-1.951-0.852-4.206,0.126-6.118l45.493-88.885c1.412-2.759,4.47-4.265,7.516-3.691l180.658,33.717      c2.298,0.429,4.229,1.977,5.15,4.125c0.92,2.149,0.707,4.615-0.568,6.575l-61.517,94.502      C199.19,425.833,196.966,427,194.635,427z M40.289,375.928l151.171,36.117l53.109-81.587L79.344,299.621L40.289,375.928z"></path></g></g><g><rect x="50" y="80" width="20" height="20"></rect><rect x="80" y="80" width="20" height="20"></rect><rect x="110" y="80" width="20" height="20"></rect><rect x="380" y="80" width="20" height="20"></rect><rect x="410" y="80" width="20" height="20"></rect><rect x="440" y="80" width="20" height="20"></rect></g></g></g></svg></g></g></svg>