<svg xmlns="http://www.w3.org/2000/svg" xmlns:xlink="http://www.w3.org/1999/xlink" width="100" height="100" viewBox="0 0 100 100"><g><g transform="translate(50 50) scale(0.69 0.69) rotate(0) translate(-50 -50)" style="fill:#000000"><svg fill="#000000" xmlns:x="http://ns.adobe.com/Extensibility/1.0/" xmlns:i="http://ns.adobe.com/AdobeIllustrator/10.0/" xmlns:graph="http://ns.adobe.com/Graphs/1.0/" xmlns="http://www.w3.org/2000/svg" xmlns:xlink="http://www.w3.org/1999/xlink" version="1.1" x="0px" y="0px" viewBox="0 0 100 100" style="enable-background:new 0 0 100 100;" xml:space="preserve"><g><g i:extraneous="self"><g><path d="M5273.1,2400.1v-2c0-2.8-5-4-9.7-4s-9.7,1.3-9.7,4v2c0,1.8,0.7,3.6,2,4.9l5,4.9c0.3,0.3,0.4,0.6,0.4,1v6.4     c0,0.4,0.2,0.7,0.6,0.8l2.9,0.9c0.5,0.1,1-0.2,1-0.8v-7.2c0-0.4,0.2-0.7,0.4-1l5.1-5C5272.4,2403.7,5273.1,2401.9,5273.1,2400.1z      M5263.4,2400c-4.8,0-7.4-1.3-7.5-1.8v0c0.1-0.5,2.7-1.8,7.5-1.8c4.8,0,7.3,1.3,7.5,1.8C5270.7,2398.7,5268.2,2400,5263.4,2400z"></path><path d="M5268.4,2410.3c-0.6,0-1,0.4-1,1c0,0.6,0.4,1,1,1h4.3c0.6,0,1-0.4,1-1c0-0.6-0.4-1-1-1H5268.4z"></path><path d="M5272.7,2413.7h-4.3c-0.6,0-1,0.4-1,1c0,0.6,0.4,1,1,1h4.3c0.6,0,1-0.4,1-1C5273.7,2414.1,5273.3,2413.7,5272.7,2413.7z"></path><path d="M5272.7,2417h-4.3c-0.6,0-1,0.4-1,1c0,0.6,0.4,1,1,1h4.3c0.6,0,1-0.4,1-1C5273.7,2417.5,5273.3,2417,5272.7,2417z"></path></g><g><path d="M95.4,29.5l-26.2-12c-1-0.4-2.1-0.4-3,0L40,29.5c-1.3,0.6-2.1,1.9-2.1,3.3v34.4c0,1.4,0.8,2.7,2.1,3.3l26.2,12     c0.5,0.2,1,0.3,1.5,0.3c0.5,0,1-0.1,1.5-0.3l26.2-12c1.3-0.6,2.1-1.9,2.1-3.3V32.8C97.5,31.4,96.7,30.1,95.4,29.5z M67.7,24.9     l17.4,8l-17.4,8l-17.4-8L67.7,24.9z M45.2,38.5l18.9,8.6v26.4l-18.9-8.6V38.5z M71.3,73.5V47.1l18.9-8.6v26.4L71.3,73.5z"></path><path d="M27.9,32.2h-9.7c-2,0-3.6,1.6-3.6,3.6c0,2,1.6,3.6,3.6,3.6h9.7c2,0,3.6-1.6,3.6-3.6C31.6,33.9,29.9,32.2,27.9,32.2z"></path><path d="M27.9,46.4H12.2c-2,0-3.6,1.6-3.6,3.6c0,2,1.6,3.6,3.6,3.6h15.8c2,0,3.6-1.6,3.6-3.6C31.6,48,29.9,46.4,27.9,46.4z"></path><path d="M27.9,60.5H6.1c-2,0-3.6,1.6-3.6,3.6c0,2,1.6,3.6,3.6,3.6h21.8c2,0,3.6-1.6,3.6-3.6C31.6,62.1,29.9,60.5,27.9,60.5z"></path></g></g></g></svg></g></g></svg>