<svg xmlns="http://www.w3.org/2000/svg" xmlns:xlink="http://www.w3.org/1999/xlink" width="100" height="100" viewBox="0 0 100 100"><g><g transform="translate(50 50) scale(0.69 -0.69) rotate(0) translate(-50 -50)" style="fill:#000000"><svg fill="#000000" xmlns="http://www.w3.org/2000/svg" xmlns:xlink="http://www.w3.org/1999/xlink" version="1.1" viewBox="0 0 96 96" x="0px" y="0px"><path d="M82 96h-68c-7.72 0-14-6.28-14-14v-68c0-7.72 6.28-14 14-14h68c7.72 0 14 6.28 14 14v68c0 7.72-6.28 14-14 14zM14 4c-5.512 0-10 4.484-10 10v68c0 5.516 4.488 10 10 10h68c5.512 0 10-4.484 10-10v-68c0-5.516-4.488-10-10-10h-68z" fill="#000000"></path><path d="M18 38c-4.412 0-8-3.584-8-8s3.588-8 8-8 8 3.584 8 8-3.588 8-8 8zM18 26c-2.204 0-4 1.792-4 4s1.796 4 4 4 4-1.792 4-4-1.796-4-4-4z" fill="#000000"></path><path d="M46 70c-4.412 0-8-3.584-8-8s3.588-8 8-8c4.416 0 8 3.584 8 8s-3.584 8-8 8zM46 58c-2.204 0-4 1.792-4 4s1.796 4 4 4 4-1.792 4-4-1.796-4-4-4z" fill="#000000"></path><path d="M74 50c-4.416 0-8-3.584-8-8s3.584-8 8-8 8 3.584 8 8-3.584 8-8 8zM74 38c-2.204 0-4 1.792-4 4s1.796 4 4 4 4-1.792 4-4-1.796-4-4-4z" fill="#000000"></path><path d="M18 86c-1.104 0-2-0.896-2-2v-48c0-1.104 0.896-2 2-2s2 0.896 2 2v48c0 1.104-0.896 2-2 2z" fill="#000000"></path><path d="M18 26c-1.104 0-2-0.896-2-2v-12c0-1.104 0.896-2 2-2s2 0.896 2 2v12c0 1.104-0.896 2-2 2z" fill="#000000"></path><path d="M46 58c-1.104 0-2-0.896-2-2v-44c0-1.104 0.896-2 2-2s2 0.896 2 2v44c0 1.104-0.896 2-2 2z" fill="#000000"></path><path d="M46 86c-1.104 0-2-0.896-2-2v-16c0-1.104 0.896-2 2-2s2 0.896 2 2v16c0 1.104-0.896 2-2 2z" fill="#000000"></path><path d="M74 86c-1.1 0-2-0.896-2-2v-36c0-1.104 0.9-2 2-2s2 0.896 2 2v36c0 1.104-0.9 2-2 2z" fill="#000000"></path><path d="M74 38c-1.1 0-2-0.896-2-2v-24c0-1.104 0.9-2 2-2s2 0.896 2 2v24c0 1.104-0.9 2-2 2z" fill="#000000"></path></svg></g></g></svg>