<svg xmlns="http://www.w3.org/2000/svg" xmlns:xlink="http://www.w3.org/1999/xlink" width="100" height="100" viewBox="0 0 100 100"><g><g transform="translate(50 50) scale(0.69 0.69) rotate(0) translate(-50 -50)" style="fill:#000000"><svg fill="#000000" xmlns="http://www.w3.org/2000/svg" xmlns:xlink="http://www.w3.org/1999/xlink" version="1.1" x="0px" y="0px" viewBox="0 0 100 100" style="enable-background:new 0 0 100 100;" xml:space="preserve"><style type="text/css">
	.st0{fill:#000000;stroke:#000000;}
	.st1{fill:#000000;stroke:#000000;stroke-linecap:round;stroke-linejoin:round;}
	.st2{fill:none;stroke:#000000;stroke-linecap:round;stroke-linejoin:round;}
	.st3{fill:#000000;stroke:#000000;stroke-linecap:round;}
	.st4{fill:none;stroke:#000000;stroke-linecap:round;}
	.st5{stroke:#000000;stroke-width:4;stroke-linecap:round;stroke-linejoin:round;}
	.st6{fill:none;stroke:#000000;stroke-width:2;stroke-linecap:round;stroke-linejoin:round;}
</style><g><path d="M75.1,58.6V32.3L43.4,13.2L43.2,13L11.4,32.1l-0.2,0.1v35.4l31.7,19.1l0.3,0.2l17.8-10.7c1.6,6.1,7.1,10.6,13.7,10.6   c7.8,0,14.2-6.4,14.2-14.2C88.8,65.1,82.7,58.9,75.1,58.6z M55,21.3l3.1,1.9L27.2,40.6c0,0,0,0,0,0c0,0-0.1,0-0.1,0.1c0,0,0,0,0,0   l-3.2-1.8l30.9-17.5C54.9,21.4,54.9,21.4,55,21.3z M26.9,41.9v6l-3.4-1.7v-6.2L26.9,41.9z M43.2,14.2l10.9,6.6L22.9,38.4l-10.2-5.8   L43.2,14.2z M42.7,85.5L12.2,67.2V33.4l10.4,5.9v7.1c0,0,0,0,0,0.1c0,0,0,0.1,0,0.1c0,0,0,0.1,0,0.1c0,0,0,0.1,0.1,0.1   c0,0,0.1,0,0.1,0.1c0,0,0,0,0.1,0l4.4,2.3c0,0,0,0,0,0c0.1,0,0.1,0.1,0.2,0.1c0.1,0,0.2,0,0.2-0.1c0,0,0,0,0.1,0   c0.1,0,0.1-0.1,0.1-0.1c0,0,0,0,0,0c0,0,0,0,0,0c0,0,0-0.1,0-0.1c0,0,0-0.1,0-0.1c0,0,0,0,0,0v-6.3l14.7,8.4V85.5z M43,49.9   L28,41.3l31.1-17.5l14.5,8.8L43,49.9z M43.7,85.5V50.6l30.5-17.2v25.2c-7.6,0.3-13.7,6.5-13.7,14.1c0,0.9,0.1,1.7,0.2,2.5   L43.7,85.5z M74.6,85.9c-6.2,0-11.4-4.4-12.8-10.2c-0.1-0.3-0.1-0.7-0.2-1c-0.1-0.6-0.2-1.3-0.2-1.9c0-7.1,5.6-12.9,12.7-13.1   c0.2,0,0.3,0,0.5,0c0.2,0,0.3,0,0.5,0c7,0.3,12.7,6,12.7,13.1C87.8,80,81.9,85.9,74.6,85.9z"></path><path d="M80.1,72.3h-5v-5c0-0.3-0.2-0.5-0.5-0.5c-0.3,0-0.5,0.2-0.5,0.5v5h-5c-0.3,0-0.5,0.2-0.5,0.5c0,0.3,0.2,0.5,0.5,0.5h5v5   c0,0.3,0.2,0.5,0.5,0.5c0.3,0,0.5-0.2,0.5-0.5v-5h5c0.3,0,0.5-0.2,0.5-0.5C80.6,72.5,80.4,72.3,80.1,72.3z"></path></g></svg></g></g></svg>